G04 DipTrace 5.2.0.4*
G04 1 - Top.gbr*
%MOIN*%
G04 #@! TF.FileFunction,Copper,L1,Top*
G04 #@! TF.Part,Single*
G04 #@! TA.AperFunction,Conductor*
%ADD13C,0.0125*%
G04 #@! TA.AperFunction,CopperBalancing*
%ADD14C,0.025*%
G04 #@! TA.AperFunction,ComponentPad*
%ADD15R,0.082677X0.082677*%
%ADD16C,0.082677*%
%ADD17C,0.05*%
%ADD18R,0.05X0.05*%
%ADD19C,0.077953*%
%ADD21C,0.043307*%
%ADD22C,0.051496*%
%ADD23C,0.047559*%
%ADD24C,0.049528*%
G04 #@! TA.AperFunction,ViaPad*
%ADD25C,0.04*%
%FSLAX26Y26*%
G04*
G70*
G90*
G75*
G01*
G04 Top*
%LPD*%
X2768700Y2418700D2*
D13*
Y3242125D1*
X2968700Y3442125D1*
X1968700Y593700D2*
X2099674D1*
X2224674Y718700D1*
X2468700D1*
X1368700Y2118700D2*
X1280976Y2206424D1*
Y2555976D1*
X1368700Y2643700D1*
Y1093700D2*
X1280976Y1181424D1*
Y1530976D1*
X1368700Y1618700D1*
X1968700Y1093700D2*
X2027804Y1152804D1*
Y1787497D1*
X2059007Y1818700D1*
X2468700D1*
X2068426Y1618756D2*
Y1043793D1*
Y993426D1*
X1968700Y893700D1*
Y793700D2*
X2109048Y934048D1*
Y1159048D1*
X2468700Y1518700D1*
X693700Y1367125D2*
X846044Y1214781D1*
Y721938D1*
X874281Y693700D1*
X1368700D1*
X1968700Y2118700D2*
X2221784Y1865616D1*
X2487150D1*
X2515273Y1837493D1*
Y1393771D1*
X2487150Y1365648D1*
X2393405D1*
X2365281Y1337524D1*
Y993797D1*
X2393406Y965672D1*
X2487150D1*
X2515273Y993796D1*
Y1172127D1*
X2468700Y1218700D1*
X1968700Y3343700D2*
X2587144D1*
X2615267Y3315577D1*
Y1293777D1*
X2587144Y1265654D1*
X2449653D1*
X2421529Y1237531D1*
Y1065871D1*
X2468700Y1018700D1*
X2249665Y653193D2*
Y534451D1*
X2221541Y506327D1*
X1880939D1*
X1852815Y534451D1*
Y2627815D1*
X1968700Y2743700D1*
X693700Y2417125D2*
X1006791Y2104035D1*
Y2080609D1*
X1368700Y1718700D1*
X2468700Y618700D2*
X2787130D1*
X2815254Y646823D1*
Y3091829D1*
X2968700Y3245275D1*
X2234041Y1918738D2*
Y1984041D1*
X2468700Y2218700D1*
X1368700Y1293700D2*
X1427840Y1352840D1*
Y2259560D1*
X1368700Y2318700D1*
X1427840Y2377840D1*
Y3284560D1*
X1368700Y3343700D1*
Y3968700D1*
X1968700Y993700D2*
X1909061Y1053339D1*
Y1959061D1*
X1968700Y2018700D1*
X2468700Y818700D2*
X2227684D1*
X2052802Y643818D1*
D25*
X2068426Y1043793D3*
Y1618756D3*
X2249665Y653193D3*
X2234041Y1918738D3*
X2052802Y643818D3*
X434709Y4205331D2*
D14*
X3252700D1*
X434709Y4180462D2*
X3252700D1*
X434709Y4155594D2*
X3252700D1*
X434709Y4130725D2*
X3252700D1*
X434709Y4105856D2*
X3252700D1*
X434709Y4080987D2*
X3252700D1*
X434709Y4056119D2*
X3252700D1*
X434709Y4031250D2*
X1822356D1*
X1961904D2*
X2168011D1*
X2222531D2*
X2322349D1*
X2461896D2*
X3252700D1*
X434709Y4006381D2*
X706932D1*
X780471D2*
X1037139D1*
X1100271D2*
X1337130D1*
X1400263D2*
X1822356D1*
X1961904D2*
X2137043D1*
X2253499D2*
X2322349D1*
X2461896D2*
X3252700D1*
X434709Y3981512D2*
X691897D1*
X795489D2*
X1020363D1*
X1117029D2*
X1320372D1*
X1417039D2*
X1822356D1*
X1961904D2*
X2126726D1*
X2263816D2*
X2322349D1*
X2461896D2*
X3252700D1*
X434709Y3956644D2*
X691717D1*
X795686D2*
X1020165D1*
X1117226D2*
X1320157D1*
X1417236D2*
X1822356D1*
X1961904D2*
X2126600D1*
X2263959D2*
X2322349D1*
X2461896D2*
X3252700D1*
X434709Y3931775D2*
X706125D1*
X781278D2*
X1036188D1*
X1101222D2*
X1334008D1*
X1403385D2*
X1822356D1*
X1961904D2*
X2136540D1*
X2254001D2*
X2322349D1*
X2461896D2*
X3252700D1*
X434709Y3906906D2*
X1334008D1*
X1403385D2*
X1822356D1*
X1961904D2*
X2166181D1*
X2224361D2*
X2322349D1*
X2461896D2*
X3252700D1*
X434709Y3882037D2*
X1334008D1*
X1403385D2*
X3252700D1*
X434709Y3857169D2*
X1334008D1*
X1403385D2*
X2898936D1*
X3038466D2*
X3252700D1*
X434709Y3832300D2*
X1334008D1*
X1403385D2*
X2898936D1*
X3038466D2*
X3252700D1*
X434709Y3807431D2*
X1334008D1*
X1403385D2*
X2898936D1*
X3038466D2*
X3252700D1*
X434709Y3782562D2*
X1334008D1*
X1403385D2*
X2898936D1*
X3038466D2*
X3252700D1*
X434709Y3757693D2*
X1334008D1*
X1403385D2*
X2898936D1*
X3038466D2*
X3252700D1*
X434709Y3732825D2*
X1334008D1*
X1403385D2*
X2898936D1*
X3038466D2*
X3252700D1*
X434709Y3707956D2*
X1334008D1*
X1403385D2*
X3252700D1*
X434709Y3683087D2*
X1334008D1*
X1403385D2*
X3252700D1*
X434709Y3658218D2*
X1334008D1*
X1403385D2*
X3252700D1*
X434709Y3633350D2*
X1334008D1*
X1403385D2*
X3252700D1*
X434709Y3608481D2*
X1334008D1*
X1403385D2*
X3252700D1*
X434709Y3583612D2*
X1334008D1*
X1403385D2*
X3252700D1*
X434709Y3558743D2*
X1334008D1*
X1403385D2*
X3252700D1*
X434709Y3533875D2*
X623932D1*
X763480D2*
X1334008D1*
X1403385D2*
X3252700D1*
X434709Y3509006D2*
X623932D1*
X763480D2*
X1334008D1*
X1403385D2*
X3252700D1*
X434709Y3484137D2*
X623932D1*
X763480D2*
X1334008D1*
X1403385D2*
X3252700D1*
X434709Y3459268D2*
X623932D1*
X763480D2*
X1334008D1*
X1403385D2*
X3252700D1*
X434709Y3434399D2*
X623932D1*
X763480D2*
X1334008D1*
X1403385D2*
X3252700D1*
X434709Y3409531D2*
X623932D1*
X763480D2*
X1334008D1*
X1403385D2*
X3252700D1*
X434709Y3384662D2*
X1315851D1*
X1421560D2*
X1915853D1*
X2021562D2*
X3252700D1*
X434709Y3359793D2*
X1303309D1*
X1434084D2*
X1903311D1*
X2619069D2*
X3252700D1*
X434709Y3334924D2*
X672609D1*
X714803D2*
X1301892D1*
X1435519D2*
X1901894D1*
X2643488D2*
X3252700D1*
X434709Y3310056D2*
X636958D1*
X750454D2*
X1310684D1*
X1450357D2*
X1910685D1*
X2026711D2*
X2572766D1*
X2649947D2*
X2898936D1*
X3038466D2*
X3252700D1*
X434709Y3285187D2*
X625601D1*
X761793D2*
X1316282D1*
X1462522D2*
X1916283D1*
X2021113D2*
X2580589D1*
X2649947D2*
X2898936D1*
X3038466D2*
X3252700D1*
X434709Y3260318D2*
X624668D1*
X762726D2*
X1303453D1*
X1462522D2*
X1903455D1*
X2033942D2*
X2580589D1*
X2649947D2*
X2898936D1*
X3038466D2*
X3252700D1*
X434709Y3235449D2*
X633639D1*
X753755D2*
X1301820D1*
X1462522D2*
X1901822D1*
X2035574D2*
X2580589D1*
X2649947D2*
X2898936D1*
X3038466D2*
X3252700D1*
X434709Y3210581D2*
X660175D1*
X727219D2*
X1310379D1*
X1462522D2*
X1910380D1*
X2027016D2*
X2580589D1*
X2649947D2*
X2885999D1*
X3038466D2*
X3252700D1*
X434709Y3185712D2*
X1337041D1*
X1462522D2*
X1916714D1*
X2020682D2*
X2580589D1*
X2649947D2*
X2861114D1*
X3038466D2*
X3252700D1*
X434709Y3160843D2*
X1393163D1*
X1462522D2*
X1903598D1*
X2033798D2*
X2580589D1*
X2649947D2*
X2836246D1*
X2932284D2*
X3252700D1*
X434709Y3135974D2*
X1393163D1*
X1462522D2*
X1901750D1*
X2035646D2*
X2580589D1*
X2649947D2*
X2811378D1*
X2907416D2*
X3252700D1*
X434709Y3111106D2*
X1393163D1*
X1462522D2*
X1910075D1*
X2027339D2*
X2580589D1*
X2649947D2*
X2786977D1*
X2882549D2*
X3252700D1*
X434709Y3086237D2*
X1317179D1*
X1462522D2*
X1917162D1*
X2020234D2*
X2580589D1*
X2649947D2*
X2780572D1*
X2857681D2*
X3252700D1*
X434709Y3061368D2*
X1303740D1*
X1462522D2*
X1903742D1*
X2033654D2*
X2580589D1*
X2649947D2*
X2780572D1*
X2849930D2*
X3252700D1*
X434709Y3036499D2*
X1301695D1*
X1462522D2*
X1901696D1*
X2035718D2*
X2580589D1*
X2649947D2*
X2780572D1*
X2849930D2*
X3252700D1*
X434709Y3011630D2*
X1309769D1*
X1462522D2*
X1909770D1*
X2027626D2*
X2580589D1*
X2649947D2*
X2780572D1*
X2849930D2*
X3252700D1*
X434709Y2986762D2*
X623932D1*
X763480D2*
X1317627D1*
X1462522D2*
X1917629D1*
X2019767D2*
X2580589D1*
X2649947D2*
X2780572D1*
X2849930D2*
X3252700D1*
X434709Y2961893D2*
X623932D1*
X763480D2*
X1303884D1*
X1462522D2*
X1903885D1*
X2033511D2*
X2437824D1*
X2499575D2*
X2580589D1*
X2649947D2*
X2780572D1*
X2849930D2*
X3037825D1*
X3099576D2*
X3252700D1*
X434709Y2937024D2*
X623932D1*
X763480D2*
X1301641D1*
X1462522D2*
X1901642D1*
X2035772D2*
X2417872D1*
X2519526D2*
X2580589D1*
X2649947D2*
X2780572D1*
X2849930D2*
X3017874D1*
X3119528D2*
X3252700D1*
X434709Y2912155D2*
X623932D1*
X763480D2*
X1309464D1*
X1462522D2*
X1909465D1*
X2027931D2*
X2414930D1*
X2522469D2*
X2580589D1*
X2649947D2*
X2780572D1*
X2849930D2*
X3014931D1*
X3122470D2*
X3252700D1*
X434709Y2887287D2*
X623932D1*
X763480D2*
X1318094D1*
X1462522D2*
X1918095D1*
X2019301D2*
X2425157D1*
X2512242D2*
X2580589D1*
X2649947D2*
X2780572D1*
X2849930D2*
X3025158D1*
X3112243D2*
X3252700D1*
X434709Y2862418D2*
X1304045D1*
X1462522D2*
X1904047D1*
X2033349D2*
X2438631D1*
X2498767D2*
X2580589D1*
X2649947D2*
X2780572D1*
X2849930D2*
X3038633D1*
X3098769D2*
X3252700D1*
X434709Y2837549D2*
X1301587D1*
X1462522D2*
X1901589D1*
X2035825D2*
X2418070D1*
X2519329D2*
X2580589D1*
X2649947D2*
X2780572D1*
X2849930D2*
X3018071D1*
X3119313D2*
X3252700D1*
X434709Y2812680D2*
X1309177D1*
X1462522D2*
X1909178D1*
X2028218D2*
X2414876D1*
X2522523D2*
X2580589D1*
X2649947D2*
X2780572D1*
X2849930D2*
X3014878D1*
X3122524D2*
X3252700D1*
X434709Y2787812D2*
X639075D1*
X748319D2*
X1318578D1*
X1462522D2*
X1918580D1*
X2018816D2*
X2424762D1*
X2512637D2*
X2580589D1*
X2649947D2*
X2780572D1*
X2849930D2*
X3024764D1*
X3112638D2*
X3252700D1*
X434709Y2762943D2*
X626283D1*
X761112D2*
X1304207D1*
X1462522D2*
X1904208D1*
X2033188D2*
X2439493D1*
X2497906D2*
X2580589D1*
X2649947D2*
X2780572D1*
X2849930D2*
X3039494D1*
X3097908D2*
X3252700D1*
X434709Y2738074D2*
X624309D1*
X763085D2*
X1301533D1*
X1462522D2*
X1901535D1*
X2035861D2*
X2418285D1*
X2519114D2*
X2580589D1*
X2649947D2*
X2780572D1*
X2849930D2*
X3018287D1*
X3119115D2*
X3252700D1*
X434709Y2713205D2*
X632060D1*
X755334D2*
X1308907D1*
X1462522D2*
X1890195D1*
X2028505D2*
X2414804D1*
X2522594D2*
X2580589D1*
X2649947D2*
X2780572D1*
X2849930D2*
X3014806D1*
X3122596D2*
X3252700D1*
X434709Y2688336D2*
X655367D1*
X732027D2*
X1332322D1*
X1462522D2*
X1865328D1*
X2005091D2*
X2424385D1*
X2513013D2*
X2580589D1*
X2649947D2*
X2780572D1*
X2849930D2*
X3024387D1*
X3113015D2*
X3252700D1*
X434709Y2663468D2*
X1393163D1*
X1462522D2*
X1840460D1*
X1936480D2*
X2440372D1*
X2497027D2*
X2580589D1*
X2649947D2*
X2780572D1*
X2849930D2*
X3040373D1*
X3097029D2*
X3252700D1*
X434709Y2638599D2*
X1393163D1*
X1462522D2*
X1819988D1*
X1911612D2*
X2418500D1*
X2518898D2*
X2580589D1*
X2649947D2*
X2780572D1*
X2849930D2*
X3018502D1*
X3118900D2*
X3252700D1*
X434709Y2613730D2*
X1393163D1*
X1462522D2*
X1818140D1*
X1887498D2*
X2414750D1*
X2522648D2*
X2580589D1*
X2649947D2*
X2780572D1*
X2849930D2*
X3014752D1*
X3122650D2*
X3252700D1*
X434709Y2588861D2*
X1393163D1*
X1462522D2*
X1818140D1*
X1887498D2*
X2424009D1*
X2513390D2*
X2580589D1*
X2649947D2*
X2780572D1*
X2849930D2*
X3024010D1*
X3113392D2*
X3252700D1*
X434709Y2563993D2*
X1393163D1*
X1462522D2*
X1818140D1*
X1887498D2*
X2441305D1*
X2496094D2*
X2580589D1*
X2649947D2*
X2780572D1*
X2849930D2*
X3041306D1*
X3096096D2*
X3252700D1*
X434709Y2539124D2*
X1393163D1*
X1462522D2*
X1818140D1*
X1887498D2*
X2418734D1*
X2518683D2*
X2580589D1*
X2649947D2*
X2780572D1*
X2849930D2*
X3018717D1*
X3118667D2*
X3252700D1*
X434709Y2514255D2*
X1393163D1*
X1462522D2*
X1818140D1*
X1887498D2*
X2414715D1*
X2522684D2*
X2580589D1*
X2649947D2*
X2780572D1*
X2849930D2*
X3014716D1*
X3122686D2*
X3252700D1*
X434709Y2489386D2*
X1393163D1*
X1462522D2*
X1818140D1*
X1887498D2*
X2423632D1*
X2513767D2*
X2580589D1*
X2649947D2*
X2780572D1*
X2849930D2*
X3023633D1*
X3113768D2*
X3252700D1*
X434709Y2464518D2*
X623932D1*
X763480D2*
X1393163D1*
X1462522D2*
X1818140D1*
X1887498D2*
X2442292D1*
X2495107D2*
X2542283D1*
X2695108D2*
X2780572D1*
X2895108D2*
X2942284D1*
X2995117D2*
X3042293D1*
X3095109D2*
X3252700D1*
X434709Y2439649D2*
X623932D1*
X763480D2*
X1393163D1*
X1462522D2*
X1818140D1*
X1887498D2*
X2418949D1*
X2718450D2*
X2780572D1*
X3118451D2*
X3252700D1*
X434709Y2414780D2*
X623932D1*
X763480D2*
X1393163D1*
X1462522D2*
X1818140D1*
X1887498D2*
X2414661D1*
X2722739D2*
X2780572D1*
X3122740D2*
X3252700D1*
X434709Y2389911D2*
X623932D1*
X768934D2*
X1391890D1*
X1462522D2*
X1818140D1*
X1887498D2*
X2423273D1*
X2514126D2*
X2523282D1*
X2714126D2*
X2780572D1*
X2914127D2*
X2923283D1*
X3014118D2*
X3023274D1*
X3114127D2*
X3252700D1*
X434709Y2365043D2*
X623932D1*
X793802D2*
X1320749D1*
X1459866D2*
X1818140D1*
X1887498D2*
X1920751D1*
X2016645D2*
X2443332D1*
X2494084D2*
X2580589D1*
X2649947D2*
X2780572D1*
X2849930D2*
X3043316D1*
X3094068D2*
X3252700D1*
X434709Y2340174D2*
X722632D1*
X818670D2*
X1304942D1*
X1438192D2*
X1818140D1*
X1887498D2*
X1904944D1*
X2032452D2*
X2419182D1*
X2518217D2*
X2580589D1*
X2649947D2*
X2780572D1*
X2849930D2*
X3019184D1*
X3118200D2*
X3252700D1*
X434709Y2315305D2*
X747499D1*
X843538D2*
X1301372D1*
X1436021D2*
X1818140D1*
X1887498D2*
X1901373D1*
X2036023D2*
X2414625D1*
X2522774D2*
X2580589D1*
X2649947D2*
X2780572D1*
X2849930D2*
X3014626D1*
X3122775D2*
X3252700D1*
X434709Y2290436D2*
X772367D1*
X868405D2*
X1307759D1*
X1444974D2*
X1818140D1*
X1887498D2*
X1907761D1*
X2029635D2*
X2422932D1*
X2514467D2*
X2580589D1*
X2649947D2*
X2780572D1*
X2849930D2*
X3022934D1*
X3114468D2*
X3252700D1*
X434709Y2265567D2*
X641462D1*
X745933D2*
X797235D1*
X893273D2*
X1321287D1*
X1461966D2*
X1818140D1*
X1887498D2*
X1921289D1*
X2016107D2*
X2444427D1*
X2492972D2*
X2580589D1*
X2649947D2*
X2780572D1*
X2849930D2*
X3044410D1*
X3092974D2*
X3252700D1*
X434709Y2240699D2*
X627108D1*
X760304D2*
X822120D1*
X918141D2*
X1305140D1*
X1462522D2*
X1818140D1*
X1887498D2*
X1905123D1*
X2032273D2*
X2419433D1*
X2517965D2*
X2580589D1*
X2649947D2*
X2780572D1*
X2849930D2*
X3019435D1*
X3117967D2*
X3252700D1*
X434709Y2215830D2*
X624076D1*
X763318D2*
X846988D1*
X943008D2*
X1301354D1*
X1462522D2*
X1818140D1*
X1887498D2*
X1901355D1*
X2036041D2*
X2414607D1*
X2522810D2*
X2580589D1*
X2649947D2*
X2780572D1*
X2849930D2*
X3014590D1*
X3122793D2*
X3252700D1*
X434709Y2190961D2*
X630642D1*
X756752D2*
X871856D1*
X967876D2*
X1307508D1*
X1462522D2*
X1818140D1*
X1887498D2*
X1907509D1*
X2029887D2*
X2392951D1*
X2514808D2*
X2580589D1*
X2649947D2*
X2780572D1*
X2849930D2*
X3022593D1*
X3114809D2*
X3252700D1*
X434709Y2166092D2*
X651330D1*
X736064D2*
X896724D1*
X992744D2*
X1328177D1*
X1462522D2*
X1818140D1*
X1887498D2*
X1921845D1*
X2015551D2*
X2368083D1*
X2491806D2*
X2580589D1*
X2649947D2*
X2780572D1*
X2849930D2*
X3045594D1*
X3091807D2*
X3252700D1*
X434709Y2141224D2*
X921591D1*
X1017612D2*
X1393163D1*
X1462522D2*
X1818140D1*
X1887498D2*
X1905321D1*
X2032076D2*
X2343215D1*
X2517714D2*
X2580589D1*
X2649947D2*
X2780572D1*
X2849930D2*
X3019686D1*
X3117716D2*
X3252700D1*
X434709Y2116355D2*
X946459D1*
X1039017D2*
X1393163D1*
X1462522D2*
X1818140D1*
X1887498D2*
X1901337D1*
X2036059D2*
X2318348D1*
X2522828D2*
X2580589D1*
X2649947D2*
X2780572D1*
X2849930D2*
X3014573D1*
X3122829D2*
X3252700D1*
X434709Y2091486D2*
X971327D1*
X1043933D2*
X1393163D1*
X1462522D2*
X1818140D1*
X1887498D2*
X1907276D1*
X2043935D2*
X2293480D1*
X2389500D2*
X2422268D1*
X2515131D2*
X2580589D1*
X2649947D2*
X2780572D1*
X2849930D2*
X3022270D1*
X3115132D2*
X3252700D1*
X434709Y2066617D2*
X975310D1*
X1068800D2*
X1322418D1*
X1462522D2*
X1818140D1*
X1887498D2*
X1922419D1*
X2068803D2*
X2268594D1*
X2364632D2*
X2580589D1*
X2649947D2*
X2780572D1*
X2849930D2*
X3046832D1*
X3090569D2*
X3252700D1*
X434709Y2041749D2*
X997630D1*
X1093668D2*
X1305516D1*
X1462522D2*
X1818140D1*
X1887498D2*
X1905518D1*
X2093671D2*
X2243726D1*
X2339765D2*
X2580589D1*
X2649947D2*
X2780572D1*
X2849930D2*
X3019937D1*
X3117465D2*
X3252700D1*
X434709Y2016880D2*
X1022498D1*
X1118536D2*
X1301318D1*
X1462522D2*
X1818140D1*
X1887498D2*
X1901319D1*
X2118539D2*
X2218859D1*
X2314897D2*
X2580589D1*
X2649947D2*
X2780572D1*
X2849930D2*
X3014555D1*
X3122847D2*
X3252700D1*
X434709Y1992011D2*
X1047383D1*
X1143404D2*
X1307024D1*
X1462522D2*
X1818140D1*
X2030371D2*
X2047368D1*
X2143406D2*
X2200360D1*
X2290029D2*
X2580589D1*
X2649947D2*
X2780572D1*
X2849930D2*
X3021947D1*
X3115455D2*
X3252700D1*
X434709Y1967142D2*
X1072251D1*
X1168271D2*
X1322992D1*
X1462522D2*
X1818140D1*
X2014403D2*
X2072236D1*
X2168274D2*
X2199356D1*
X2268732D2*
X2448194D1*
X2489204D2*
X2580589D1*
X2649947D2*
X2780572D1*
X2849930D2*
X3048196D1*
X3089206D2*
X3252700D1*
X434709Y1942273D2*
X623932D1*
X763480D2*
X1097119D1*
X1193139D2*
X1305714D1*
X1462522D2*
X1818140D1*
X2031681D2*
X2097104D1*
X2275980D2*
X2420205D1*
X2517194D2*
X2580589D1*
X2649947D2*
X2780572D1*
X2849930D2*
X3020206D1*
X3117195D2*
X3252700D1*
X434709Y1917405D2*
X623932D1*
X763480D2*
X1121987D1*
X1218007D2*
X1301300D1*
X1462522D2*
X1818140D1*
X2036095D2*
X2121989D1*
X2282457D2*
X2414535D1*
X2522864D2*
X2580589D1*
X2649947D2*
X2780572D1*
X2849930D2*
X3014537D1*
X3122865D2*
X3252700D1*
X434709Y1892536D2*
X623932D1*
X763480D2*
X1146854D1*
X1242875D2*
X1306790D1*
X1462522D2*
X1818140D1*
X2030604D2*
X2146857D1*
X2515776D2*
X2580589D1*
X2649947D2*
X2780572D1*
X2849930D2*
X3021624D1*
X3115778D2*
X3252700D1*
X434709Y1867667D2*
X623932D1*
X763480D2*
X1171722D1*
X1267742D2*
X1323584D1*
X1462522D2*
X1818140D1*
X2013811D2*
X2171725D1*
X2533109D2*
X2580589D1*
X2649947D2*
X2780572D1*
X2849930D2*
X3049667D1*
X3087735D2*
X3252700D1*
X434709Y1842798D2*
X623932D1*
X763480D2*
X1196590D1*
X1292610D2*
X1305929D1*
X1462522D2*
X1818140D1*
X2549508D2*
X2580589D1*
X2649947D2*
X2780572D1*
X2849930D2*
X3020475D1*
X3116926D2*
X3252700D1*
X434709Y1817930D2*
X1221458D1*
X1462522D2*
X1818140D1*
X2549956D2*
X2580589D1*
X2649947D2*
X2780572D1*
X2849930D2*
X3014519D1*
X3122883D2*
X3252700D1*
X434709Y1793061D2*
X1246325D1*
X1462522D2*
X1818140D1*
X2549956D2*
X2580589D1*
X2649947D2*
X2780572D1*
X2849930D2*
X3021319D1*
X3116065D2*
X3252700D1*
X434709Y1768192D2*
X1271193D1*
X1462522D2*
X1818140D1*
X2062487D2*
X2451316D1*
X2549956D2*
X2580589D1*
X2649947D2*
X2780572D1*
X2849930D2*
X3051318D1*
X3086084D2*
X3252700D1*
X434709Y1743323D2*
X644117D1*
X743277D2*
X1296061D1*
X1462522D2*
X1818140D1*
X2062487D2*
X2420761D1*
X2549956D2*
X2580589D1*
X2649947D2*
X2780572D1*
X2849930D2*
X3020763D1*
X3116639D2*
X3252700D1*
X434709Y1718455D2*
X628041D1*
X759353D2*
X1301282D1*
X1462522D2*
X1818140D1*
X2062487D2*
X2414517D1*
X2549956D2*
X2580589D1*
X2649947D2*
X2780572D1*
X2849930D2*
X3014519D1*
X3122883D2*
X3252700D1*
X434709Y1693586D2*
X623950D1*
X763444D2*
X1306342D1*
X1462522D2*
X1818140D1*
X2062487D2*
X2421030D1*
X2549956D2*
X2580589D1*
X2649947D2*
X2780572D1*
X2849930D2*
X3021032D1*
X3116370D2*
X3252700D1*
X434709Y1668717D2*
X629387D1*
X758008D2*
X1324786D1*
X1462522D2*
X1818140D1*
X2062487D2*
X2453057D1*
X2549956D2*
X2580589D1*
X2649947D2*
X2780572D1*
X2849930D2*
X3053058D1*
X3084343D2*
X3252700D1*
X434709Y1643848D2*
X647831D1*
X739563D2*
X1393163D1*
X1462522D2*
X1818140D1*
X1943747D2*
X1993129D1*
X2109406D2*
X2421048D1*
X2549956D2*
X2580589D1*
X2649947D2*
X2780572D1*
X2849930D2*
X3021050D1*
X3116352D2*
X3252700D1*
X434709Y1618980D2*
X1393163D1*
X1462522D2*
X1818140D1*
X1943747D2*
X1993129D1*
X2116852D2*
X2414517D1*
X2549956D2*
X2580589D1*
X2649947D2*
X2780572D1*
X2849930D2*
X3014519D1*
X3122883D2*
X3252700D1*
X434709Y1594111D2*
X1393163D1*
X1462522D2*
X1818140D1*
X1943747D2*
X1993129D1*
X2109693D2*
X2420743D1*
X2549956D2*
X2580589D1*
X2649947D2*
X2780572D1*
X2849930D2*
X3020745D1*
X3116657D2*
X3252700D1*
X434709Y1569242D2*
X1393163D1*
X1462522D2*
X1818140D1*
X1943747D2*
X1993129D1*
X2103108D2*
X2451209D1*
X2549956D2*
X2580589D1*
X2649947D2*
X2780572D1*
X2849930D2*
X3051210D1*
X3086192D2*
X3252700D1*
X434709Y1544373D2*
X1393163D1*
X1462522D2*
X1818140D1*
X1943747D2*
X1993129D1*
X2103108D2*
X2421353D1*
X2549956D2*
X2580589D1*
X2649947D2*
X2780572D1*
X2849930D2*
X3021355D1*
X3116047D2*
X3252700D1*
X434709Y1519504D2*
X1393163D1*
X1462522D2*
X1818140D1*
X1943747D2*
X1993129D1*
X2103108D2*
X2414517D1*
X2549956D2*
X2580589D1*
X2649947D2*
X2780572D1*
X2849930D2*
X3014519D1*
X3122883D2*
X3252700D1*
X434709Y1494636D2*
X1393163D1*
X1462522D2*
X1818140D1*
X1943747D2*
X1993129D1*
X2103108D2*
X2396629D1*
X2549956D2*
X2580589D1*
X2649947D2*
X2780572D1*
X2849930D2*
X3020458D1*
X3116944D2*
X3252700D1*
X434709Y1469767D2*
X1393163D1*
X1462522D2*
X1818140D1*
X1943747D2*
X1993129D1*
X2103108D2*
X2371761D1*
X2549956D2*
X2580589D1*
X2649947D2*
X2780572D1*
X2849930D2*
X3049578D1*
X3087824D2*
X3252700D1*
X434709Y1444898D2*
X1393163D1*
X1462522D2*
X1818140D1*
X1943747D2*
X1993129D1*
X2103108D2*
X2346875D1*
X2549956D2*
X2580589D1*
X2649947D2*
X2780572D1*
X2849930D2*
X3021660D1*
X3115742D2*
X3252700D1*
X434709Y1420029D2*
X623932D1*
X763480D2*
X1393163D1*
X1462522D2*
X1818140D1*
X1943747D2*
X1993129D1*
X2103108D2*
X2322008D1*
X2549956D2*
X2580589D1*
X2649947D2*
X2780572D1*
X2849930D2*
X3014537D1*
X3122865D2*
X3252700D1*
X434709Y1395161D2*
X623932D1*
X763480D2*
X1393163D1*
X1462522D2*
X1818140D1*
X1943747D2*
X1993129D1*
X2103108D2*
X2297140D1*
X2549956D2*
X2580589D1*
X2649947D2*
X2780572D1*
X2849930D2*
X3020188D1*
X3117213D2*
X3252700D1*
X434709Y1370292D2*
X623932D1*
X763480D2*
X1393163D1*
X1462522D2*
X1818140D1*
X1943747D2*
X1993129D1*
X2103108D2*
X2272272D1*
X2539801D2*
X2580589D1*
X2649947D2*
X2780572D1*
X2849930D2*
X3048106D1*
X3089295D2*
X3252700D1*
X434709Y1345423D2*
X623932D1*
X763480D2*
X1326975D1*
X1461661D2*
X1818140D1*
X2103108D2*
X2247404D1*
X2515436D2*
X2580589D1*
X2649947D2*
X2780572D1*
X2849930D2*
X3021965D1*
X3115437D2*
X3252700D1*
X434709Y1320554D2*
X623932D1*
X788294D2*
X1307113D1*
X1443575D2*
X1818140D1*
X2103108D2*
X2222537D1*
X2318575D2*
X2330602D1*
X2399960D2*
X2414553D1*
X2522846D2*
X2580589D1*
X2649947D2*
X2780572D1*
X2849930D2*
X3014555D1*
X3122847D2*
X3252700D1*
X434709Y1295686D2*
X717123D1*
X813162D2*
X1301318D1*
X1436075D2*
X1818140D1*
X2103108D2*
X2197669D1*
X2293707D2*
X2330602D1*
X2399960D2*
X2419918D1*
X2649947D2*
X2780572D1*
X2849930D2*
X2903206D1*
X2994041D2*
X3019919D1*
X3117483D2*
X3252700D1*
X434709Y1270817D2*
X741991D1*
X838029D2*
X1305463D1*
X1431948D2*
X1818140D1*
X2103108D2*
X2172801D1*
X2268839D2*
X2330602D1*
X2640313D2*
X2780572D1*
X2849930D2*
X2895473D1*
X3001774D2*
X3046761D1*
X3090641D2*
X3252700D1*
X434709Y1245948D2*
X766859D1*
X862897D2*
X1322238D1*
X1415173D2*
X1818140D1*
X2103108D2*
X2147934D1*
X2243954D2*
X2330602D1*
X2615445D2*
X2687937D1*
X2757331D2*
X2780572D1*
X2849930D2*
X2900820D1*
X2996427D2*
X3022288D1*
X3115114D2*
X3252700D1*
X434709Y1221079D2*
X647113D1*
X740299D2*
X791727D1*
X880103D2*
X1307346D1*
X1430047D2*
X1818140D1*
X2103108D2*
X2123066D1*
X2219086D2*
X2330602D1*
X2615642D2*
X2672148D1*
X2849930D2*
X2928738D1*
X2968509D2*
X3014573D1*
X3122829D2*
X3252700D1*
X434709Y1196210D2*
X629135D1*
X758277D2*
X811355D1*
X880731D2*
X1301336D1*
X1436057D2*
X1818140D1*
X2194218D2*
X2330602D1*
X2615929D2*
X2671861D1*
X2849930D2*
X2903529D1*
X2993700D2*
X3019668D1*
X3117734D2*
X3252700D1*
X434709Y1171342D2*
X623932D1*
X763462D2*
X811355D1*
X880731D2*
X1305265D1*
X1432146D2*
X1818140D1*
X2169351D2*
X2330602D1*
X2601163D2*
X2614823D1*
X2672967D2*
X2686627D1*
X2758641D2*
X2780572D1*
X2849930D2*
X2895491D1*
X3001756D2*
X3045505D1*
X3091897D2*
X3252700D1*
X434709Y1146473D2*
X628274D1*
X759120D2*
X811355D1*
X880731D2*
X1321664D1*
X1415729D2*
X1818140D1*
X2144483D2*
X2330602D1*
X2771792D2*
X2780572D1*
X2849930D2*
X2900551D1*
X2996678D2*
X3022611D1*
X3114791D2*
X3252700D1*
X434709Y1121604D2*
X644763D1*
X742631D2*
X811355D1*
X880731D2*
X1818140D1*
X2143729D2*
X2330602D1*
X2849930D2*
X2927356D1*
X2969891D2*
X3014608D1*
X3122793D2*
X3252700D1*
X434709Y1096735D2*
X811355D1*
X880731D2*
X1818140D1*
X2143729D2*
X2330602D1*
X2762678D2*
X2780572D1*
X2849930D2*
X2903888D1*
X2993359D2*
X3019417D1*
X3117985D2*
X3252700D1*
X434709Y1071867D2*
X811355D1*
X880731D2*
X1818140D1*
X2143729D2*
X2330602D1*
X2549956D2*
X2780572D1*
X2849930D2*
X2895527D1*
X3001720D2*
X3044338D1*
X3093045D2*
X3252700D1*
X434709Y1046998D2*
X811355D1*
X880731D2*
X1329146D1*
X1408247D2*
X1818140D1*
X2143729D2*
X2330602D1*
X2549956D2*
X2780572D1*
X2849930D2*
X2900299D1*
X2996930D2*
X3022951D1*
X3114450D2*
X3252700D1*
X434709Y1022129D2*
X811355D1*
X880731D2*
X1307849D1*
X1429544D2*
X1818140D1*
X2143729D2*
X2330602D1*
X2399960D2*
X2414625D1*
X2549956D2*
X2780572D1*
X2849930D2*
X2926082D1*
X2971147D2*
X3014626D1*
X3122775D2*
X3252700D1*
X434709Y997260D2*
X811355D1*
X880731D2*
X1301390D1*
X1436003D2*
X1818140D1*
X1887498D2*
X1901391D1*
X2143729D2*
X2330602D1*
X2549956D2*
X2780572D1*
X2849930D2*
X2904229D1*
X2993000D2*
X3019184D1*
X3118218D2*
X3252700D1*
X434709Y972392D2*
X811355D1*
X880731D2*
X1304888D1*
X1432505D2*
X1818140D1*
X1887498D2*
X1904890D1*
X2143729D2*
X2338748D1*
X2541810D2*
X2780572D1*
X2849930D2*
X2895563D1*
X3001684D2*
X3043262D1*
X3094140D2*
X3252700D1*
X434709Y947523D2*
X811355D1*
X880731D2*
X1320588D1*
X1416823D2*
X1818140D1*
X1887498D2*
X1920589D1*
X2143729D2*
X2363544D1*
X2517014D2*
X2780572D1*
X2849930D2*
X2900066D1*
X2997181D2*
X3023310D1*
X3114091D2*
X3252700D1*
X434709Y922654D2*
X811355D1*
X880731D2*
X1308100D1*
X1429293D2*
X1818140D1*
X1887498D2*
X1908102D1*
X2141648D2*
X2414679D1*
X2522738D2*
X2780572D1*
X2849930D2*
X2924916D1*
X2972331D2*
X3014662D1*
X3122722D2*
X3252700D1*
X434709Y897785D2*
X623932D1*
X763480D2*
X811355D1*
X880731D2*
X1301426D1*
X1435985D2*
X1818140D1*
X1887498D2*
X1901427D1*
X2120799D2*
X2418931D1*
X2518468D2*
X2780572D1*
X2849930D2*
X2904605D1*
X2992641D2*
X3018932D1*
X3118451D2*
X3252700D1*
X434709Y872917D2*
X623932D1*
X763480D2*
X811355D1*
X880731D2*
X1304709D1*
X1432684D2*
X1818140D1*
X1887498D2*
X1904711D1*
X2095931D2*
X2442220D1*
X2495179D2*
X2780572D1*
X2849930D2*
X2895598D1*
X3001648D2*
X3042221D1*
X3095180D2*
X3252700D1*
X434709Y848048D2*
X623932D1*
X763480D2*
X811355D1*
X880731D2*
X1320049D1*
X1417344D2*
X1818140D1*
X1887498D2*
X1920051D1*
X2071064D2*
X2211969D1*
X2513749D2*
X2780572D1*
X2849930D2*
X2899815D1*
X2997414D2*
X3023651D1*
X3113733D2*
X3252700D1*
X434709Y823179D2*
X623932D1*
X763480D2*
X811355D1*
X880731D2*
X1308369D1*
X1429024D2*
X1818140D1*
X1887498D2*
X1908371D1*
X2046196D2*
X2184141D1*
X2522684D2*
X2780572D1*
X2849930D2*
X2923803D1*
X2973443D2*
X3014716D1*
X3122686D2*
X3252700D1*
X434709Y798310D2*
X623932D1*
X763480D2*
X811355D1*
X880731D2*
X1301461D1*
X1435950D2*
X1818140D1*
X1887498D2*
X1901463D1*
X2035951D2*
X2159273D1*
X2518683D2*
X2780572D1*
X2849930D2*
X3018717D1*
X3118685D2*
X3252700D1*
X434709Y773441D2*
X811355D1*
X880731D2*
X1304530D1*
X1432863D2*
X1818140D1*
X1887498D2*
X1904531D1*
X2032865D2*
X2134405D1*
X2230443D2*
X2441251D1*
X2496148D2*
X2780572D1*
X2849930D2*
X3041252D1*
X3096149D2*
X3252700D1*
X434709Y748573D2*
X811355D1*
X880731D2*
X1319547D1*
X1417864D2*
X1818140D1*
X1887498D2*
X1919549D1*
X2017848D2*
X2109537D1*
X2205576D2*
X2524036D1*
X2613381D2*
X2780572D1*
X2849930D2*
X3024028D1*
X3113374D2*
X3252700D1*
X434709Y723704D2*
X811355D1*
X1428755D2*
X1818140D1*
X1887498D2*
X1908640D1*
X2028756D2*
X2084670D1*
X2180708D2*
X2514760D1*
X2622640D2*
X2780572D1*
X2849930D2*
X3014770D1*
X3122632D2*
X3252700D1*
X434709Y698835D2*
X650504D1*
X736908D2*
X821134D1*
X1435914D2*
X1818140D1*
X1887498D2*
X1901499D1*
X2035915D2*
X2059802D1*
X2155840D2*
X2242004D1*
X2257339D2*
X2518492D1*
X2618908D2*
X2780572D1*
X2849930D2*
X3018484D1*
X3118918D2*
X3252700D1*
X434709Y673966D2*
X630355D1*
X757039D2*
X846001D1*
X1433043D2*
X1818140D1*
X1887498D2*
X1904370D1*
X2130972D2*
X2206192D1*
X2293133D2*
X2540327D1*
X2597090D2*
X2780572D1*
X2849930D2*
X3040319D1*
X3097082D2*
X3252700D1*
X434709Y649098D2*
X624040D1*
X763354D2*
X1319045D1*
X1418366D2*
X1818140D1*
X1887498D2*
X1919046D1*
X2106105D2*
X2201419D1*
X2297924D2*
X2424403D1*
X2849930D2*
X3252700D1*
X434709Y624229D2*
X627305D1*
X760089D2*
X1818140D1*
X1887498D2*
X2008757D1*
X2096847D2*
X2211520D1*
X2287822D2*
X2414822D1*
X2840672D2*
X3252700D1*
X434709Y599360D2*
X642036D1*
X745358D2*
X1818140D1*
X1887498D2*
X2038756D1*
X2066847D2*
X2214983D1*
X2284341D2*
X2418267D1*
X2815804D2*
X3252700D1*
X434709Y574491D2*
X1818140D1*
X1887498D2*
X2214983D1*
X2284341D2*
X2439439D1*
X2497960D2*
X3252700D1*
X434709Y549623D2*
X1818140D1*
X1887498D2*
X2214983D1*
X2284341D2*
X3252700D1*
X434709Y524754D2*
X1819629D1*
X2282852D2*
X3252700D1*
X434709Y499885D2*
X1839365D1*
X2263116D2*
X3252700D1*
X434709Y475016D2*
X1870997D1*
X2231484D2*
X3252700D1*
X434709Y450148D2*
X3252700D1*
X1834040Y4035972D2*
X1959397D1*
Y3901428D1*
X1824853D1*
Y4035972D1*
X1834040D1*
X2910614Y3862547D2*
X3035972D1*
Y3728003D1*
X2901428D1*
Y3862547D1*
X2910614D1*
X793807Y3959563D2*
X791370Y3950763D1*
X787402Y3942540D1*
X782028Y3935157D1*
X775423Y3928852D1*
X767798Y3923828D1*
X759399Y3920246D1*
X750495Y3918222D1*
X741372Y3917820D1*
X732325Y3919053D1*
X723643Y3921882D1*
X715605Y3926216D1*
X708471Y3931915D1*
X702469Y3938797D1*
X697792Y3946639D1*
X694591Y3955191D1*
X692968Y3964177D1*
X692976Y3973308D1*
X694614Y3982291D1*
X697829Y3990838D1*
X702519Y3998672D1*
X708533Y4005544D1*
X715677Y4011231D1*
X723721Y4015551D1*
X732408Y4018366D1*
X741458Y4019584D1*
X750579Y4019167D1*
X759480Y4017127D1*
X767873Y4013531D1*
X775490Y4008495D1*
X782085Y4002179D1*
X787446Y3994787D1*
X791401Y3986557D1*
X793822Y3977752D1*
X794633Y3968700D1*
X793807Y3959563D1*
X635614Y909397D2*
X760972D1*
Y774853D1*
X626428D1*
Y909397D1*
X635614D1*
X760346Y636117D2*
X758478Y627127D1*
X755404Y618476D1*
X751180Y610323D1*
X745885Y602822D1*
X739618Y596112D1*
X732496Y590317D1*
X724652Y585546D1*
X716230Y581888D1*
X707389Y579410D1*
X698293Y578160D1*
X689112D1*
X680015Y579409D1*
X671174Y581886D1*
X662753Y585544D1*
X654908Y590314D1*
X647785Y596108D1*
X641518Y602818D1*
X636223Y610319D1*
X631998Y618471D1*
X628923Y627123D1*
X627055Y636112D1*
X626428Y645272D1*
X627054Y654433D1*
X628922Y663422D1*
X631996Y672074D1*
X636220Y680226D1*
X641515Y687727D1*
X647782Y694438D1*
X654904Y700233D1*
X662748Y705003D1*
X671170Y708662D1*
X680011Y711139D1*
X689107Y712390D1*
X698288D1*
X707385Y711140D1*
X716226Y708663D1*
X724647Y705006D1*
X732492Y700235D1*
X739615Y694441D1*
X745882Y687731D1*
X751177Y680230D1*
X755402Y672078D1*
X758477Y663427D1*
X760345Y654437D1*
X760972Y645275D1*
X760346Y636117D1*
Y1161117D2*
X758478Y1152127D1*
X755404Y1143476D1*
X751180Y1135323D1*
X745885Y1127822D1*
X739618Y1121112D1*
X732496Y1115317D1*
X724652Y1110546D1*
X716230Y1106888D1*
X707389Y1104410D1*
X698293Y1103160D1*
X689112D1*
X680015Y1104409D1*
X671174Y1106886D1*
X662753Y1110544D1*
X654908Y1115314D1*
X647785Y1121108D1*
X641518Y1127818D1*
X636223Y1135319D1*
X631998Y1143471D1*
X628923Y1152123D1*
X627055Y1161112D1*
X626428Y1170272D1*
X627054Y1179433D1*
X628922Y1188422D1*
X631996Y1197074D1*
X636220Y1205226D1*
X641515Y1212727D1*
X647782Y1219438D1*
X654904Y1225233D1*
X662748Y1230003D1*
X671170Y1233662D1*
X680011Y1236139D1*
X689107Y1237390D1*
X698288D1*
X707385Y1236140D1*
X716226Y1233663D1*
X724647Y1230006D1*
X732492Y1225235D1*
X739615Y1219441D1*
X745882Y1212731D1*
X751177Y1205230D1*
X755402Y1197078D1*
X758477Y1188427D1*
X760345Y1179437D1*
X760972Y1170275D1*
X760346Y1161117D1*
X635615Y1959397D2*
X760972D1*
Y1824853D1*
X626428D1*
Y1959397D1*
X635615D1*
X760346Y1686117D2*
X758478Y1677127D1*
X755404Y1668476D1*
X751180Y1660323D1*
X745885Y1652822D1*
X739618Y1646112D1*
X732496Y1640317D1*
X724652Y1635546D1*
X716230Y1631888D1*
X707389Y1629410D1*
X698293Y1628160D1*
X689112D1*
X680015Y1629409D1*
X671174Y1631886D1*
X662753Y1635544D1*
X654908Y1640314D1*
X647785Y1646108D1*
X641518Y1652818D1*
X636223Y1660319D1*
X631998Y1668471D1*
X628923Y1677123D1*
X627055Y1686112D1*
X626428Y1695272D1*
X627054Y1704433D1*
X628922Y1713422D1*
X631996Y1722074D1*
X636220Y1730226D1*
X641515Y1737727D1*
X647782Y1744438D1*
X654904Y1750233D1*
X662748Y1755003D1*
X671170Y1758662D1*
X680011Y1761139D1*
X689107Y1762390D1*
X698288D1*
X707385Y1761140D1*
X716226Y1758663D1*
X724647Y1755006D1*
X732492Y1750235D1*
X739615Y1744441D1*
X745882Y1737731D1*
X751177Y1730230D1*
X755402Y1722078D1*
X758477Y1713427D1*
X760345Y1704437D1*
X760972Y1695275D1*
X760346Y1686117D1*
Y2211117D2*
X758478Y2202127D1*
X755404Y2193476D1*
X751180Y2185323D1*
X745885Y2177822D1*
X739618Y2171112D1*
X732496Y2165317D1*
X724652Y2160546D1*
X716230Y2156888D1*
X707389Y2154410D1*
X698293Y2153160D1*
X689112D1*
X680015Y2154409D1*
X671174Y2156886D1*
X662753Y2160544D1*
X654908Y2165314D1*
X647785Y2171108D1*
X641518Y2177818D1*
X636223Y2185319D1*
X631998Y2193471D1*
X628923Y2202123D1*
X627055Y2211112D1*
X626428Y2220272D1*
X627054Y2229433D1*
X628922Y2238422D1*
X631996Y2247074D1*
X636220Y2255226D1*
X641515Y2262727D1*
X647782Y2269438D1*
X654904Y2275233D1*
X662748Y2280003D1*
X671170Y2283662D1*
X680011Y2286139D1*
X689107Y2287390D1*
X698288D1*
X707385Y2286140D1*
X716226Y2283663D1*
X724647Y2280006D1*
X732492Y2275235D1*
X739615Y2269441D1*
X745882Y2262731D1*
X751177Y2255230D1*
X755402Y2247078D1*
X758477Y2238427D1*
X760345Y2229437D1*
X760972Y2220275D1*
X760346Y2211117D1*
X635615Y3009397D2*
X760972D1*
Y2874853D1*
X626428D1*
Y3009397D1*
X635615D1*
X760346Y2736117D2*
X758478Y2727127D1*
X755404Y2718476D1*
X751180Y2710323D1*
X745885Y2702822D1*
X739618Y2696112D1*
X732496Y2690317D1*
X724652Y2685546D1*
X716230Y2681888D1*
X707389Y2679410D1*
X698293Y2678160D1*
X689112D1*
X680015Y2679409D1*
X671174Y2681886D1*
X662753Y2685544D1*
X654908Y2690314D1*
X647785Y2696108D1*
X641518Y2702818D1*
X636223Y2710319D1*
X631998Y2718471D1*
X628923Y2727123D1*
X627055Y2736112D1*
X626428Y2745272D1*
X627054Y2754433D1*
X628922Y2763422D1*
X631996Y2772074D1*
X636220Y2780226D1*
X641515Y2787727D1*
X647782Y2794438D1*
X654904Y2800233D1*
X662748Y2805003D1*
X671170Y2808662D1*
X680011Y2811139D1*
X689107Y2812390D1*
X698288D1*
X707385Y2811140D1*
X716226Y2808663D1*
X724647Y2805006D1*
X732492Y2800235D1*
X739615Y2794441D1*
X745882Y2787731D1*
X751177Y2780230D1*
X755402Y2772078D1*
X758477Y2763427D1*
X760345Y2754437D1*
X760972Y2745275D1*
X760346Y2736117D1*
X635615Y3534397D2*
X760972D1*
Y3399853D1*
X626428D1*
Y3534397D1*
X635615D1*
X760346Y3261117D2*
X758478Y3252127D1*
X755404Y3243476D1*
X751180Y3235323D1*
X745885Y3227822D1*
X739618Y3221112D1*
X732496Y3215317D1*
X724652Y3210546D1*
X716230Y3206888D1*
X707389Y3204410D1*
X698293Y3203160D1*
X689112D1*
X680015Y3204409D1*
X671174Y3206886D1*
X662753Y3210544D1*
X654908Y3215314D1*
X647785Y3221108D1*
X641518Y3227818D1*
X636223Y3235319D1*
X631998Y3243471D1*
X628923Y3252123D1*
X627055Y3261112D1*
X626428Y3270272D1*
X627054Y3279433D1*
X628922Y3288422D1*
X631996Y3297074D1*
X636220Y3305226D1*
X641515Y3312727D1*
X647782Y3319438D1*
X654904Y3325233D1*
X662748Y3330003D1*
X671170Y3333662D1*
X680011Y3336139D1*
X689107Y3337390D1*
X698288D1*
X707385Y3336140D1*
X716226Y3333663D1*
X724647Y3330006D1*
X732492Y3325235D1*
X739615Y3319441D1*
X745882Y3312731D1*
X751177Y3305230D1*
X755402Y3297078D1*
X758477Y3288427D1*
X760345Y3279437D1*
X760972Y3270275D1*
X760346Y3261117D1*
X2031248Y910737D2*
X2032859Y903377D1*
X2076864Y947378D1*
Y956350D1*
X2031316Y910802D1*
X1941240Y1352479D2*
X1941660Y1352710D1*
X1950333Y1355957D1*
X1959381Y1357937D1*
X1968617Y1358610D1*
X1977856Y1357961D1*
X1986908Y1356004D1*
X1995613Y1352765D1*
X1995620Y1437461D1*
Y1659629D1*
X1987067Y1656443D1*
X1978019Y1654463D1*
X1968783Y1653790D1*
X1959544Y1654439D1*
X1950492Y1656396D1*
X1941811Y1659622D1*
X1941247Y1659929D1*
X1941244Y1352523D1*
X2010021Y1043648D2*
X2011144Y1042810D1*
X2017701Y1036269D1*
X2023261Y1028862D1*
X2027710Y1020740D1*
X2030957Y1012067D1*
X2032858Y1003382D1*
X2036243Y1006757D1*
X2036242Y1011016D1*
X2033654Y1013780D1*
X2028324Y1021394D1*
X2024636Y1029925D1*
X2022741Y1039023D1*
X2022716Y1048317D1*
X2024562Y1057426D1*
X2028204Y1065977D1*
X2033493Y1073619D1*
X2036242Y1076247D1*
Y1115727D1*
X2031310Y1110796D1*
X2032937Y1103019D1*
X2033610Y1093700D1*
X2032961Y1084544D1*
X2031004Y1075492D1*
X2027778Y1066811D1*
X2023350Y1058677D1*
X2017810Y1051256D1*
X2011269Y1044699D1*
X2010018Y1043759D1*
X2036235Y1841443D2*
X2031118Y1836333D1*
X2030957Y1837067D1*
X2027710Y1845740D1*
X2023261Y1853862D1*
X2017701Y1861269D1*
X2011144Y1867810D1*
X2010018Y1868759D1*
X2011269Y1869699D1*
X2017810Y1876256D1*
X2023350Y1883677D1*
X2027778Y1891811D1*
X2031004Y1900492D1*
X2032961Y1909544D1*
X2033610Y1918783D1*
X2032937Y1928019D1*
X2030957Y1937067D1*
X2027710Y1945740D1*
X2023261Y1953862D1*
X2017701Y1961269D1*
X2011144Y1967810D1*
X2010021Y1968648D1*
X2010018Y1968759D1*
X2011269Y1969699D1*
X2017810Y1976256D1*
X2023350Y1983677D1*
X2027778Y1991811D1*
X2031004Y2000492D1*
X2032852Y2009040D1*
X2186204Y1855682D1*
X2191005Y1850883D1*
X2058950D1*
X2049890Y1849565D1*
X2041561Y1845743D1*
X2036235Y1841443D1*
X2201858Y1984019D2*
Y1951191D1*
X2199109Y1948564D1*
X2193820Y1940921D1*
X2193183Y1939732D1*
X2031254Y2101650D1*
X2032961Y2109544D1*
X2033610Y2118783D1*
X2032937Y2128019D1*
X2030957Y2137067D1*
X2027710Y2145740D1*
X2023261Y2153862D1*
X2017701Y2161269D1*
X2011144Y2167810D1*
X2010018Y2168759D1*
X2011269Y2169699D1*
X2017810Y2176256D1*
X2023350Y2183677D1*
X2027778Y2191811D1*
X2031004Y2200492D1*
X2032961Y2209544D1*
X2033610Y2218783D1*
X2032937Y2228019D1*
X2030957Y2237067D1*
X2027710Y2245740D1*
X2023261Y2253862D1*
X2017701Y2261269D1*
X2011144Y2267810D1*
X2010018Y2268759D1*
X2011269Y2269699D1*
X2017810Y2276256D1*
X2023350Y2283677D1*
X2027778Y2291811D1*
X2031004Y2300492D1*
X2032961Y2309544D1*
X2033610Y2318783D1*
X2032937Y2328019D1*
X2030957Y2337067D1*
X2027710Y2345740D1*
X2023261Y2353862D1*
X2017701Y2361269D1*
X2011144Y2367810D1*
X2003723Y2373350D1*
X1995589Y2377778D1*
X1986908Y2381004D1*
X1977856Y2382961D1*
X1968617Y2383610D1*
X1959381Y2382937D1*
X1950333Y2380957D1*
X1941660Y2377710D1*
X1933538Y2373261D1*
X1926131Y2367701D1*
X1919590Y2361144D1*
X1914050Y2353723D1*
X1909622Y2345589D1*
X1906396Y2336908D1*
X1904439Y2327856D1*
X1903790Y2318617D1*
X1904463Y2309381D1*
X1906443Y2300333D1*
X1909690Y2291660D1*
X1914139Y2283538D1*
X1919699Y2276131D1*
X1926256Y2269590D1*
X1927379Y2268752D1*
X1927382Y2268641D1*
X1926131Y2267701D1*
X1919590Y2261144D1*
X1914050Y2253723D1*
X1909622Y2245589D1*
X1906396Y2236908D1*
X1904439Y2227856D1*
X1903790Y2218617D1*
X1904463Y2209381D1*
X1906443Y2200333D1*
X1909690Y2191660D1*
X1914139Y2183538D1*
X1919699Y2176131D1*
X1926256Y2169590D1*
X1927379Y2168752D1*
X1927382Y2168641D1*
X1926131Y2167701D1*
X1919590Y2161144D1*
X1914050Y2153723D1*
X1909622Y2145589D1*
X1906396Y2136908D1*
X1904439Y2127856D1*
X1903790Y2118617D1*
X1904463Y2109381D1*
X1906443Y2100333D1*
X1909690Y2091660D1*
X1914139Y2083538D1*
X1919699Y2076131D1*
X1926256Y2069590D1*
X1927382Y2068641D1*
X1926131Y2067701D1*
X1919590Y2061144D1*
X1914050Y2053723D1*
X1909622Y2045589D1*
X1906396Y2036908D1*
X1904439Y2027856D1*
X1903790Y2018617D1*
X1904463Y2009381D1*
X1906151Y2001668D1*
X1886263Y1981777D1*
X1884999Y1980425D1*
X1885001Y2614487D1*
X1951650Y2681146D1*
X1959544Y2679439D1*
X1968783Y2678790D1*
X1978019Y2679463D1*
X1987067Y2681443D1*
X1995740Y2684690D1*
X2003862Y2689139D1*
X2011269Y2694699D1*
X2017810Y2701256D1*
X2023350Y2708677D1*
X2027778Y2716811D1*
X2031004Y2725492D1*
X2032961Y2734544D1*
X2033610Y2743783D1*
X2032937Y2753019D1*
X2030957Y2762067D1*
X2027710Y2770740D1*
X2023261Y2778862D1*
X2017701Y2786269D1*
X2011144Y2792810D1*
X2010021Y2793648D1*
X2010018Y2793759D1*
X2011269Y2794699D1*
X2017810Y2801256D1*
X2023350Y2808677D1*
X2027778Y2816811D1*
X2031004Y2825492D1*
X2032961Y2834544D1*
X2033610Y2843783D1*
X2032937Y2853019D1*
X2030957Y2862067D1*
X2027710Y2870740D1*
X2023261Y2878862D1*
X2017701Y2886269D1*
X2011144Y2892810D1*
X2010018Y2893759D1*
X2011269Y2894699D1*
X2017810Y2901256D1*
X2023350Y2908677D1*
X2027778Y2916811D1*
X2031004Y2925492D1*
X2032961Y2934544D1*
X2033610Y2943783D1*
X2032937Y2953019D1*
X2030957Y2962067D1*
X2027710Y2970740D1*
X2023261Y2978862D1*
X2017701Y2986269D1*
X2011144Y2992810D1*
X2010021Y2993648D1*
X2010018Y2993759D1*
X2011269Y2994699D1*
X2017810Y3001256D1*
X2023350Y3008677D1*
X2027778Y3016811D1*
X2031004Y3025492D1*
X2032961Y3034544D1*
X2033610Y3043783D1*
X2032937Y3053019D1*
X2030957Y3062067D1*
X2027710Y3070740D1*
X2023261Y3078862D1*
X2017701Y3086269D1*
X2011144Y3092810D1*
X2010018Y3093759D1*
X2011269Y3094699D1*
X2017810Y3101256D1*
X2023350Y3108677D1*
X2027778Y3116811D1*
X2031004Y3125492D1*
X2032961Y3134544D1*
X2033610Y3143783D1*
X2032937Y3153019D1*
X2030957Y3162067D1*
X2027710Y3170740D1*
X2023261Y3178862D1*
X2017701Y3186269D1*
X2011144Y3192810D1*
X2010018Y3193759D1*
X2011269Y3194699D1*
X2017810Y3201256D1*
X2023350Y3208677D1*
X2027778Y3216811D1*
X2031004Y3225492D1*
X2032961Y3234544D1*
X2033610Y3243783D1*
X2032937Y3253019D1*
X2030957Y3262067D1*
X2027710Y3270740D1*
X2023261Y3278862D1*
X2017701Y3286269D1*
X2011144Y3292810D1*
X2010018Y3293759D1*
X2011269Y3294699D1*
X2017810Y3301256D1*
X2023350Y3308677D1*
X2024894Y3311513D1*
X2311645Y3311517D1*
X2573813Y3311516D1*
X2583083Y3302246D1*
X2583092Y2468218D1*
X2575547Y2469926D1*
X2566290Y2470325D1*
X2557111Y2469065D1*
X2548304Y2466186D1*
X2540153Y2461781D1*
X2532919Y2455992D1*
X2526835Y2449003D1*
X2522097Y2441041D1*
X2518857Y2432361D1*
X2518597Y2431392D1*
X2517054Y2436945D1*
X2513019Y2445286D1*
X2507560Y2452772D1*
X2500851Y2459163D1*
X2493110Y2464254D1*
X2484583Y2467880D1*
X2481380Y2468799D1*
X2484757Y2469576D1*
X2493271Y2473233D1*
X2500994Y2478351D1*
X2507680Y2484766D1*
X2513113Y2492271D1*
X2517118Y2500626D1*
X2519567Y2509562D1*
X2520381Y2518791D1*
X2519534Y2528018D1*
X2517054Y2536945D1*
X2513019Y2545286D1*
X2507560Y2552772D1*
X2500851Y2559163D1*
X2493110Y2564254D1*
X2484583Y2567880D1*
X2481380Y2568799D1*
X2484757Y2569576D1*
X2493271Y2573233D1*
X2500994Y2578351D1*
X2507680Y2584766D1*
X2513113Y2592271D1*
X2517118Y2600626D1*
X2519567Y2609562D1*
X2520381Y2618791D1*
X2519534Y2628018D1*
X2517054Y2636945D1*
X2513019Y2645286D1*
X2507560Y2652772D1*
X2500851Y2659163D1*
X2493110Y2664254D1*
X2484583Y2667880D1*
X2481380Y2668799D1*
X2484757Y2669576D1*
X2493271Y2673233D1*
X2500994Y2678351D1*
X2507680Y2684766D1*
X2513113Y2692271D1*
X2517118Y2700626D1*
X2519567Y2709562D1*
X2520381Y2718791D1*
X2519534Y2728018D1*
X2517054Y2736945D1*
X2513019Y2745286D1*
X2507560Y2752772D1*
X2500851Y2759163D1*
X2493110Y2764254D1*
X2484583Y2767880D1*
X2481380Y2768799D1*
X2484757Y2769576D1*
X2493271Y2773233D1*
X2500994Y2778351D1*
X2507680Y2784766D1*
X2513113Y2792271D1*
X2517118Y2800626D1*
X2519567Y2809562D1*
X2520381Y2818791D1*
X2519534Y2828018D1*
X2517054Y2836945D1*
X2513019Y2845286D1*
X2507560Y2852772D1*
X2500851Y2859163D1*
X2493110Y2864254D1*
X2484583Y2867880D1*
X2481380Y2868799D1*
X2484757Y2869576D1*
X2493271Y2873233D1*
X2500994Y2878351D1*
X2507680Y2884766D1*
X2513113Y2892271D1*
X2517118Y2900626D1*
X2519567Y2909562D1*
X2520381Y2918791D1*
X2519534Y2928018D1*
X2517054Y2936945D1*
X2513019Y2945286D1*
X2507560Y2952772D1*
X2500851Y2959163D1*
X2493110Y2964254D1*
X2484583Y2967880D1*
X2475547Y2969926D1*
X2466290Y2970325D1*
X2457111Y2969065D1*
X2448304Y2966186D1*
X2440153Y2961781D1*
X2432919Y2955992D1*
X2426835Y2949003D1*
X2422097Y2941041D1*
X2418857Y2932361D1*
X2417219Y2923242D1*
X2417235Y2913976D1*
X2418905Y2904863D1*
X2422176Y2896194D1*
X2426943Y2888249D1*
X2433051Y2881282D1*
X2440305Y2875518D1*
X2448472Y2871142D1*
X2455851Y2868759D1*
X2455829Y2868646D1*
X2448304Y2866186D1*
X2440153Y2861781D1*
X2432919Y2855992D1*
X2426835Y2849003D1*
X2422097Y2841041D1*
X2418857Y2832361D1*
X2417219Y2823242D1*
X2417235Y2813976D1*
X2418905Y2804863D1*
X2422176Y2796194D1*
X2426943Y2788249D1*
X2433051Y2781282D1*
X2440305Y2775518D1*
X2448472Y2771142D1*
X2455851Y2768759D1*
X2455829Y2768646D1*
X2448304Y2766186D1*
X2440153Y2761781D1*
X2432919Y2755992D1*
X2426835Y2749003D1*
X2422097Y2741041D1*
X2418857Y2732361D1*
X2417219Y2723242D1*
X2417235Y2713976D1*
X2418905Y2704863D1*
X2422176Y2696194D1*
X2426943Y2688249D1*
X2433051Y2681282D1*
X2440305Y2675518D1*
X2448472Y2671142D1*
X2455851Y2668759D1*
X2455829Y2668646D1*
X2448304Y2666186D1*
X2440153Y2661781D1*
X2432919Y2655992D1*
X2426835Y2649003D1*
X2422097Y2641041D1*
X2418857Y2632361D1*
X2417219Y2623242D1*
X2417235Y2613976D1*
X2418905Y2604863D1*
X2422176Y2596194D1*
X2426943Y2588249D1*
X2433051Y2581282D1*
X2440305Y2575518D1*
X2448472Y2571142D1*
X2455851Y2568759D1*
X2455829Y2568646D1*
X2448304Y2566186D1*
X2440153Y2561781D1*
X2432919Y2555992D1*
X2426835Y2549003D1*
X2422097Y2541041D1*
X2418857Y2532361D1*
X2417219Y2523242D1*
X2417235Y2513976D1*
X2418905Y2504863D1*
X2422176Y2496194D1*
X2426943Y2488249D1*
X2433051Y2481282D1*
X2440305Y2475518D1*
X2448472Y2471142D1*
X2455851Y2468759D1*
X2455829Y2468646D1*
X2448304Y2466186D1*
X2440153Y2461781D1*
X2432919Y2455992D1*
X2426835Y2449003D1*
X2422097Y2441041D1*
X2418857Y2432361D1*
X2417219Y2423242D1*
X2417235Y2413976D1*
X2418905Y2404863D1*
X2422176Y2396194D1*
X2426943Y2388249D1*
X2433051Y2381282D1*
X2440305Y2375518D1*
X2448472Y2371142D1*
X2455851Y2368759D1*
X2455829Y2368646D1*
X2448304Y2366186D1*
X2440153Y2361781D1*
X2432919Y2355992D1*
X2426835Y2349003D1*
X2422097Y2341041D1*
X2418857Y2332361D1*
X2417219Y2323242D1*
X2417235Y2313976D1*
X2418905Y2304863D1*
X2422176Y2296194D1*
X2426943Y2288249D1*
X2433051Y2281282D1*
X2440305Y2275518D1*
X2448472Y2271142D1*
X2455851Y2268759D1*
X2455829Y2268646D1*
X2448304Y2266186D1*
X2440153Y2261781D1*
X2432919Y2255992D1*
X2426835Y2249003D1*
X2422097Y2241041D1*
X2418857Y2232361D1*
X2417219Y2223242D1*
X2417235Y2213976D1*
X2417426Y2212935D1*
X2211284Y2006798D1*
X2207705Y2002540D1*
X2203562Y1994376D1*
X2201886Y1985367D1*
X2201858Y1984019D1*
X1115403Y3959571D2*
X1112831Y3950897D1*
X1108664Y3942867D1*
X1103053Y3935770D1*
X1096201Y3929864D1*
X1088354Y3925361D1*
X1079797Y3922425D1*
X1070839Y3921161D1*
X1061803Y3921616D1*
X1053017Y3923772D1*
X1044798Y3927552D1*
X1037442Y3932819D1*
X1031217Y3939383D1*
X1026346Y3947006D1*
X1023005Y3955414D1*
X1021317Y3964302D1*
X1021341Y3973349D1*
X1023076Y3982227D1*
X1026461Y3990617D1*
X1031372Y3998215D1*
X1037632Y4004746D1*
X1045016Y4009974D1*
X1053255Y4013711D1*
X1062052Y4015820D1*
X1071090Y4016227D1*
X1080041Y4014916D1*
X1088583Y4011934D1*
X1096405Y4007390D1*
X1103227Y4001448D1*
X1108801Y3994321D1*
X1112925Y3986269D1*
X1115451Y3977582D1*
X1116287Y3968700D1*
X1115403Y3959571D1*
X2334040Y4035972D2*
X2459397D1*
Y3901428D1*
X2324853D1*
Y4035972D1*
X2334040D1*
X2261920Y3959542D2*
X2260053Y3950553D1*
X2256978Y3941901D1*
X2252754Y3933749D1*
X2247460Y3926247D1*
X2241193Y3919537D1*
X2234071Y3913742D1*
X2226226Y3908971D1*
X2217805Y3905313D1*
X2208964Y3902836D1*
X2199868Y3901585D1*
X2190686D1*
X2181590Y3902835D1*
X2172749Y3905312D1*
X2164327Y3908969D1*
X2156482Y3913739D1*
X2149360Y3919534D1*
X2143093Y3926244D1*
X2137798Y3933745D1*
X2133573Y3941897D1*
X2130498Y3950548D1*
X2128630Y3959537D1*
X2128003Y3968698D1*
X2128629Y3977858D1*
X2130497Y3986847D1*
X2133571Y3995499D1*
X2137795Y4003651D1*
X2143090Y4011153D1*
X2149356Y4017863D1*
X2156478Y4023658D1*
X2164323Y4028429D1*
X2172745Y4032087D1*
X2181586Y4034564D1*
X2190682Y4035815D1*
X2199863D1*
X2208959Y4034565D1*
X2217801Y4032088D1*
X2226222Y4028431D1*
X2234067Y4023661D1*
X2241190Y4017866D1*
X2247457Y4011156D1*
X2252752Y4003655D1*
X2256976Y3995503D1*
X2260051Y3986852D1*
X2261920Y3977863D1*
X2262547Y3968700D1*
X2261920Y3959542D1*
X2538016Y1860264D2*
X2510126Y1888145D1*
X2513113Y1892271D1*
X2517118Y1900626D1*
X2519567Y1909562D1*
X2520381Y1918791D1*
X2519534Y1928018D1*
X2517054Y1936945D1*
X2513019Y1945286D1*
X2507560Y1952772D1*
X2500851Y1959163D1*
X2493110Y1964254D1*
X2484583Y1967880D1*
X2475547Y1969926D1*
X2466290Y1970325D1*
X2457111Y1969065D1*
X2448304Y1966186D1*
X2440153Y1961781D1*
X2432919Y1955992D1*
X2426835Y1949003D1*
X2422097Y1941041D1*
X2418857Y1932361D1*
X2417219Y1923242D1*
X2417235Y1913976D1*
X2418905Y1904863D1*
X2421573Y1897794D1*
X2304120Y1897799D1*
X2274683Y1897805D1*
X2276301Y1900738D1*
X2279059Y1909613D1*
X2279974Y1918862D1*
X2279009Y1928105D1*
X2276203Y1936966D1*
X2271671Y1945080D1*
X2266225Y1951504D1*
X2266222Y1970707D1*
X2417221Y2121712D1*
X2417235Y2113976D1*
X2418905Y2104863D1*
X2422176Y2096194D1*
X2426943Y2088249D1*
X2433051Y2081282D1*
X2440305Y2075518D1*
X2448472Y2071142D1*
X2457289Y2068294D1*
X2466473Y2067067D1*
X2475728Y2067499D1*
X2484757Y2069576D1*
X2493271Y2073233D1*
X2500994Y2078351D1*
X2507680Y2084766D1*
X2513113Y2092271D1*
X2517118Y2100626D1*
X2519567Y2109562D1*
X2520381Y2118791D1*
X2519534Y2128018D1*
X2517054Y2136945D1*
X2513019Y2145286D1*
X2507560Y2152772D1*
X2500851Y2159163D1*
X2493110Y2164254D1*
X2484583Y2167880D1*
X2481380Y2168799D1*
X2484757Y2169576D1*
X2493271Y2173233D1*
X2500994Y2178351D1*
X2507680Y2184766D1*
X2513113Y2192271D1*
X2517118Y2200626D1*
X2519567Y2209562D1*
X2520381Y2218791D1*
X2519534Y2228018D1*
X2517054Y2236945D1*
X2513019Y2245286D1*
X2507560Y2252772D1*
X2500851Y2259163D1*
X2493110Y2264254D1*
X2484583Y2267880D1*
X2481380Y2268799D1*
X2484757Y2269576D1*
X2493271Y2273233D1*
X2500994Y2278351D1*
X2507680Y2284766D1*
X2513113Y2292271D1*
X2517118Y2300626D1*
X2519567Y2309562D1*
X2520381Y2318791D1*
X2519534Y2328018D1*
X2517054Y2336945D1*
X2513019Y2345286D1*
X2507560Y2352772D1*
X2500851Y2359163D1*
X2493110Y2364254D1*
X2484583Y2367880D1*
X2481380Y2368799D1*
X2484757Y2369576D1*
X2493271Y2373233D1*
X2500994Y2378351D1*
X2507680Y2384766D1*
X2513113Y2392271D1*
X2517118Y2400626D1*
X2518737Y2405779D1*
X2518905Y2404863D1*
X2522176Y2396194D1*
X2526943Y2388249D1*
X2533051Y2381282D1*
X2540305Y2375518D1*
X2548472Y2371142D1*
X2557289Y2368294D1*
X2566473Y2367067D1*
X2575728Y2367499D1*
X2583083Y2369060D1*
Y1307108D1*
X2573820Y1297837D1*
X2515784Y1297844D1*
X2517118Y1300626D1*
X2519567Y1309562D1*
X2520381Y1318791D1*
X2519534Y1328018D1*
X2517054Y1336945D1*
X2513019Y1345286D1*
X2512715Y1345703D1*
X2538071Y1371054D1*
X2543545Y1378393D1*
X2546732Y1386984D1*
X2547457Y1393789D1*
Y1837550D1*
X2546139Y1846610D1*
X2542317Y1854938D1*
X2538016Y1860264D1*
X2455851Y1768759D2*
X2448472Y1771142D1*
X2440305Y1775518D1*
X2433051Y1781282D1*
X2428464Y1786514D1*
X2072343Y1786517D1*
X2059988Y1774167D1*
X2059987Y1663914D1*
X2065976Y1664624D1*
X2075259Y1664179D1*
X2084263Y1661873D1*
X2092618Y1657803D1*
X2099983Y1652134D1*
X2106055Y1645098D1*
X2110588Y1636984D1*
X2113394Y1628124D1*
X2114359Y1618756D1*
X2113444Y1609631D1*
X2110685Y1600756D1*
X2106197Y1592618D1*
X2100604Y1586067D1*
X2100609Y1334182D1*
Y1196127D1*
X2417354Y1512868D1*
X2417235Y1513976D1*
X2417219Y1523242D1*
X2418857Y1532361D1*
X2422097Y1541041D1*
X2426835Y1549003D1*
X2432919Y1555992D1*
X2440153Y1561781D1*
X2448304Y1566186D1*
X2455829Y1568646D1*
X2448472Y1571142D1*
X2440305Y1575518D1*
X2433051Y1581282D1*
X2426943Y1588249D1*
X2422176Y1596194D1*
X2418905Y1604863D1*
X2417235Y1613976D1*
X2417219Y1623242D1*
X2418857Y1632361D1*
X2422097Y1641041D1*
X2426835Y1649003D1*
X2432919Y1655992D1*
X2440153Y1661781D1*
X2448304Y1666186D1*
X2455829Y1668646D1*
X2448472Y1671142D1*
X2440305Y1675518D1*
X2433051Y1681282D1*
X2426943Y1688249D1*
X2422176Y1696194D1*
X2418905Y1704863D1*
X2417235Y1713976D1*
X2417219Y1723242D1*
X2418857Y1732361D1*
X2422097Y1741041D1*
X2426835Y1749003D1*
X2432919Y1755992D1*
X2440153Y1761781D1*
X2448304Y1766186D1*
X2455829Y1768646D1*
X2426864Y1288380D2*
X2422176Y1296194D1*
X2418905Y1304863D1*
X2417235Y1313976D1*
X2417219Y1323242D1*
X2418857Y1332361D1*
X2419271Y1333471D1*
X2406734Y1333464D1*
X2397465Y1324194D1*
Y1258908D1*
X2405803Y1267319D1*
X2426853Y1288369D1*
X2421547Y997862D2*
X2418905Y1004863D1*
X2417235Y1013976D1*
X2417219Y1023242D1*
X2417435Y1024444D1*
X2398767Y1043121D1*
X2397465Y1043702D1*
Y1007127D1*
X2406735Y997857D1*
X2421413Y997856D1*
X2619567Y709562D2*
X2617118Y700626D1*
X2613113Y692271D1*
X2607680Y684766D1*
X2600994Y678351D1*
X2593271Y673233D1*
X2584757Y669576D1*
X2575728Y667499D1*
X2566473Y667067D1*
X2557289Y668294D1*
X2548472Y671142D1*
X2540305Y675518D1*
X2533051Y681282D1*
X2526943Y688249D1*
X2522176Y696194D1*
X2518905Y704863D1*
X2517235Y713976D1*
X2517219Y723242D1*
X2518857Y732361D1*
X2522097Y741041D1*
X2526835Y749003D1*
X2532919Y755992D1*
X2540153Y761781D1*
X2548304Y766186D1*
X2557111Y769065D1*
X2566290Y770325D1*
X2575547Y769926D1*
X2584583Y767880D1*
X2593110Y764254D1*
X2600851Y759163D1*
X2607560Y752772D1*
X2613019Y745286D1*
X2617054Y736945D1*
X2619534Y728018D1*
X2620381Y718700D1*
X2619567Y709562D1*
X2998488Y859564D2*
X2996056Y850807D1*
X2992098Y842624D1*
X2986744Y835280D1*
X2980164Y829010D1*
X2972570Y824016D1*
X2964206Y820458D1*
X2955342Y818450D1*
X2946262Y818058D1*
X2937257Y819293D1*
X2928618Y822116D1*
X2920621Y826437D1*
X2913525Y832115D1*
X2907556Y838970D1*
X2902908Y846780D1*
X2899729Y855295D1*
X2898121Y864240D1*
X2898136Y873329D1*
X2899774Y882269D1*
X2902982Y890773D1*
X2907657Y898568D1*
X2913648Y905402D1*
X2920764Y911057D1*
X2928774Y915351D1*
X2937423Y918145D1*
X2939222Y918518D1*
X2940267Y918696D1*
X2938804Y918963D1*
X2937008Y919351D1*
X2935228Y919804D1*
X2933465Y920322D1*
X2931722Y920902D1*
X2930001Y921546D1*
X2921881Y925629D1*
X2914620Y931096D1*
X2908452Y937771D1*
X2903575Y945441D1*
X2900145Y953858D1*
X2898274Y962752D1*
X2898021Y971837D1*
X2899395Y980822D1*
X2902350Y989417D1*
X2906793Y997346D1*
X2912580Y1004354D1*
X2919526Y1010217D1*
X2927406Y1014745D1*
X2935969Y1017793D1*
X2937756Y1018219D1*
X2939557Y1018580D1*
X2940267Y1018696D1*
X2938804Y1018963D1*
X2937008Y1019351D1*
X2935228Y1019804D1*
X2933465Y1020322D1*
X2931722Y1020902D1*
X2930001Y1021546D1*
X2921881Y1025629D1*
X2914620Y1031096D1*
X2908452Y1037771D1*
X2903575Y1045441D1*
X2900145Y1053858D1*
X2898274Y1062752D1*
X2898021Y1071837D1*
X2899395Y1080822D1*
X2902350Y1089417D1*
X2906793Y1097346D1*
X2912580Y1104354D1*
X2919526Y1110217D1*
X2927406Y1114745D1*
X2935969Y1117793D1*
X2937756Y1118219D1*
X2939557Y1118580D1*
X2940267Y1118696D1*
X2938804Y1118963D1*
X2937008Y1119351D1*
X2935228Y1119804D1*
X2933465Y1120322D1*
X2931722Y1120902D1*
X2930001Y1121546D1*
X2921881Y1125629D1*
X2914620Y1131096D1*
X2908452Y1137771D1*
X2903575Y1145441D1*
X2900145Y1153858D1*
X2898274Y1162752D1*
X2898021Y1171837D1*
X2899395Y1180822D1*
X2902350Y1189417D1*
X2906793Y1197346D1*
X2912580Y1204354D1*
X2919526Y1210217D1*
X2927406Y1214745D1*
X2935969Y1217793D1*
X2937756Y1218219D1*
X2939557Y1218580D1*
X2940267Y1218696D1*
X2938804Y1218963D1*
X2937008Y1219351D1*
X2935228Y1219804D1*
X2933465Y1220322D1*
X2931722Y1220902D1*
X2930001Y1221546D1*
X2921881Y1225629D1*
X2914620Y1231096D1*
X2908452Y1237771D1*
X2903575Y1245441D1*
X2900145Y1253858D1*
X2898274Y1262752D1*
X2898021Y1271837D1*
X2899395Y1280822D1*
X2902350Y1289417D1*
X2906793Y1297346D1*
X2912580Y1304354D1*
X2919526Y1310217D1*
X2927406Y1314745D1*
X2935969Y1317793D1*
X2944938Y1319263D1*
X2954026Y1319108D1*
X2962940Y1317333D1*
X2971393Y1313995D1*
X2979115Y1309201D1*
X2985857Y1303105D1*
X2991402Y1295904D1*
X2995572Y1287828D1*
X2998232Y1279137D1*
X2999299Y1270111D1*
X2999318Y1268700D1*
X2998488Y1259564D1*
X2996056Y1250807D1*
X2992098Y1242624D1*
X2986744Y1235280D1*
X2980164Y1229010D1*
X2972570Y1224016D1*
X2964206Y1220458D1*
X2962448Y1219925D1*
X2960672Y1219456D1*
X2958880Y1219052D1*
X2956994Y1218701D1*
X2959630Y1218187D1*
X2961416Y1217756D1*
X2963185Y1217260D1*
X2964935Y1216701D1*
X2966663Y1216078D1*
X2968368Y1215393D1*
X2976388Y1211117D1*
X2983516Y1205478D1*
X2989522Y1198656D1*
X2994213Y1190871D1*
X2997439Y1182374D1*
X2999097Y1173438D1*
X2999318Y1168700D1*
X2998488Y1159564D1*
X2996056Y1150807D1*
X2992098Y1142624D1*
X2986744Y1135280D1*
X2980164Y1129010D1*
X2972570Y1124016D1*
X2964206Y1120458D1*
X2962448Y1119925D1*
X2960672Y1119456D1*
X2958880Y1119052D1*
X2956994Y1118701D1*
X2959630Y1118187D1*
X2961416Y1117756D1*
X2963185Y1117260D1*
X2964935Y1116701D1*
X2966663Y1116078D1*
X2968368Y1115393D1*
X2976388Y1111117D1*
X2983516Y1105478D1*
X2989522Y1098656D1*
X2994213Y1090871D1*
X2997439Y1082374D1*
X2999097Y1073438D1*
X2999318Y1068700D1*
X2998488Y1059564D1*
X2996056Y1050807D1*
X2992098Y1042624D1*
X2986744Y1035280D1*
X2980164Y1029010D1*
X2972570Y1024016D1*
X2964206Y1020458D1*
X2962448Y1019925D1*
X2960672Y1019456D1*
X2958880Y1019052D1*
X2956994Y1018701D1*
X2959630Y1018187D1*
X2961416Y1017756D1*
X2963185Y1017260D1*
X2964935Y1016701D1*
X2966663Y1016078D1*
X2968368Y1015393D1*
X2976388Y1011117D1*
X2983516Y1005478D1*
X2989522Y998656D1*
X2994213Y990871D1*
X2997439Y982374D1*
X2999097Y973438D1*
X2999318Y968700D1*
X2998488Y959564D1*
X2996056Y950807D1*
X2992098Y942624D1*
X2986744Y935280D1*
X2980164Y929010D1*
X2972570Y924016D1*
X2964206Y920458D1*
X2962448Y919925D1*
X2960672Y919456D1*
X2958880Y919052D1*
X2956994Y918701D1*
X2959297Y918260D1*
X2961085Y917841D1*
X2962858Y917357D1*
X2964611Y916809D1*
X2966344Y916198D1*
X2968053Y915525D1*
X2976102Y911303D1*
X2983267Y905711D1*
X2989319Y898930D1*
X2994063Y891178D1*
X2997346Y882702D1*
X2999064Y873777D1*
X2999318Y868700D1*
X2998488Y859564D1*
X851504Y670964D2*
X823287Y699180D1*
X817800Y706509D1*
X814598Y715095D1*
X813860Y721964D1*
X813863Y1201449D1*
X715462Y1299853D1*
X626428D1*
Y1434397D1*
X760972D1*
Y1345359D1*
X868786Y1237554D1*
X873093Y1232220D1*
X876909Y1223898D1*
X878227Y1214781D1*
Y735276D1*
X887615Y725881D1*
X1312506Y725887D1*
X1314050Y728723D1*
X1319590Y736144D1*
X1326131Y742701D1*
X1327382Y743641D1*
X1326256Y744590D1*
X1319699Y751131D1*
X1314139Y758538D1*
X1309690Y766660D1*
X1306443Y775333D1*
X1304463Y784381D1*
X1303790Y793617D1*
X1304439Y802856D1*
X1306396Y811908D1*
X1309622Y820589D1*
X1314050Y828723D1*
X1319590Y836144D1*
X1326131Y842701D1*
X1327382Y843641D1*
X1326256Y844590D1*
X1319699Y851131D1*
X1314139Y858538D1*
X1309690Y866660D1*
X1306443Y875333D1*
X1304463Y884381D1*
X1303790Y893617D1*
X1304439Y902856D1*
X1306396Y911908D1*
X1309622Y920589D1*
X1314050Y928723D1*
X1319590Y936144D1*
X1326131Y942701D1*
X1327382Y943641D1*
X1327379Y943752D1*
X1326256Y944590D1*
X1319699Y951131D1*
X1314139Y958538D1*
X1309690Y966660D1*
X1306443Y975333D1*
X1304463Y984381D1*
X1303790Y993617D1*
X1304439Y1002856D1*
X1306396Y1011908D1*
X1309622Y1020589D1*
X1314050Y1028723D1*
X1319590Y1036144D1*
X1326131Y1042701D1*
X1333538Y1048261D1*
X1341660Y1052710D1*
X1350333Y1055957D1*
X1359381Y1057937D1*
X1368617Y1058610D1*
X1377856Y1057961D1*
X1386908Y1056004D1*
X1395589Y1052778D1*
X1403723Y1048350D1*
X1411144Y1042810D1*
X1417701Y1036269D1*
X1423261Y1028862D1*
X1427710Y1020740D1*
X1430957Y1012067D1*
X1432937Y1003019D1*
X1433610Y993700D1*
X1432961Y984544D1*
X1431004Y975492D1*
X1427778Y966811D1*
X1423350Y958677D1*
X1417810Y951256D1*
X1411269Y944699D1*
X1410018Y943759D1*
X1411144Y942810D1*
X1417701Y936269D1*
X1423261Y928862D1*
X1427710Y920740D1*
X1430957Y912067D1*
X1432937Y903019D1*
X1433610Y893700D1*
X1432961Y884544D1*
X1431004Y875492D1*
X1427778Y866811D1*
X1423350Y858677D1*
X1417810Y851256D1*
X1411269Y844699D1*
X1410018Y843759D1*
X1411144Y842810D1*
X1417701Y836269D1*
X1423261Y828862D1*
X1427710Y820740D1*
X1430957Y812067D1*
X1432937Y803019D1*
X1433610Y793700D1*
X1432961Y784544D1*
X1431004Y775492D1*
X1427778Y766811D1*
X1423350Y758677D1*
X1417810Y751256D1*
X1411269Y744699D1*
X1410018Y743759D1*
X1411144Y742810D1*
X1417701Y736269D1*
X1423261Y728862D1*
X1427710Y720740D1*
X1430957Y712067D1*
X1432937Y703019D1*
X1433610Y693700D1*
X1432961Y684544D1*
X1431004Y675492D1*
X1427778Y666811D1*
X1423350Y658677D1*
X1417810Y651256D1*
X1411269Y644699D1*
X1403862Y639139D1*
X1395740Y634690D1*
X1387067Y631443D1*
X1378019Y629463D1*
X1368783Y628790D1*
X1359544Y629439D1*
X1350492Y631396D1*
X1341811Y634622D1*
X1333677Y639050D1*
X1326256Y644590D1*
X1319699Y651131D1*
X1314139Y658538D1*
X1312510Y661512D1*
X874281Y661517D1*
X865219Y662819D1*
X856884Y666626D1*
X851504Y670964D1*
X2609894Y1242892D2*
X2638065Y1271061D1*
X2643539Y1278399D1*
X2646726Y1286991D1*
X2647450Y1293798D1*
X2647443Y2371693D1*
X2648472Y2371142D1*
X2657289Y2368294D1*
X2666473Y2367067D1*
X2675728Y2367499D1*
X2684757Y2369576D1*
X2693271Y2373233D1*
X2700994Y2378351D1*
X2707680Y2384766D1*
X2713113Y2392271D1*
X2717118Y2400626D1*
X2719567Y2409562D1*
X2720381Y2418791D1*
X2719534Y2428018D1*
X2717054Y2436945D1*
X2713019Y2445286D1*
X2707560Y2452772D1*
X2700851Y2459163D1*
X2693110Y2464254D1*
X2684583Y2467880D1*
X2675547Y2469926D1*
X2666290Y2470325D1*
X2657111Y2469065D1*
X2648304Y2466186D1*
X2647452Y2465726D1*
X2647450Y3315634D1*
X2646132Y3324694D1*
X2642310Y3333023D1*
X2638010Y3338348D1*
X2609860Y3366498D1*
X2602522Y3371972D1*
X2593930Y3375159D1*
X2587123Y3375883D1*
X2024890Y3375888D1*
X2023261Y3378862D1*
X2017701Y3386269D1*
X2011144Y3392810D1*
X2003723Y3398350D1*
X1995589Y3402778D1*
X1986908Y3406004D1*
X1977856Y3407961D1*
X1968617Y3408610D1*
X1959381Y3407937D1*
X1950333Y3405957D1*
X1941660Y3402710D1*
X1933538Y3398261D1*
X1926131Y3392701D1*
X1919590Y3386144D1*
X1914050Y3378723D1*
X1909622Y3370589D1*
X1906396Y3361908D1*
X1904439Y3352856D1*
X1903790Y3343617D1*
X1904463Y3334381D1*
X1906443Y3325333D1*
X1909690Y3316660D1*
X1914139Y3308538D1*
X1919699Y3301131D1*
X1926256Y3294590D1*
X1927382Y3293641D1*
X1926131Y3292701D1*
X1919590Y3286144D1*
X1914050Y3278723D1*
X1909622Y3270589D1*
X1906396Y3261908D1*
X1904439Y3252856D1*
X1903790Y3243617D1*
X1904463Y3234381D1*
X1906443Y3225333D1*
X1909690Y3216660D1*
X1914139Y3208538D1*
X1919699Y3201131D1*
X1926256Y3194590D1*
X1927382Y3193641D1*
X1926131Y3192701D1*
X1919590Y3186144D1*
X1914050Y3178723D1*
X1909622Y3170589D1*
X1906396Y3161908D1*
X1904439Y3152856D1*
X1903790Y3143617D1*
X1904463Y3134381D1*
X1906443Y3125333D1*
X1909690Y3116660D1*
X1914139Y3108538D1*
X1919699Y3101131D1*
X1926256Y3094590D1*
X1927382Y3093641D1*
X1926131Y3092701D1*
X1919590Y3086144D1*
X1914050Y3078723D1*
X1909622Y3070589D1*
X1906396Y3061908D1*
X1904439Y3052856D1*
X1903790Y3043617D1*
X1904463Y3034381D1*
X1906443Y3025333D1*
X1909690Y3016660D1*
X1914139Y3008538D1*
X1919699Y3001131D1*
X1926256Y2994590D1*
X1927382Y2993641D1*
X1926131Y2992701D1*
X1919590Y2986144D1*
X1914050Y2978723D1*
X1909622Y2970589D1*
X1906396Y2961908D1*
X1904439Y2952856D1*
X1903790Y2943617D1*
X1904463Y2934381D1*
X1906443Y2925333D1*
X1909690Y2916660D1*
X1914139Y2908538D1*
X1919699Y2901131D1*
X1926256Y2894590D1*
X1927382Y2893641D1*
X1926131Y2892701D1*
X1919590Y2886144D1*
X1914050Y2878723D1*
X1909622Y2870589D1*
X1906396Y2861908D1*
X1904439Y2852856D1*
X1903790Y2843617D1*
X1904463Y2834381D1*
X1906443Y2825333D1*
X1909690Y2816660D1*
X1914139Y2808538D1*
X1919699Y2801131D1*
X1926256Y2794590D1*
X1927382Y2793641D1*
X1926131Y2792701D1*
X1919590Y2786144D1*
X1914050Y2778723D1*
X1909622Y2770589D1*
X1906396Y2761908D1*
X1904439Y2752856D1*
X1903790Y2743617D1*
X1904463Y2734381D1*
X1906151Y2726668D1*
X1830018Y2650532D1*
X1824544Y2643194D1*
X1821357Y2634602D1*
X1820632Y2627792D1*
Y534393D1*
X1821950Y525334D1*
X1825772Y517005D1*
X1830073Y511679D1*
X1858222Y483530D1*
X1865561Y478056D1*
X1874152Y474869D1*
X1880960Y474144D1*
X2221598D1*
X2230658Y475462D1*
X2238987Y479284D1*
X2244312Y483584D1*
X2272462Y511734D1*
X2277936Y519072D1*
X2281123Y527664D1*
X2281848Y534476D1*
X2281843Y620504D1*
X2287435Y627055D1*
X2291924Y635193D1*
X2294682Y644068D1*
X2295598Y653317D1*
X2294633Y662561D1*
X2291826Y671421D1*
X2287294Y679535D1*
X2281221Y686571D1*
X2273857Y692240D1*
X2265502Y696310D1*
X2256498Y698616D1*
X2247215Y699061D1*
X2238032Y697629D1*
X2229325Y694378D1*
X2221451Y689441D1*
X2214732Y683019D1*
X2209443Y675377D1*
X2205801Y666826D1*
X2203955Y657717D1*
X2203980Y648424D1*
X2205875Y639325D1*
X2209563Y630794D1*
X2214893Y623180D1*
X2217485Y620730D1*
X2217481Y547781D1*
X2208204Y538511D1*
X1894269D1*
X1884999Y547785D1*
Y1031970D1*
X1886319Y1030567D1*
X1906146Y1010750D1*
X1904439Y1002856D1*
X1903790Y993617D1*
X1904463Y984381D1*
X1906443Y975333D1*
X1909690Y966660D1*
X1914139Y958538D1*
X1919699Y951131D1*
X1926256Y944590D1*
X1927382Y943641D1*
X1926131Y942701D1*
X1919590Y936144D1*
X1914050Y928723D1*
X1909622Y920589D1*
X1906396Y911908D1*
X1904439Y902856D1*
X1903790Y893617D1*
X1904463Y884381D1*
X1906443Y875333D1*
X1909690Y866660D1*
X1914139Y858538D1*
X1919699Y851131D1*
X1926256Y844590D1*
X1927382Y843641D1*
X1926131Y842701D1*
X1919590Y836144D1*
X1914050Y828723D1*
X1909622Y820589D1*
X1906396Y811908D1*
X1904439Y802856D1*
X1903790Y793617D1*
X1904463Y784381D1*
X1906443Y775333D1*
X1909690Y766660D1*
X1914139Y758538D1*
X1919699Y751131D1*
X1926256Y744590D1*
X1927382Y743641D1*
X1926131Y742701D1*
X1919590Y736144D1*
X1914050Y728723D1*
X1909622Y720589D1*
X1906396Y711908D1*
X1904439Y702856D1*
X1903790Y693617D1*
X1904463Y684381D1*
X1906443Y675333D1*
X1909690Y666660D1*
X1914139Y658538D1*
X1919699Y651131D1*
X1926256Y644590D1*
X1933677Y639050D1*
X1941811Y634622D1*
X1950492Y631396D1*
X1959544Y629439D1*
X1968783Y628790D1*
X1978019Y629463D1*
X1987067Y631443D1*
X1995740Y634690D1*
X2003862Y639139D1*
X2006937Y641447D1*
X2007111Y641381D1*
X2007117Y639048D1*
X2009013Y629950D1*
X2012701Y621419D1*
X2018031Y613805D1*
X2024784Y607420D1*
X2032685Y602525D1*
X2041409Y599320D1*
X2050599Y597938D1*
X2059880Y598433D1*
X2068871Y600787D1*
X2077204Y604903D1*
X2084538Y610611D1*
X2090573Y617679D1*
X2095062Y625818D1*
X2097820Y634693D1*
X2098736Y643818D1*
X2098733Y644235D1*
X2241012Y786517D1*
X2428464Y786514D1*
X2433051Y781282D1*
X2440305Y775518D1*
X2448472Y771142D1*
X2457289Y768294D1*
X2466473Y767067D1*
X2475728Y767499D1*
X2484757Y769576D1*
X2493271Y773233D1*
X2500994Y778351D1*
X2507680Y784766D1*
X2513113Y792271D1*
X2517118Y800626D1*
X2519567Y809562D1*
X2520381Y818791D1*
X2519534Y828018D1*
X2517054Y836945D1*
X2513019Y845286D1*
X2507560Y852772D1*
X2500851Y859163D1*
X2493110Y864254D1*
X2484583Y867880D1*
X2481380Y868799D1*
X2484757Y869576D1*
X2493271Y873233D1*
X2500994Y878351D1*
X2507680Y884766D1*
X2513113Y892271D1*
X2517118Y900626D1*
X2519567Y909562D1*
X2520381Y918791D1*
X2519534Y928018D1*
X2517054Y936945D1*
X2513019Y945286D1*
X2512704Y945717D1*
X2538010Y971018D1*
X2542354Y976405D1*
X2546155Y984734D1*
X2547457Y993796D1*
X2547451Y1083104D1*
X2551553Y1081515D1*
X2560570Y1079829D1*
X2569744D1*
X2578762Y1081515D1*
X2587316Y1084829D1*
X2595116Y1089659D1*
X2601895Y1095839D1*
X2604659Y1099148D1*
X2607159Y1095838D1*
X2613939Y1089658D1*
X2621738Y1084829D1*
X2630293Y1081515D1*
X2639310Y1079829D1*
X2648484D1*
X2657502Y1081515D1*
X2666056Y1084829D1*
X2673856Y1089659D1*
X2680635Y1095839D1*
X2683399Y1099148D1*
X2685899Y1095838D1*
X2692679Y1089658D1*
X2700479Y1084829D1*
X2709033Y1081515D1*
X2718051Y1079829D1*
X2727224D1*
X2736242Y1081515D1*
X2744796Y1084829D1*
X2752596Y1089659D1*
X2759376Y1095839D1*
X2764904Y1103160D1*
X2768993Y1111372D1*
X2771504Y1120196D1*
X2772350Y1129330D1*
X2771503Y1138465D1*
X2768993Y1147289D1*
X2764903Y1155501D1*
X2759375Y1162822D1*
X2752960Y1168731D1*
X2759376Y1174579D1*
X2764904Y1181900D1*
X2768993Y1190112D1*
X2771504Y1198936D1*
X2772350Y1208071D1*
X2771503Y1217205D1*
X2768993Y1226029D1*
X2764903Y1234241D1*
X2759375Y1241562D1*
X2752595Y1247742D1*
X2744795Y1252571D1*
X2736241Y1255885D1*
X2727223Y1257571D1*
X2718050D1*
X2709032Y1255885D1*
X2700478Y1252571D1*
X2692678Y1247741D1*
X2685898Y1241561D1*
X2680370Y1234240D1*
X2676281Y1226028D1*
X2673770Y1217204D1*
X2672924Y1208070D1*
X2673771Y1198935D1*
X2676281Y1190111D1*
X2680371Y1181899D1*
X2685899Y1174578D1*
X2692314Y1168669D1*
X2685898Y1162821D1*
X2683134Y1159512D1*
X2680635Y1162822D1*
X2673855Y1169002D1*
X2666055Y1173831D1*
X2657501Y1177145D1*
X2648483Y1178831D1*
X2639309D1*
X2630292Y1177145D1*
X2621737Y1173831D1*
X2613938Y1169001D1*
X2607158Y1162821D1*
X2604394Y1159512D1*
X2601895Y1162822D1*
X2595480Y1168731D1*
X2601895Y1174579D1*
X2607424Y1181900D1*
X2611513Y1190112D1*
X2614023Y1198936D1*
X2614870Y1208071D1*
X2614023Y1217205D1*
X2611512Y1226029D1*
X2607423Y1234241D1*
X2604276Y1238409D1*
X2609894Y1242892D1*
X2837990Y624046D2*
X2809888Y595943D1*
X2802559Y590456D1*
X2793973Y587254D1*
X2787105Y586517D1*
X2508948Y586518D1*
X2507680Y584766D1*
X2500994Y578351D1*
X2493271Y573233D1*
X2484757Y569576D1*
X2475728Y567499D1*
X2466473Y567067D1*
X2457289Y568294D1*
X2448472Y571142D1*
X2440305Y575518D1*
X2433051Y581282D1*
X2426943Y588249D1*
X2422176Y596194D1*
X2418905Y604863D1*
X2417235Y613976D1*
X2417219Y623242D1*
X2418857Y632361D1*
X2422097Y641041D1*
X2426835Y649003D1*
X2432919Y655992D1*
X2440153Y661781D1*
X2448304Y666186D1*
X2457111Y669065D1*
X2466290Y670325D1*
X2475547Y669926D1*
X2484583Y667880D1*
X2493110Y664254D1*
X2500851Y659163D1*
X2507560Y652772D1*
X2508940Y650879D1*
X2773796Y650883D1*
X2783070Y660154D1*
Y3091808D1*
X2783796Y3098624D1*
X2786982Y3107207D1*
X2792497Y3114586D1*
X2901428Y3223513D1*
Y3312547D1*
X3035972D1*
Y3178003D1*
X2946934D1*
X2847442Y3078502D1*
X2847437Y2465797D1*
X2848304Y2466186D1*
X2857111Y2469065D1*
X2866290Y2470325D1*
X2875547Y2469926D1*
X2884583Y2467880D1*
X2893110Y2464254D1*
X2900851Y2459163D1*
X2907560Y2452772D1*
X2913019Y2445286D1*
X2917054Y2436945D1*
X2918597Y2431392D1*
X2918857Y2432361D1*
X2922097Y2441041D1*
X2926835Y2449003D1*
X2932919Y2455992D1*
X2940153Y2461781D1*
X2948304Y2466186D1*
X2957111Y2469065D1*
X2966290Y2470325D1*
X2975547Y2469926D1*
X2984583Y2467880D1*
X2993110Y2464254D1*
X3000851Y2459163D1*
X3007560Y2452772D1*
X3013019Y2445286D1*
X3017054Y2436945D1*
X3018597Y2431392D1*
X3018857Y2432361D1*
X3022097Y2441041D1*
X3026835Y2449003D1*
X3032919Y2455992D1*
X3040153Y2461781D1*
X3048304Y2466186D1*
X3055829Y2468646D1*
X3048472Y2471142D1*
X3040305Y2475518D1*
X3033051Y2481282D1*
X3026943Y2488249D1*
X3022176Y2496194D1*
X3018905Y2504863D1*
X3017235Y2513976D1*
X3017219Y2523242D1*
X3018857Y2532361D1*
X3022097Y2541041D1*
X3026835Y2549003D1*
X3032919Y2555992D1*
X3040153Y2561781D1*
X3048304Y2566186D1*
X3055829Y2568646D1*
X3048472Y2571142D1*
X3040305Y2575518D1*
X3033051Y2581282D1*
X3026943Y2588249D1*
X3022176Y2596194D1*
X3018905Y2604863D1*
X3017235Y2613976D1*
X3017219Y2623242D1*
X3018857Y2632361D1*
X3022097Y2641041D1*
X3026835Y2649003D1*
X3032919Y2655992D1*
X3040153Y2661781D1*
X3048304Y2666186D1*
X3055829Y2668646D1*
X3048472Y2671142D1*
X3040305Y2675518D1*
X3033051Y2681282D1*
X3026943Y2688249D1*
X3022176Y2696194D1*
X3018905Y2704863D1*
X3017235Y2713976D1*
X3017219Y2723242D1*
X3018857Y2732361D1*
X3022097Y2741041D1*
X3026835Y2749003D1*
X3032919Y2755992D1*
X3040153Y2761781D1*
X3048304Y2766186D1*
X3055829Y2768646D1*
X3048472Y2771142D1*
X3040305Y2775518D1*
X3033051Y2781282D1*
X3026943Y2788249D1*
X3022176Y2796194D1*
X3018905Y2804863D1*
X3017235Y2813976D1*
X3017219Y2823242D1*
X3018857Y2832361D1*
X3022097Y2841041D1*
X3026835Y2849003D1*
X3032919Y2855992D1*
X3040153Y2861781D1*
X3048304Y2866186D1*
X3055829Y2868646D1*
X3048472Y2871142D1*
X3040305Y2875518D1*
X3033051Y2881282D1*
X3026943Y2888249D1*
X3022176Y2896194D1*
X3018905Y2904863D1*
X3017235Y2913976D1*
X3017219Y2923242D1*
X3018857Y2932361D1*
X3022097Y2941041D1*
X3026835Y2949003D1*
X3032919Y2955992D1*
X3040153Y2961781D1*
X3048304Y2966186D1*
X3057111Y2969065D1*
X3066290Y2970325D1*
X3075547Y2969926D1*
X3084583Y2967880D1*
X3093110Y2964254D1*
X3100851Y2959163D1*
X3107560Y2952772D1*
X3113019Y2945286D1*
X3117054Y2936945D1*
X3119534Y2928018D1*
X3120381Y2918700D1*
X3119567Y2909562D1*
X3117118Y2900626D1*
X3113113Y2892271D1*
X3107680Y2884766D1*
X3100994Y2878351D1*
X3093271Y2873233D1*
X3084757Y2869576D1*
X3081380Y2868799D1*
X3084583Y2867880D1*
X3093110Y2864254D1*
X3100851Y2859163D1*
X3107560Y2852772D1*
X3113019Y2845286D1*
X3117054Y2836945D1*
X3119534Y2828018D1*
X3120381Y2818700D1*
X3119567Y2809562D1*
X3117118Y2800626D1*
X3113113Y2792271D1*
X3107680Y2784766D1*
X3100994Y2778351D1*
X3093271Y2773233D1*
X3084757Y2769576D1*
X3081380Y2768799D1*
X3084583Y2767880D1*
X3093110Y2764254D1*
X3100851Y2759163D1*
X3107560Y2752772D1*
X3113019Y2745286D1*
X3117054Y2736945D1*
X3119534Y2728018D1*
X3120381Y2718700D1*
X3119567Y2709562D1*
X3117118Y2700626D1*
X3113113Y2692271D1*
X3107680Y2684766D1*
X3100994Y2678351D1*
X3093271Y2673233D1*
X3084757Y2669576D1*
X3081380Y2668799D1*
X3084583Y2667880D1*
X3093110Y2664254D1*
X3100851Y2659163D1*
X3107560Y2652772D1*
X3113019Y2645286D1*
X3117054Y2636945D1*
X3119534Y2628018D1*
X3120381Y2618700D1*
X3119567Y2609562D1*
X3117118Y2600626D1*
X3113113Y2592271D1*
X3107680Y2584766D1*
X3100994Y2578351D1*
X3093271Y2573233D1*
X3084757Y2569576D1*
X3081380Y2568799D1*
X3084583Y2567880D1*
X3093110Y2564254D1*
X3100851Y2559163D1*
X3107560Y2552772D1*
X3113019Y2545286D1*
X3117054Y2536945D1*
X3119534Y2528018D1*
X3120381Y2518700D1*
X3119567Y2509562D1*
X3117118Y2500626D1*
X3113113Y2492271D1*
X3107680Y2484766D1*
X3100994Y2478351D1*
X3093271Y2473233D1*
X3084757Y2469576D1*
X3081380Y2468799D1*
X3084583Y2467880D1*
X3093110Y2464254D1*
X3100851Y2459163D1*
X3107560Y2452772D1*
X3113019Y2445286D1*
X3117054Y2436945D1*
X3119534Y2428018D1*
X3120381Y2418700D1*
X3119567Y2409562D1*
X3117118Y2400626D1*
X3113113Y2392271D1*
X3107680Y2384766D1*
X3100994Y2378351D1*
X3093271Y2373233D1*
X3084757Y2369576D1*
X3081380Y2368799D1*
X3084583Y2367880D1*
X3093110Y2364254D1*
X3100851Y2359163D1*
X3107560Y2352772D1*
X3113019Y2345286D1*
X3117054Y2336945D1*
X3119534Y2328018D1*
X3120381Y2318700D1*
X3119567Y2309562D1*
X3117118Y2300626D1*
X3113113Y2292271D1*
X3107680Y2284766D1*
X3100994Y2278351D1*
X3093271Y2273233D1*
X3084757Y2269576D1*
X3081380Y2268799D1*
X3084583Y2267880D1*
X3093110Y2264254D1*
X3100851Y2259163D1*
X3107560Y2252772D1*
X3113019Y2245286D1*
X3117054Y2236945D1*
X3119534Y2228018D1*
X3120381Y2218700D1*
X3119567Y2209562D1*
X3117118Y2200626D1*
X3113113Y2192271D1*
X3107680Y2184766D1*
X3100994Y2178351D1*
X3093271Y2173233D1*
X3084757Y2169576D1*
X3081380Y2168799D1*
X3084583Y2167880D1*
X3093110Y2164254D1*
X3100851Y2159163D1*
X3107560Y2152772D1*
X3113019Y2145286D1*
X3117054Y2136945D1*
X3119534Y2128018D1*
X3120381Y2118700D1*
X3119567Y2109562D1*
X3117118Y2100626D1*
X3113113Y2092271D1*
X3107680Y2084766D1*
X3100994Y2078351D1*
X3093271Y2073233D1*
X3084757Y2069576D1*
X3081380Y2068799D1*
X3084583Y2067880D1*
X3093110Y2064254D1*
X3100851Y2059163D1*
X3107560Y2052772D1*
X3113019Y2045286D1*
X3117054Y2036945D1*
X3119534Y2028018D1*
X3120381Y2018700D1*
X3119567Y2009562D1*
X3117118Y2000626D1*
X3113113Y1992271D1*
X3107680Y1984766D1*
X3100994Y1978351D1*
X3093271Y1973233D1*
X3084757Y1969576D1*
X3081380Y1968799D1*
X3084583Y1967880D1*
X3093110Y1964254D1*
X3100851Y1959163D1*
X3107560Y1952772D1*
X3113019Y1945286D1*
X3117054Y1936945D1*
X3119534Y1928018D1*
X3120381Y1918700D1*
X3119567Y1909562D1*
X3117118Y1900626D1*
X3113113Y1892271D1*
X3107680Y1884766D1*
X3100994Y1878351D1*
X3093271Y1873233D1*
X3084757Y1869576D1*
X3081380Y1868799D1*
X3084583Y1867880D1*
X3093110Y1864254D1*
X3100851Y1859163D1*
X3107560Y1852772D1*
X3113019Y1845286D1*
X3117054Y1836945D1*
X3119534Y1828018D1*
X3120381Y1818700D1*
X3119567Y1809562D1*
X3117118Y1800626D1*
X3113113Y1792271D1*
X3107680Y1784766D1*
X3100994Y1778351D1*
X3093271Y1773233D1*
X3084757Y1769576D1*
X3081380Y1768799D1*
X3084583Y1767880D1*
X3093110Y1764254D1*
X3100851Y1759163D1*
X3107560Y1752772D1*
X3113019Y1745286D1*
X3117054Y1736945D1*
X3119534Y1728018D1*
X3120381Y1718700D1*
X3119567Y1709562D1*
X3117118Y1700626D1*
X3113113Y1692271D1*
X3107680Y1684766D1*
X3100994Y1678351D1*
X3093271Y1673233D1*
X3084757Y1669576D1*
X3081380Y1668799D1*
X3084583Y1667880D1*
X3093110Y1664254D1*
X3100851Y1659163D1*
X3107560Y1652772D1*
X3113019Y1645286D1*
X3117054Y1636945D1*
X3119534Y1628018D1*
X3120381Y1618700D1*
X3119567Y1609562D1*
X3117118Y1600626D1*
X3113113Y1592271D1*
X3107680Y1584766D1*
X3100994Y1578351D1*
X3093271Y1573233D1*
X3084757Y1569576D1*
X3081380Y1568799D1*
X3084583Y1567880D1*
X3093110Y1564254D1*
X3100851Y1559163D1*
X3107560Y1552772D1*
X3113019Y1545286D1*
X3117054Y1536945D1*
X3119534Y1528018D1*
X3120381Y1518700D1*
X3119567Y1509562D1*
X3117118Y1500626D1*
X3113113Y1492271D1*
X3107680Y1484766D1*
X3100994Y1478351D1*
X3093271Y1473233D1*
X3084757Y1469576D1*
X3081380Y1468799D1*
X3084583Y1467880D1*
X3093110Y1464254D1*
X3100851Y1459163D1*
X3107560Y1452772D1*
X3113019Y1445286D1*
X3117054Y1436945D1*
X3119534Y1428018D1*
X3120381Y1418700D1*
X3119567Y1409562D1*
X3117118Y1400626D1*
X3113113Y1392271D1*
X3107680Y1384766D1*
X3100994Y1378351D1*
X3093271Y1373233D1*
X3084757Y1369576D1*
X3081380Y1368799D1*
X3084583Y1367880D1*
X3093110Y1364254D1*
X3100851Y1359163D1*
X3107560Y1352772D1*
X3113019Y1345286D1*
X3117054Y1336945D1*
X3119534Y1328018D1*
X3120381Y1318700D1*
X3119567Y1309562D1*
X3117118Y1300626D1*
X3113113Y1292271D1*
X3107680Y1284766D1*
X3100994Y1278351D1*
X3093271Y1273233D1*
X3084757Y1269576D1*
X3081380Y1268799D1*
X3084583Y1267880D1*
X3093110Y1264254D1*
X3100851Y1259163D1*
X3107560Y1252772D1*
X3113019Y1245286D1*
X3117054Y1236945D1*
X3119534Y1228018D1*
X3120381Y1218700D1*
X3119567Y1209562D1*
X3117118Y1200626D1*
X3113113Y1192271D1*
X3107680Y1184766D1*
X3100994Y1178351D1*
X3093271Y1173233D1*
X3084757Y1169576D1*
X3081380Y1168799D1*
X3084583Y1167880D1*
X3093110Y1164254D1*
X3100851Y1159163D1*
X3107560Y1152772D1*
X3113019Y1145286D1*
X3117054Y1136945D1*
X3119534Y1128018D1*
X3120381Y1118700D1*
X3119567Y1109562D1*
X3117118Y1100626D1*
X3113113Y1092271D1*
X3107680Y1084766D1*
X3100994Y1078351D1*
X3093271Y1073233D1*
X3084757Y1069576D1*
X3081380Y1068799D1*
X3084583Y1067880D1*
X3093110Y1064254D1*
X3100851Y1059163D1*
X3107560Y1052772D1*
X3113019Y1045286D1*
X3117054Y1036945D1*
X3119534Y1028018D1*
X3120381Y1018700D1*
X3119567Y1009562D1*
X3117118Y1000626D1*
X3113113Y992271D1*
X3107680Y984766D1*
X3100994Y978351D1*
X3093271Y973233D1*
X3084757Y969576D1*
X3081380Y968799D1*
X3084583Y967880D1*
X3093110Y964254D1*
X3100851Y959163D1*
X3107560Y952772D1*
X3113019Y945286D1*
X3117054Y936945D1*
X3119534Y928018D1*
X3120381Y918700D1*
X3119567Y909562D1*
X3117118Y900626D1*
X3113113Y892271D1*
X3107680Y884766D1*
X3100994Y878351D1*
X3093271Y873233D1*
X3084757Y869576D1*
X3081380Y868799D1*
X3084583Y867880D1*
X3093110Y864254D1*
X3100851Y859163D1*
X3107560Y852772D1*
X3113019Y845286D1*
X3117054Y836945D1*
X3119534Y828018D1*
X3120381Y818700D1*
X3119567Y809562D1*
X3117118Y800626D1*
X3113113Y792271D1*
X3107680Y784766D1*
X3100994Y778351D1*
X3093271Y773233D1*
X3084757Y769576D1*
X3081380Y768799D1*
X3084583Y767880D1*
X3093110Y764254D1*
X3100851Y759163D1*
X3107560Y752772D1*
X3113019Y745286D1*
X3117054Y736945D1*
X3119534Y728018D1*
X3120381Y718700D1*
X3119567Y709562D1*
X3117118Y700626D1*
X3113113Y692271D1*
X3107680Y684766D1*
X3100994Y678351D1*
X3093271Y673233D1*
X3084757Y669576D1*
X3075728Y667499D1*
X3066473Y667067D1*
X3057289Y668294D1*
X3048472Y671142D1*
X3040305Y675518D1*
X3033051Y681282D1*
X3026943Y688249D1*
X3022176Y696194D1*
X3018905Y704863D1*
X3017235Y713976D1*
X3017219Y723242D1*
X3018857Y732361D1*
X3022097Y741041D1*
X3026835Y749003D1*
X3032919Y755992D1*
X3040153Y761781D1*
X3048304Y766186D1*
X3055829Y768646D1*
X3048472Y771142D1*
X3040305Y775518D1*
X3033051Y781282D1*
X3026943Y788249D1*
X3022176Y796194D1*
X3018905Y804863D1*
X3017235Y813976D1*
X3017219Y823242D1*
X3018857Y832361D1*
X3022097Y841041D1*
X3026835Y849003D1*
X3032919Y855992D1*
X3040153Y861781D1*
X3048304Y866186D1*
X3055829Y868646D1*
X3048472Y871142D1*
X3040305Y875518D1*
X3033051Y881282D1*
X3026943Y888249D1*
X3022176Y896194D1*
X3018905Y904863D1*
X3017235Y913976D1*
X3017219Y923242D1*
X3018857Y932361D1*
X3022097Y941041D1*
X3026835Y949003D1*
X3032919Y955992D1*
X3040153Y961781D1*
X3048304Y966186D1*
X3055829Y968646D1*
X3048472Y971142D1*
X3040305Y975518D1*
X3033051Y981282D1*
X3026943Y988249D1*
X3022176Y996194D1*
X3018905Y1004863D1*
X3017235Y1013976D1*
X3017219Y1023242D1*
X3018857Y1032361D1*
X3022097Y1041041D1*
X3026835Y1049003D1*
X3032919Y1055992D1*
X3040153Y1061781D1*
X3048304Y1066186D1*
X3055829Y1068646D1*
X3048472Y1071142D1*
X3040305Y1075518D1*
X3033051Y1081282D1*
X3026943Y1088249D1*
X3022176Y1096194D1*
X3018905Y1104863D1*
X3017235Y1113976D1*
X3017219Y1123242D1*
X3018857Y1132361D1*
X3022097Y1141041D1*
X3026835Y1149003D1*
X3032919Y1155992D1*
X3040153Y1161781D1*
X3048304Y1166186D1*
X3055829Y1168646D1*
X3048472Y1171142D1*
X3040305Y1175518D1*
X3033051Y1181282D1*
X3026943Y1188249D1*
X3022176Y1196194D1*
X3018905Y1204863D1*
X3017235Y1213976D1*
X3017219Y1223242D1*
X3018857Y1232361D1*
X3022097Y1241041D1*
X3026835Y1249003D1*
X3032919Y1255992D1*
X3040153Y1261781D1*
X3048304Y1266186D1*
X3055829Y1268646D1*
X3048472Y1271142D1*
X3040305Y1275518D1*
X3033051Y1281282D1*
X3026943Y1288249D1*
X3022176Y1296194D1*
X3018905Y1304863D1*
X3017235Y1313976D1*
X3017219Y1323242D1*
X3018857Y1332361D1*
X3022097Y1341041D1*
X3026835Y1349003D1*
X3032919Y1355992D1*
X3040153Y1361781D1*
X3048304Y1366186D1*
X3055829Y1368646D1*
X3048472Y1371142D1*
X3040305Y1375518D1*
X3033051Y1381282D1*
X3026943Y1388249D1*
X3022176Y1396194D1*
X3018905Y1404863D1*
X3017235Y1413976D1*
X3017219Y1423242D1*
X3018857Y1432361D1*
X3022097Y1441041D1*
X3026835Y1449003D1*
X3032919Y1455992D1*
X3040153Y1461781D1*
X3048304Y1466186D1*
X3055829Y1468646D1*
X3048472Y1471142D1*
X3040305Y1475518D1*
X3033051Y1481282D1*
X3026943Y1488249D1*
X3022176Y1496194D1*
X3018905Y1504863D1*
X3017235Y1513976D1*
X3017219Y1523242D1*
X3018857Y1532361D1*
X3022097Y1541041D1*
X3026835Y1549003D1*
X3032919Y1555992D1*
X3040153Y1561781D1*
X3048304Y1566186D1*
X3055829Y1568646D1*
X3048472Y1571142D1*
X3040305Y1575518D1*
X3033051Y1581282D1*
X3026943Y1588249D1*
X3022176Y1596194D1*
X3018905Y1604863D1*
X3017235Y1613976D1*
X3017219Y1623242D1*
X3018857Y1632361D1*
X3022097Y1641041D1*
X3026835Y1649003D1*
X3032919Y1655992D1*
X3040153Y1661781D1*
X3048304Y1666186D1*
X3055829Y1668646D1*
X3048472Y1671142D1*
X3040305Y1675518D1*
X3033051Y1681282D1*
X3026943Y1688249D1*
X3022176Y1696194D1*
X3018905Y1704863D1*
X3017235Y1713976D1*
X3017219Y1723242D1*
X3018857Y1732361D1*
X3022097Y1741041D1*
X3026835Y1749003D1*
X3032919Y1755992D1*
X3040153Y1761781D1*
X3048304Y1766186D1*
X3055829Y1768646D1*
X3048472Y1771142D1*
X3040305Y1775518D1*
X3033051Y1781282D1*
X3026943Y1788249D1*
X3022176Y1796194D1*
X3018905Y1804863D1*
X3017235Y1813976D1*
X3017219Y1823242D1*
X3018857Y1832361D1*
X3022097Y1841041D1*
X3026835Y1849003D1*
X3032919Y1855992D1*
X3040153Y1861781D1*
X3048304Y1866186D1*
X3055829Y1868646D1*
X3048472Y1871142D1*
X3040305Y1875518D1*
X3033051Y1881282D1*
X3026943Y1888249D1*
X3022176Y1896194D1*
X3018905Y1904863D1*
X3017235Y1913976D1*
X3017219Y1923242D1*
X3018857Y1932361D1*
X3022097Y1941041D1*
X3026835Y1949003D1*
X3032919Y1955992D1*
X3040153Y1961781D1*
X3048304Y1966186D1*
X3055829Y1968646D1*
X3048472Y1971142D1*
X3040305Y1975518D1*
X3033051Y1981282D1*
X3026943Y1988249D1*
X3022176Y1996194D1*
X3018905Y2004863D1*
X3017235Y2013976D1*
X3017219Y2023242D1*
X3018857Y2032361D1*
X3022097Y2041041D1*
X3026835Y2049003D1*
X3032919Y2055992D1*
X3040153Y2061781D1*
X3048304Y2066186D1*
X3055829Y2068646D1*
X3048472Y2071142D1*
X3040305Y2075518D1*
X3033051Y2081282D1*
X3026943Y2088249D1*
X3022176Y2096194D1*
X3018905Y2104863D1*
X3017235Y2113976D1*
X3017219Y2123242D1*
X3018857Y2132361D1*
X3022097Y2141041D1*
X3026835Y2149003D1*
X3032919Y2155992D1*
X3040153Y2161781D1*
X3048304Y2166186D1*
X3055829Y2168646D1*
X3048472Y2171142D1*
X3040305Y2175518D1*
X3033051Y2181282D1*
X3026943Y2188249D1*
X3022176Y2196194D1*
X3018905Y2204863D1*
X3017235Y2213976D1*
X3017219Y2223242D1*
X3018857Y2232361D1*
X3022097Y2241041D1*
X3026835Y2249003D1*
X3032919Y2255992D1*
X3040153Y2261781D1*
X3048304Y2266186D1*
X3055829Y2268646D1*
X3048472Y2271142D1*
X3040305Y2275518D1*
X3033051Y2281282D1*
X3026943Y2288249D1*
X3022176Y2296194D1*
X3018905Y2304863D1*
X3017235Y2313976D1*
X3017219Y2323242D1*
X3018857Y2332361D1*
X3022097Y2341041D1*
X3026835Y2349003D1*
X3032919Y2355992D1*
X3040153Y2361781D1*
X3048304Y2366186D1*
X3055829Y2368646D1*
X3048472Y2371142D1*
X3040305Y2375518D1*
X3033051Y2381282D1*
X3026943Y2388249D1*
X3022176Y2396194D1*
X3018905Y2404863D1*
X3018737Y2405779D1*
X3017118Y2400626D1*
X3013113Y2392271D1*
X3007680Y2384766D1*
X3000994Y2378351D1*
X2993271Y2373233D1*
X2984757Y2369576D1*
X2975728Y2367499D1*
X2966473Y2367067D1*
X2957289Y2368294D1*
X2948472Y2371142D1*
X2940305Y2375518D1*
X2933051Y2381282D1*
X2926943Y2388249D1*
X2922176Y2396194D1*
X2918905Y2404863D1*
X2918737Y2405779D1*
X2917118Y2400626D1*
X2913113Y2392271D1*
X2907680Y2384766D1*
X2900994Y2378351D1*
X2893271Y2373233D1*
X2884757Y2369576D1*
X2875728Y2367499D1*
X2866473Y2367067D1*
X2857289Y2368294D1*
X2848472Y2371142D1*
X2847443Y2371693D1*
X2847437Y2154815D1*
Y646823D1*
X2846135Y637761D1*
X2842328Y629426D1*
X2837990Y624046D1*
X1450527Y2282387D2*
X1431254Y2301650D1*
X1432961Y2309544D1*
X1433610Y2318783D1*
X1432937Y2328019D1*
X1431249Y2335732D1*
X1450580Y2355066D1*
X1454920Y2360450D1*
X1458722Y2368778D1*
X1460024Y2377840D1*
Y3284533D1*
X1459286Y3291411D1*
X1456085Y3299988D1*
X1450597Y3307317D1*
X1431254Y3326650D1*
X1432961Y3334544D1*
X1433610Y3343783D1*
X1432937Y3353019D1*
X1430957Y3362067D1*
X1427710Y3370740D1*
X1423261Y3378862D1*
X1417701Y3386269D1*
X1411144Y3392810D1*
X1403723Y3398350D1*
X1400883Y3400065D1*
X1400878Y3933896D1*
X1403053Y3935770D1*
X1408664Y3942867D1*
X1412831Y3950897D1*
X1415403Y3959571D1*
X1416287Y3968700D1*
X1415451Y3977582D1*
X1412925Y3986269D1*
X1408801Y3994321D1*
X1403227Y4001448D1*
X1396405Y4007390D1*
X1388583Y4011934D1*
X1380041Y4014916D1*
X1371090Y4016227D1*
X1362052Y4015820D1*
X1353255Y4013711D1*
X1345016Y4009974D1*
X1337632Y4004746D1*
X1331372Y3998215D1*
X1326461Y3990617D1*
X1323076Y3982227D1*
X1321341Y3973349D1*
X1321317Y3964302D1*
X1323005Y3955414D1*
X1326346Y3947006D1*
X1331217Y3939383D1*
X1336517Y3933650D1*
X1336512Y3399890D1*
X1333538Y3398261D1*
X1326131Y3392701D1*
X1319590Y3386144D1*
X1314050Y3378723D1*
X1309622Y3370589D1*
X1306396Y3361908D1*
X1304439Y3352856D1*
X1303790Y3343617D1*
X1304463Y3334381D1*
X1306443Y3325333D1*
X1309690Y3316660D1*
X1314139Y3308538D1*
X1319699Y3301131D1*
X1326256Y3294590D1*
X1327382Y3293641D1*
X1326131Y3292701D1*
X1319590Y3286144D1*
X1314050Y3278723D1*
X1309622Y3270589D1*
X1306396Y3261908D1*
X1304439Y3252856D1*
X1303790Y3243617D1*
X1304463Y3234381D1*
X1306443Y3225333D1*
X1309690Y3216660D1*
X1314139Y3208538D1*
X1319699Y3201131D1*
X1326256Y3194590D1*
X1333677Y3189050D1*
X1341811Y3184622D1*
X1350492Y3181396D1*
X1359544Y3179439D1*
X1368783Y3178790D1*
X1378019Y3179463D1*
X1387067Y3181443D1*
X1395657Y3184658D1*
X1395661Y3102739D1*
X1386908Y3106004D1*
X1377856Y3107961D1*
X1368617Y3108610D1*
X1359381Y3107937D1*
X1350333Y3105957D1*
X1341660Y3102710D1*
X1333538Y3098261D1*
X1326131Y3092701D1*
X1319590Y3086144D1*
X1314050Y3078723D1*
X1309622Y3070589D1*
X1306396Y3061908D1*
X1304439Y3052856D1*
X1303790Y3043617D1*
X1304463Y3034381D1*
X1306443Y3025333D1*
X1309690Y3016660D1*
X1314139Y3008538D1*
X1319699Y3001131D1*
X1326256Y2994590D1*
X1327382Y2993641D1*
X1326131Y2992701D1*
X1319590Y2986144D1*
X1314050Y2978723D1*
X1309622Y2970589D1*
X1306396Y2961908D1*
X1304439Y2952856D1*
X1303790Y2943617D1*
X1304463Y2934381D1*
X1306443Y2925333D1*
X1309690Y2916660D1*
X1314139Y2908538D1*
X1319699Y2901131D1*
X1326256Y2894590D1*
X1327382Y2893641D1*
X1326131Y2892701D1*
X1319590Y2886144D1*
X1314050Y2878723D1*
X1309622Y2870589D1*
X1306396Y2861908D1*
X1304439Y2852856D1*
X1303790Y2843617D1*
X1304463Y2834381D1*
X1306443Y2825333D1*
X1309690Y2816660D1*
X1314139Y2808538D1*
X1319699Y2801131D1*
X1326256Y2794590D1*
X1327382Y2793641D1*
X1326131Y2792701D1*
X1319590Y2786144D1*
X1314050Y2778723D1*
X1309622Y2770589D1*
X1306396Y2761908D1*
X1304439Y2752856D1*
X1303790Y2743617D1*
X1304463Y2734381D1*
X1306443Y2725333D1*
X1309690Y2716660D1*
X1314139Y2708538D1*
X1319699Y2701131D1*
X1326256Y2694590D1*
X1333677Y2689050D1*
X1341811Y2684622D1*
X1350492Y2681396D1*
X1359544Y2679439D1*
X1368783Y2678790D1*
X1378019Y2679463D1*
X1387067Y2681443D1*
X1395657Y2684648D1*
X1395659Y2391173D1*
X1385750Y2381254D1*
X1377856Y2382961D1*
X1368617Y2383610D1*
X1359381Y2382937D1*
X1350333Y2380957D1*
X1341660Y2377710D1*
X1333538Y2373261D1*
X1326131Y2367701D1*
X1319590Y2361144D1*
X1314050Y2353723D1*
X1309622Y2345589D1*
X1306396Y2336908D1*
X1304439Y2327856D1*
X1303790Y2318617D1*
X1304463Y2309381D1*
X1306443Y2300333D1*
X1309690Y2291660D1*
X1314139Y2283538D1*
X1319699Y2276131D1*
X1326256Y2269590D1*
X1327382Y2268641D1*
X1326131Y2267701D1*
X1319590Y2261144D1*
X1314050Y2253723D1*
X1309622Y2245589D1*
X1306396Y2236908D1*
X1304439Y2227856D1*
X1303790Y2218617D1*
X1304463Y2209381D1*
X1306443Y2200333D1*
X1309690Y2191660D1*
X1314139Y2183538D1*
X1319699Y2176131D1*
X1326256Y2169590D1*
X1333677Y2164050D1*
X1341811Y2159622D1*
X1350492Y2156396D1*
X1359544Y2154439D1*
X1368783Y2153790D1*
X1378019Y2154463D1*
X1387067Y2156443D1*
X1395657Y2159658D1*
X1395661Y2077739D1*
X1386908Y2081004D1*
X1377856Y2082961D1*
X1368617Y2083610D1*
X1359381Y2082937D1*
X1350333Y2080957D1*
X1341660Y2077710D1*
X1333538Y2073261D1*
X1326131Y2067701D1*
X1319590Y2061144D1*
X1314050Y2053723D1*
X1309622Y2045589D1*
X1306396Y2036908D1*
X1304439Y2027856D1*
X1303790Y2018617D1*
X1304463Y2009381D1*
X1306443Y2000333D1*
X1309690Y1991660D1*
X1314139Y1983538D1*
X1319699Y1976131D1*
X1326256Y1969590D1*
X1327379Y1968752D1*
X1327382Y1968641D1*
X1326131Y1967701D1*
X1319590Y1961144D1*
X1314050Y1953723D1*
X1309622Y1945589D1*
X1306396Y1936908D1*
X1304439Y1927856D1*
X1303790Y1918617D1*
X1304463Y1909381D1*
X1306443Y1900333D1*
X1309690Y1891660D1*
X1314139Y1883538D1*
X1319699Y1876131D1*
X1326256Y1869590D1*
X1327379Y1868752D1*
X1327382Y1868641D1*
X1326131Y1867701D1*
X1319590Y1861144D1*
X1314050Y1853723D1*
X1309622Y1845589D1*
X1306396Y1836908D1*
X1304548Y1828360D1*
X1191908Y1941006D1*
X1038974Y2093935D1*
Y2104092D1*
X1037656Y2113152D1*
X1033834Y2121481D1*
X1029534Y2126805D1*
X760972Y2395359D1*
Y2484397D1*
X626428D1*
Y2349853D1*
X715455Y2349856D1*
X974607Y2090709D1*
Y2080627D1*
X975345Y2073758D1*
X978546Y2065181D1*
X984033Y2057852D1*
X1306146Y1735750D1*
X1304439Y1727856D1*
X1303790Y1718617D1*
X1304463Y1709381D1*
X1306443Y1700333D1*
X1309690Y1691660D1*
X1314139Y1683538D1*
X1319699Y1676131D1*
X1326256Y1669590D1*
X1333677Y1664050D1*
X1341811Y1659622D1*
X1350492Y1656396D1*
X1359544Y1654439D1*
X1368783Y1653790D1*
X1378019Y1654463D1*
X1387067Y1656443D1*
X1395657Y1659648D1*
X1395659Y1366173D1*
X1385750Y1356254D1*
X1377856Y1357961D1*
X1368617Y1358610D1*
X1359381Y1357937D1*
X1350333Y1355957D1*
X1341660Y1352710D1*
X1333538Y1348261D1*
X1326131Y1342701D1*
X1319590Y1336144D1*
X1314050Y1328723D1*
X1309622Y1320589D1*
X1306396Y1311908D1*
X1304439Y1302856D1*
X1303790Y1293617D1*
X1304463Y1284381D1*
X1306443Y1275333D1*
X1309690Y1266660D1*
X1314139Y1258538D1*
X1319699Y1251131D1*
X1326256Y1244590D1*
X1327382Y1243641D1*
X1326131Y1242701D1*
X1319590Y1236144D1*
X1314050Y1228723D1*
X1309622Y1220589D1*
X1306396Y1211908D1*
X1304439Y1202856D1*
X1303790Y1193617D1*
X1304463Y1184381D1*
X1306443Y1175333D1*
X1309690Y1166660D1*
X1314139Y1158538D1*
X1319699Y1151131D1*
X1326256Y1144590D1*
X1333677Y1139050D1*
X1341811Y1134622D1*
X1350492Y1131396D1*
X1359544Y1129439D1*
X1368783Y1128790D1*
X1378019Y1129463D1*
X1387067Y1131443D1*
X1395740Y1134690D1*
X1403862Y1139139D1*
X1411269Y1144699D1*
X1417810Y1151256D1*
X1423350Y1158677D1*
X1427778Y1166811D1*
X1431004Y1175492D1*
X1432961Y1184544D1*
X1433610Y1193783D1*
X1432937Y1203019D1*
X1430957Y1212067D1*
X1427710Y1220740D1*
X1423261Y1228862D1*
X1417701Y1236269D1*
X1411144Y1242810D1*
X1410021Y1243648D1*
X1410018Y1243759D1*
X1411269Y1244699D1*
X1417810Y1251256D1*
X1423350Y1258677D1*
X1427778Y1266811D1*
X1431004Y1275492D1*
X1432961Y1284544D1*
X1433610Y1293783D1*
X1432937Y1303019D1*
X1431249Y1310732D1*
X1450580Y1330066D1*
X1454921Y1335450D1*
X1458722Y1343778D1*
X1460024Y1352840D1*
Y2259560D1*
X1459175Y2266901D1*
X1455835Y2275434D1*
X1450527Y2282387D1*
X2376008Y938598D2*
X2384344Y934791D1*
X2393406Y933489D1*
X2419278Y933488D1*
X2418857Y932361D1*
X2417219Y923242D1*
X2417235Y913976D1*
X2418905Y904863D1*
X2422176Y896194D1*
X2426943Y888249D1*
X2433051Y881282D1*
X2440305Y875518D1*
X2448472Y871142D1*
X2455851Y868759D1*
X2455829Y868646D1*
X2448304Y866186D1*
X2440153Y861781D1*
X2432919Y855992D1*
X2428469Y850880D1*
X2227711Y850883D1*
X2220833Y850146D1*
X2212256Y846944D1*
X2204927Y841457D1*
X2053020Y689543D1*
X2049982Y689665D1*
X2040811Y688159D1*
X2033012Y685269D1*
X2033610Y693783D1*
X2032937Y703019D1*
X2030957Y712067D1*
X2027710Y720740D1*
X2023261Y728862D1*
X2017701Y736269D1*
X2011144Y742810D1*
X2010021Y743648D1*
X2010018Y743759D1*
X2011269Y744699D1*
X2017810Y751256D1*
X2023350Y758677D1*
X2027778Y766811D1*
X2031004Y775492D1*
X2032961Y784544D1*
X2033610Y793783D1*
X2032937Y803019D1*
X2031249Y810732D1*
X2131786Y911272D1*
X2136128Y916657D1*
X2139929Y924986D1*
X2141231Y934048D1*
X2141237Y1145722D1*
X2333102Y1337588D1*
X2333098Y1067147D1*
Y993824D1*
X2333836Y986946D1*
X2337037Y978369D1*
X2342524Y971040D1*
X2370628Y942936D1*
X2376008Y938598D1*
X432200Y4230200D2*
Y432200D1*
X3255206D1*
X3255200Y612617D1*
Y4230200D1*
X432194D1*
D15*
X1892125Y3968700D3*
D16*
X1695275D3*
D15*
X2968700Y3795275D3*
D16*
Y3992125D3*
D15*
Y3245275D3*
D16*
Y3442125D3*
D17*
X743700Y3968700D3*
D18*
X643700D3*
D15*
X693700Y842125D3*
D16*
Y645275D3*
D15*
Y1367125D3*
D16*
Y1170275D3*
D15*
Y1892125D3*
D16*
Y1695275D3*
D15*
Y2417125D3*
D16*
Y2220275D3*
D15*
Y2942125D3*
D16*
Y2745275D3*
D15*
Y3467125D3*
D16*
Y3270275D3*
D19*
X1368700Y993700D3*
Y693700D3*
Y893700D3*
Y793700D3*
Y1193700D3*
X1968700Y693700D3*
X1368700Y1093700D3*
X1968700Y893700D3*
Y793700D3*
X1368700Y1293700D3*
X1968700D3*
Y1193700D3*
Y993700D3*
Y1093700D3*
X1368700Y593700D3*
X1968700D3*
X1368700Y2018700D3*
Y1718700D3*
Y1918700D3*
Y1818700D3*
Y2218700D3*
X1968700Y1718700D3*
X1368700Y2118700D3*
X1968700Y1918700D3*
Y1818700D3*
X1368700Y2318700D3*
X1968700D3*
Y2218700D3*
Y2018700D3*
Y2118700D3*
X1368700Y1618700D3*
X1968700D3*
X1368700Y3043700D3*
Y2743700D3*
Y2943700D3*
Y2843700D3*
Y3243700D3*
X1968700Y2743700D3*
X1368700Y3143700D3*
X1968700Y2943700D3*
Y2843700D3*
X1368700Y3343700D3*
X1968700D3*
Y3243700D3*
Y3043700D3*
Y3143700D3*
X1368700Y2643700D3*
X1968700D3*
D21*
X1068700Y3968700D3*
X1368700D3*
D15*
X2392125D3*
D16*
X2195275D3*
D22*
X3068700Y618700D3*
Y718700D3*
Y818700D3*
Y918700D3*
Y1018700D3*
Y1118700D3*
Y1218700D3*
Y1318700D3*
Y1418700D3*
Y1518700D3*
Y1618700D3*
Y1718700D3*
Y1818700D3*
Y1918700D3*
Y2018700D3*
X2468700Y1918700D3*
Y1818700D3*
Y1718700D3*
Y1618700D3*
Y1518700D3*
Y1418700D3*
Y1318700D3*
Y1218700D3*
Y1118700D3*
Y1018700D3*
Y918700D3*
Y618700D3*
X3068700Y2118700D3*
Y2218700D3*
Y2318700D3*
Y2418700D3*
Y2518700D3*
Y2618700D3*
Y2718700D3*
Y2818700D3*
Y2918700D3*
X2468700D3*
Y2818700D3*
Y2718700D3*
Y2618700D3*
Y2518700D3*
Y2418700D3*
Y2318700D3*
Y2218700D3*
Y2118700D3*
X2968700Y2418700D3*
X2568700D3*
Y718700D3*
X2668700Y2418700D3*
D23*
X2565157Y1208070D3*
Y1129330D3*
X2722637Y1208070D3*
X2643897Y1129330D3*
X2722637D3*
D24*
X2948621Y868700D3*
Y968700D3*
Y1068700D3*
Y1168700D3*
D22*
X2868700Y2418700D3*
X2768700D3*
X2468700Y2018700D3*
D23*
X2643897Y1208070D3*
D24*
X2948621Y1268700D3*
D22*
X2468700Y818700D3*
Y718700D3*
M02*
