G04 DipTrace 5.2.0.4*
G04 2 - Bottom.gbr*
%MOIN*%
G04 #@! TF.FileFunction,Copper,L2,Bot*
G04 #@! TF.Part,Single*
G04 #@! TA.AperFunction,Conductor*
%ADD13C,0.0125*%
G04 #@! TA.AperFunction,ComponentPad*
%ADD15R,0.082677X0.082677*%
%ADD16C,0.082677*%
%ADD17C,0.05*%
%ADD18R,0.05X0.05*%
%ADD19C,0.077953*%
%ADD21C,0.043307*%
%ADD22C,0.051496*%
%ADD23C,0.047559*%
%ADD24C,0.049528*%
G04 #@! TA.AperFunction,ViaPad*
%ADD25C,0.04*%
%FSLAX26Y26*%
G04*
G70*
G90*
G75*
G01*
G04 Bottom*
%LPD*%
X1892125Y3968700D2*
D13*
X1954531Y4031106D1*
X2329720D1*
X2392125Y3968700D1*
X2968700Y3442125D2*
Y3706125D1*
X3030865D1*
X3058989Y3734249D1*
Y3901836D1*
X2968700Y3992125D1*
X1068700Y3968700D2*
X993796Y4043604D1*
X818604D1*
X743700Y3968700D1*
X1968700Y1193700D2*
X1880938Y1281462D1*
Y1312525D1*
X2027804Y1459392D1*
Y1637506D1*
X2055927Y1665629D1*
X2415629D1*
X2468700Y1718700D1*
Y1618700D2*
X2068426Y1618756D1*
X1368700Y993700D2*
X845275D1*
X693700Y842125D1*
X1368700Y893700D2*
X1455965Y806435D1*
Y534452D1*
X1427840Y506327D1*
X832648D1*
X693700Y645275D1*
X1368700Y793700D2*
X915375D1*
X902983Y781309D1*
X631018D1*
X602893Y809434D1*
Y1079468D1*
X693700Y1170275D1*
X1968700Y1293700D2*
X2084050D1*
X2209050Y1418700D1*
X2468700D1*
Y1318700D2*
X2143960Y993960D1*
Y868960D1*
X1968700Y693700D1*
Y2218700D2*
X2146545D1*
X2199648Y2165598D1*
X2687137D1*
X2787130Y2065604D1*
X3087112D1*
X3115235Y2093728D1*
Y2137474D1*
X3087112Y2165598D1*
X3049613D1*
X3021491Y2193720D1*
Y2237469D1*
X3049613Y2265591D1*
X3143357D1*
X3171481Y2237468D1*
Y1693752D1*
X3143357Y1665629D1*
X2543397D1*
X2515273Y1637506D1*
Y1165273D1*
X2468700Y1118700D1*
X2249665Y653193D2*
Y699665D1*
X2468700Y918700D1*
X1968700Y2318700D2*
X2221541D1*
X2274650Y2265591D1*
X2859002D1*
X3005893Y2118700D1*
X3068700D1*
Y2218700D2*
X3115234D1*
X3143357Y2190577D1*
Y1793745D1*
X3115235Y1765623D1*
X2334033D1*
X2287111Y1718700D1*
X1968700D1*
X1368700Y2018700D2*
X820275D1*
X693700Y1892125D1*
X1368700Y1918700D2*
X1455965Y1831435D1*
Y1559386D1*
X1427840Y1531262D1*
X857713D1*
X693700Y1695275D1*
Y2220275D2*
X602893Y2129468D1*
Y1846868D1*
X631061Y1818700D1*
X1368700D1*
X3068700Y2318700D2*
X2643390D1*
X2615267Y2346823D1*
Y3115537D1*
X2587104Y3143700D1*
X1968700D1*
X3068700Y2418700D2*
X3015241Y2472159D1*
Y2840556D1*
X2612096Y3243700D1*
X1968700D1*
Y2943700D2*
X2393406Y2518994D1*
Y2493994D1*
X2468700Y2418700D1*
X1968700Y2843700D2*
X2337159Y2475241D1*
Y2450241D1*
X2468700Y2318700D1*
X1968700Y1918700D2*
X2234041Y1918738D1*
X2468700Y2118700D2*
X2380906Y2030906D1*
Y1846867D1*
X2352739Y1818700D1*
X1968700D1*
X1368700Y3968700D2*
X1459228Y4059228D1*
X1727823D1*
X1755945Y4031106D1*
Y3934237D1*
X1784069Y3906113D1*
X2193417D1*
X2304255Y3795275D1*
X2968700D1*
X2195275Y3968700D2*
X2193418Y3934235D1*
X2193417Y3906113D1*
X1368700Y3043700D2*
X795275D1*
X693700Y2942125D1*
Y2745275D2*
X892125Y2943700D1*
X1368700D1*
Y2743700D2*
X1280976D1*
X1193466Y2656191D1*
X602894D1*
X574770Y2684315D1*
Y3348195D1*
X693700Y3467125D1*
Y3270275D2*
X631018Y3207592D1*
Y2712438D1*
X659140Y2684315D1*
X1077864D1*
X1237249Y2843700D1*
X1368700D1*
Y3243700D2*
X1609035D1*
X1665326Y3187409D1*
Y3043699D1*
X1637184Y3015557D1*
Y2218700D1*
X1609081D1*
X1368700D1*
X1968700Y993700D2*
X1896562D1*
X1887187D1*
Y962548D1*
X1656035Y1193700D1*
X1368700D1*
X1968700Y2018700D2*
X1809081D1*
X1609081Y2218700D1*
X1665326Y3043699D2*
Y3043700D1*
X1968700D1*
X1896562Y993700D2*
Y534451D1*
X1924686Y506327D1*
X2024679D1*
X2052802Y534451D1*
Y643818D1*
D25*
X2068426Y1043793D3*
Y1618756D3*
X2249665Y653193D3*
X2234041Y1918738D3*
X2052802Y643818D3*
D15*
X1892125Y3968700D3*
D16*
X1695275D3*
D15*
X2968700Y3795275D3*
D16*
Y3992125D3*
D15*
Y3245275D3*
D16*
Y3442125D3*
D17*
X743700Y3968700D3*
D18*
X643700D3*
D15*
X693700Y842125D3*
D16*
Y645275D3*
D15*
Y1367125D3*
D16*
Y1170275D3*
D15*
Y1892125D3*
D16*
Y1695275D3*
D15*
Y2417125D3*
D16*
Y2220275D3*
D15*
Y2942125D3*
D16*
Y2745275D3*
D15*
Y3467125D3*
D16*
Y3270275D3*
D19*
X1368700Y993700D3*
Y693700D3*
Y893700D3*
Y793700D3*
Y1193700D3*
X1968700Y693700D3*
X1368700Y1093700D3*
X1968700Y893700D3*
Y793700D3*
X1368700Y1293700D3*
X1968700D3*
Y1193700D3*
Y993700D3*
Y1093700D3*
X1368700Y593700D3*
X1968700D3*
X1368700Y2018700D3*
Y1718700D3*
Y1918700D3*
Y1818700D3*
Y2218700D3*
X1968700Y1718700D3*
X1368700Y2118700D3*
X1968700Y1918700D3*
Y1818700D3*
X1368700Y2318700D3*
X1968700D3*
Y2218700D3*
Y2018700D3*
Y2118700D3*
X1368700Y1618700D3*
X1968700D3*
X1368700Y3043700D3*
Y2743700D3*
Y2943700D3*
Y2843700D3*
Y3243700D3*
X1968700Y2743700D3*
X1368700Y3143700D3*
X1968700Y2943700D3*
Y2843700D3*
X1368700Y3343700D3*
X1968700D3*
Y3243700D3*
Y3043700D3*
Y3143700D3*
X1368700Y2643700D3*
X1968700D3*
D21*
X1068700Y3968700D3*
X1368700D3*
D15*
X2392125D3*
D16*
X2195275D3*
D22*
X3068700Y618700D3*
Y718700D3*
Y818700D3*
Y918700D3*
Y1018700D3*
Y1118700D3*
Y1218700D3*
Y1318700D3*
Y1418700D3*
Y1518700D3*
Y1618700D3*
Y1718700D3*
Y1818700D3*
Y1918700D3*
Y2018700D3*
X2468700Y1918700D3*
Y1818700D3*
Y1718700D3*
Y1618700D3*
Y1518700D3*
Y1418700D3*
Y1318700D3*
Y1218700D3*
Y1118700D3*
Y1018700D3*
Y918700D3*
Y618700D3*
X3068700Y2118700D3*
Y2218700D3*
Y2318700D3*
Y2418700D3*
Y2518700D3*
Y2618700D3*
Y2718700D3*
Y2818700D3*
Y2918700D3*
X2468700D3*
Y2818700D3*
Y2718700D3*
Y2618700D3*
Y2518700D3*
Y2418700D3*
Y2318700D3*
Y2218700D3*
Y2118700D3*
X2968700Y2418700D3*
X2568700D3*
Y718700D3*
X2668700Y2418700D3*
D23*
X2565157Y1208070D3*
Y1129330D3*
X2722637Y1208070D3*
X2643897Y1129330D3*
X2722637D3*
D24*
X2948621Y868700D3*
Y968700D3*
Y1068700D3*
Y1168700D3*
D22*
X2868700Y2418700D3*
X2768700D3*
X2468700Y2018700D3*
D23*
X2643897Y1208070D3*
D24*
X2948621Y1268700D3*
D22*
X2468700Y818700D3*
Y718700D3*
M02*
