M48
INCH
T01C0.0191
T02C0.0276
T03C0.028
T04C0.0295
T05C0.0315
T06C0.052
T07C0.0551
%
T01
X+020684Y+010438
X+020528Y+006438
X+022497Y+006532
X+020684Y+016188
X+022340Y+019187
T02
X+010687Y+039687
X+013687Y+039687
X+025652Y+012081
X+025652Y+011293
X+026439Y+011293
X+027226Y+011293
X+027226Y+012081
X+026439Y+012081
T03
X+007437Y+039687
X+006437Y+039687
T04
X+029486Y+008687
X+029486Y+009687
X+029486Y+010687
X+029486Y+011687
X+029486Y+012687
T05
X+030687Y+006187
X+030687Y+007187
X+030687Y+008187
X+030687Y+009187
X+030687Y+010187
X+030687Y+011187
X+030687Y+012187
X+030687Y+013187
X+030687Y+014187
X+030687Y+015187
X+030687Y+016187
X+030687Y+017187
X+030687Y+018187
X+030687Y+019187
X+030687Y+020187
X+030687Y+021187
X+030687Y+022187
X+030687Y+023187
X+030687Y+024187
X+030687Y+025187
X+030687Y+026187
X+030687Y+027187
X+030687Y+028187
X+030687Y+029187
X+029687Y+024187
X+028687Y+024187
X+027687Y+024187
X+026687Y+024187
X+025687Y+024187
X+024687Y+024187
X+024687Y+025187
X+024687Y+026187
X+024687Y+027187
X+024687Y+028187
X+024687Y+029187
X+024687Y+023187
X+024687Y+022187
X+024687Y+021187
X+024687Y+020187
X+024687Y+019187
X+024687Y+018187
X+024687Y+017187
X+024687Y+016187
X+024687Y+015187
X+024687Y+014187
X+024687Y+013187
X+024687Y+012187
X+024687Y+011187
X+024687Y+010187
X+024687Y+009187
X+024687Y+008187
X+024687Y+007187
X+024687Y+006187
X+025687Y+007187
T06
X+013687Y+009937
X+013687Y+008937
X+013687Y+007937
X+013687Y+006937
X+013687Y+005937
X+013687Y+010937
X+013687Y+011937
X+013687Y+012937
X+013687Y+016187
X+013687Y+017187
X+013687Y+018187
X+013687Y+019187
X+013687Y+020187
X+013687Y+021187
X+013687Y+022187
X+013687Y+023187
X+013687Y+026437
X+013687Y+027437
X+013687Y+028437
X+013687Y+029437
X+013687Y+030437
X+013687Y+031437
X+013687Y+032437
X+013687Y+033437
X+019687Y+033437
X+019687Y+032437
X+019687Y+031437
X+019687Y+030437
X+019687Y+029437
X+019687Y+028437
X+019687Y+027437
X+019687Y+026437
X+019687Y+023187
X+019687Y+022187
X+019687Y+021187
X+019687Y+020187
X+019687Y+019187
X+019687Y+018187
X+019687Y+017187
X+019687Y+016187
X+019687Y+012937
X+019687Y+011937
X+019687Y+010937
X+019687Y+009937
X+019687Y+008937
X+019687Y+007937
X+019687Y+006937
X+019687Y+005937
T07
X+018921Y+039687
X+016953Y+039687
X+021953Y+039687
X+023921Y+039687
X+029687Y+039921
X+029687Y+037953
X+029687Y+034421
X+029687Y+032453
X+006937Y+032703
X+006937Y+034671
X+006937Y+029421
X+006937Y+027453
X+006937Y+024171
X+006937Y+022203
X+006937Y+018921
X+006937Y+016953
X+006937Y+013671
X+006937Y+011703
X+006937Y+008421
X+006937Y+006453
T00
M30
