G04 DipTrace 5.2.0.4*
G04 TopAssembly.gbr*
%MOIN*%
G04 #@! TF.FileFunction,Drawing,Top*
G04 #@! TF.Part,Single*
%ADD10C,0.005*%
%ADD20C,0.004724*%
%ADD56C,0.006176*%
%FSLAX26Y26*%
G04*
G70*
G90*
G75*
G01*
G04 TopAssy*
%LPD*%
X1990550Y3811220D2*
D10*
X1596850D1*
Y4106495D1*
X1990550D1*
Y3811220D1*
G36*
X2022046Y3968700D2*
X2021979Y3967672D1*
X2021778Y3966662D1*
X2021447Y3965687D1*
X2020992Y3964763D1*
X2020419Y3963907D1*
X2019740Y3963132D1*
X2018966Y3962453D1*
X2018109Y3961881D1*
X2017186Y3961425D1*
X2016210Y3961094D1*
X2015200Y3960893D1*
X2014172Y3960826D1*
X2013145Y3960893D1*
X2012134Y3961094D1*
X2011159Y3961425D1*
X2010235Y3961881D1*
X2009379Y3962453D1*
X2008605Y3963132D1*
X2007926Y3963907D1*
X2007353Y3964763D1*
X2006898Y3965687D1*
X2006567Y3966662D1*
X2006366Y3967672D1*
X2006298Y3968700D1*
D1*
X2006366Y3969728D1*
X2006567Y3970738D1*
X2006898Y3971713D1*
X2007353Y3972637D1*
X2007926Y3973493D1*
X2008605Y3974268D1*
X2009379Y3974947D1*
X2010235Y3975519D1*
X2011159Y3975975D1*
X2012134Y3976306D1*
X2013145Y3976507D1*
X2014172Y3976574D1*
X2015200Y3976507D1*
X2016210Y3976306D1*
X2017186Y3975975D1*
X2018109Y3975519D1*
X2018966Y3974947D1*
X2019740Y3974268D1*
X2020419Y3973493D1*
X2020992Y3972637D1*
X2021447Y3971713D1*
X2021778Y3970738D1*
X2021979Y3969728D1*
X2022046Y3968700D1*
D1*
G37*
X2811220Y3696850D2*
D10*
Y4090550D1*
X3106495D1*
Y3696850D1*
X2811220D1*
G36*
X2968700Y3665354D2*
X2967672Y3665421D1*
X2966662Y3665622D1*
X2965687Y3665953D1*
X2964763Y3666408D1*
X2963907Y3666981D1*
X2963132Y3667660D1*
X2962453Y3668434D1*
X2961881Y3669291D1*
X2961425Y3670214D1*
X2961094Y3671190D1*
X2960893Y3672200D1*
X2960826Y3673228D1*
X2960893Y3674255D1*
X2961094Y3675266D1*
X2961425Y3676241D1*
X2961881Y3677165D1*
X2962453Y3678021D1*
X2963132Y3678795D1*
X2963907Y3679474D1*
X2964763Y3680047D1*
X2965687Y3680502D1*
X2966662Y3680833D1*
X2967672Y3681034D1*
X2968700Y3681102D1*
D1*
X2969728Y3681034D1*
X2970738Y3680833D1*
X2971713Y3680502D1*
X2972637Y3680047D1*
X2973493Y3679474D1*
X2974268Y3678795D1*
X2974947Y3678021D1*
X2975519Y3677165D1*
X2975975Y3676241D1*
X2976306Y3675266D1*
X2976507Y3674255D1*
X2976574Y3673228D1*
X2976507Y3672200D1*
X2976306Y3671190D1*
X2975975Y3670214D1*
X2975519Y3669291D1*
X2974947Y3668434D1*
X2974268Y3667660D1*
X2973493Y3666981D1*
X2972637Y3666408D1*
X2971713Y3665953D1*
X2970738Y3665622D1*
X2969728Y3665421D1*
X2968700Y3665354D1*
D1*
G37*
X2811220Y3146850D2*
D10*
Y3540550D1*
X3106495D1*
Y3146850D1*
X2811220D1*
G36*
X2968700Y3115354D2*
X2967672Y3115421D1*
X2966662Y3115622D1*
X2965687Y3115953D1*
X2964763Y3116408D1*
X2963907Y3116981D1*
X2963132Y3117660D1*
X2962453Y3118434D1*
X2961881Y3119291D1*
X2961425Y3120214D1*
X2961094Y3121190D1*
X2960893Y3122200D1*
X2960826Y3123228D1*
X2960893Y3124255D1*
X2961094Y3125266D1*
X2961425Y3126241D1*
X2961881Y3127165D1*
X2962453Y3128021D1*
X2963132Y3128795D1*
X2963907Y3129474D1*
X2964763Y3130047D1*
X2965687Y3130502D1*
X2966662Y3130833D1*
X2967672Y3131034D1*
X2968700Y3131102D1*
D1*
X2969728Y3131034D1*
X2970738Y3130833D1*
X2971713Y3130502D1*
X2972637Y3130047D1*
X2973493Y3129474D1*
X2974268Y3128795D1*
X2974947Y3128021D1*
X2975519Y3127165D1*
X2975975Y3126241D1*
X2976306Y3125266D1*
X2976507Y3124255D1*
X2976574Y3123228D1*
X2976507Y3122200D1*
X2976306Y3121190D1*
X2975975Y3120214D1*
X2975519Y3119291D1*
X2974947Y3118434D1*
X2974268Y3117660D1*
X2973493Y3116981D1*
X2972637Y3116408D1*
X2971713Y3115953D1*
X2970738Y3115622D1*
X2969728Y3115421D1*
X2968700Y3115354D1*
D1*
G37*
X851180Y940550D2*
D10*
Y546850D1*
X555905D1*
Y940550D1*
X851180D1*
G36*
X693700Y972046D2*
X694728Y971979D1*
X695738Y971778D1*
X696713Y971447D1*
X697637Y970992D1*
X698493Y970419D1*
X699268Y969740D1*
X699947Y968966D1*
X700519Y968109D1*
X700975Y967186D1*
X701306Y966210D1*
X701507Y965200D1*
X701574Y964172D1*
X701507Y963145D1*
X701306Y962134D1*
X700975Y961159D1*
X700519Y960235D1*
X699947Y959379D1*
X699268Y958605D1*
X698493Y957926D1*
X697637Y957353D1*
X696713Y956898D1*
X695738Y956567D1*
X694728Y956366D1*
X693700Y956298D1*
D1*
X692672Y956366D1*
X691662Y956567D1*
X690687Y956898D1*
X689763Y957353D1*
X688907Y957926D1*
X688132Y958605D1*
X687453Y959379D1*
X686881Y960235D1*
X686425Y961159D1*
X686094Y962134D1*
X685893Y963145D1*
X685826Y964172D1*
X685893Y965200D1*
X686094Y966210D1*
X686425Y967186D1*
X686881Y968109D1*
X687453Y968966D1*
X688132Y969740D1*
X688907Y970419D1*
X689763Y970992D1*
X690687Y971447D1*
X691662Y971778D1*
X692672Y971979D1*
X693700Y972046D1*
D1*
G37*
X851180Y1465550D2*
D10*
Y1071850D1*
X555905D1*
Y1465550D1*
X851180D1*
G36*
X693700Y1497046D2*
X694728Y1496979D1*
X695738Y1496778D1*
X696713Y1496447D1*
X697637Y1495992D1*
X698493Y1495419D1*
X699268Y1494740D1*
X699947Y1493966D1*
X700519Y1493109D1*
X700975Y1492186D1*
X701306Y1491210D1*
X701507Y1490200D1*
X701574Y1489172D1*
X701507Y1488145D1*
X701306Y1487134D1*
X700975Y1486159D1*
X700519Y1485235D1*
X699947Y1484379D1*
X699268Y1483605D1*
X698493Y1482926D1*
X697637Y1482353D1*
X696713Y1481898D1*
X695738Y1481567D1*
X694728Y1481366D1*
X693700Y1481298D1*
D1*
X692672Y1481366D1*
X691662Y1481567D1*
X690687Y1481898D1*
X689763Y1482353D1*
X688907Y1482926D1*
X688132Y1483605D1*
X687453Y1484379D1*
X686881Y1485235D1*
X686425Y1486159D1*
X686094Y1487134D1*
X685893Y1488145D1*
X685826Y1489172D1*
X685893Y1490200D1*
X686094Y1491210D1*
X686425Y1492186D1*
X686881Y1493109D1*
X687453Y1493966D1*
X688132Y1494740D1*
X688907Y1495419D1*
X689763Y1495992D1*
X690687Y1496447D1*
X691662Y1496778D1*
X692672Y1496979D1*
X693700Y1497046D1*
D1*
G37*
X851180Y1990550D2*
D10*
Y1596850D1*
X555905D1*
Y1990550D1*
X851180D1*
G36*
X693700Y2022046D2*
X694728Y2021979D1*
X695738Y2021778D1*
X696713Y2021447D1*
X697637Y2020992D1*
X698493Y2020419D1*
X699268Y2019740D1*
X699947Y2018966D1*
X700519Y2018109D1*
X700975Y2017186D1*
X701306Y2016210D1*
X701507Y2015200D1*
X701574Y2014172D1*
X701507Y2013145D1*
X701306Y2012134D1*
X700975Y2011159D1*
X700519Y2010235D1*
X699947Y2009379D1*
X699268Y2008605D1*
X698493Y2007926D1*
X697637Y2007353D1*
X696713Y2006898D1*
X695738Y2006567D1*
X694728Y2006366D1*
X693700Y2006298D1*
D1*
X692672Y2006366D1*
X691662Y2006567D1*
X690687Y2006898D1*
X689763Y2007353D1*
X688907Y2007926D1*
X688132Y2008605D1*
X687453Y2009379D1*
X686881Y2010235D1*
X686425Y2011159D1*
X686094Y2012134D1*
X685893Y2013145D1*
X685826Y2014172D1*
X685893Y2015200D1*
X686094Y2016210D1*
X686425Y2017186D1*
X686881Y2018109D1*
X687453Y2018966D1*
X688132Y2019740D1*
X688907Y2020419D1*
X689763Y2020992D1*
X690687Y2021447D1*
X691662Y2021778D1*
X692672Y2021979D1*
X693700Y2022046D1*
D1*
G37*
X851180Y2515550D2*
D10*
Y2121850D1*
X555905D1*
Y2515550D1*
X851180D1*
G36*
X693700Y2547046D2*
X694728Y2546979D1*
X695738Y2546778D1*
X696713Y2546447D1*
X697637Y2545992D1*
X698493Y2545419D1*
X699268Y2544740D1*
X699947Y2543966D1*
X700519Y2543109D1*
X700975Y2542186D1*
X701306Y2541210D1*
X701507Y2540200D1*
X701574Y2539172D1*
X701507Y2538145D1*
X701306Y2537134D1*
X700975Y2536159D1*
X700519Y2535235D1*
X699947Y2534379D1*
X699268Y2533605D1*
X698493Y2532926D1*
X697637Y2532353D1*
X696713Y2531898D1*
X695738Y2531567D1*
X694728Y2531366D1*
X693700Y2531298D1*
D1*
X692672Y2531366D1*
X691662Y2531567D1*
X690687Y2531898D1*
X689763Y2532353D1*
X688907Y2532926D1*
X688132Y2533605D1*
X687453Y2534379D1*
X686881Y2535235D1*
X686425Y2536159D1*
X686094Y2537134D1*
X685893Y2538145D1*
X685826Y2539172D1*
X685893Y2540200D1*
X686094Y2541210D1*
X686425Y2542186D1*
X686881Y2543109D1*
X687453Y2543966D1*
X688132Y2544740D1*
X688907Y2545419D1*
X689763Y2545992D1*
X690687Y2546447D1*
X691662Y2546778D1*
X692672Y2546979D1*
X693700Y2547046D1*
D1*
G37*
X851180Y3040550D2*
D10*
Y2646850D1*
X555905D1*
Y3040550D1*
X851180D1*
G36*
X693700Y3072046D2*
X694728Y3071979D1*
X695738Y3071778D1*
X696713Y3071447D1*
X697637Y3070992D1*
X698493Y3070419D1*
X699268Y3069740D1*
X699947Y3068966D1*
X700519Y3068109D1*
X700975Y3067186D1*
X701306Y3066210D1*
X701507Y3065200D1*
X701574Y3064172D1*
X701507Y3063145D1*
X701306Y3062134D1*
X700975Y3061159D1*
X700519Y3060235D1*
X699947Y3059379D1*
X699268Y3058605D1*
X698493Y3057926D1*
X697637Y3057353D1*
X696713Y3056898D1*
X695738Y3056567D1*
X694728Y3056366D1*
X693700Y3056298D1*
D1*
X692672Y3056366D1*
X691662Y3056567D1*
X690687Y3056898D1*
X689763Y3057353D1*
X688907Y3057926D1*
X688132Y3058605D1*
X687453Y3059379D1*
X686881Y3060235D1*
X686425Y3061159D1*
X686094Y3062134D1*
X685893Y3063145D1*
X685826Y3064172D1*
X685893Y3065200D1*
X686094Y3066210D1*
X686425Y3067186D1*
X686881Y3068109D1*
X687453Y3068966D1*
X688132Y3069740D1*
X688907Y3070419D1*
X689763Y3070992D1*
X690687Y3071447D1*
X691662Y3071778D1*
X692672Y3071979D1*
X693700Y3072046D1*
D1*
G37*
X851180Y3565550D2*
D10*
Y3171850D1*
X555905D1*
Y3565550D1*
X851180D1*
G36*
X693700Y3597046D2*
X694728Y3596979D1*
X695738Y3596778D1*
X696713Y3596447D1*
X697637Y3595992D1*
X698493Y3595419D1*
X699268Y3594740D1*
X699947Y3593966D1*
X700519Y3593109D1*
X700975Y3592186D1*
X701306Y3591210D1*
X701507Y3590200D1*
X701574Y3589172D1*
X701507Y3588145D1*
X701306Y3587134D1*
X700975Y3586159D1*
X700519Y3585235D1*
X699947Y3584379D1*
X699268Y3583605D1*
X698493Y3582926D1*
X697637Y3582353D1*
X696713Y3581898D1*
X695738Y3581567D1*
X694728Y3581366D1*
X693700Y3581298D1*
D1*
X692672Y3581366D1*
X691662Y3581567D1*
X690687Y3581898D1*
X689763Y3582353D1*
X688907Y3582926D1*
X688132Y3583605D1*
X687453Y3584379D1*
X686881Y3585235D1*
X686425Y3586159D1*
X686094Y3587134D1*
X685893Y3588145D1*
X685826Y3589172D1*
X685893Y3590200D1*
X686094Y3591210D1*
X686425Y3592186D1*
X686881Y3593109D1*
X687453Y3593966D1*
X688132Y3594740D1*
X688907Y3595419D1*
X689763Y3595992D1*
X690687Y3596447D1*
X691662Y3596778D1*
X692672Y3596979D1*
X693700Y3597046D1*
D1*
G37*
G36*
X1360826Y1366075D2*
X1360893Y1367103D1*
X1361094Y1368113D1*
X1361425Y1369089D1*
X1361881Y1370012D1*
X1362453Y1370869D1*
X1363132Y1371643D1*
X1363907Y1372322D1*
X1364763Y1372894D1*
X1365687Y1373350D1*
X1366662Y1373681D1*
X1367672Y1373882D1*
X1368700Y1373949D1*
X1369728Y1373882D1*
X1370738Y1373681D1*
X1371713Y1373350D1*
X1372637Y1372894D1*
X1373493Y1372322D1*
X1374268Y1371643D1*
X1374947Y1370869D1*
X1375519Y1370012D1*
X1375975Y1369089D1*
X1376306Y1368113D1*
X1376507Y1367103D1*
X1376574Y1366075D1*
D1*
X1376507Y1365048D1*
X1376306Y1364037D1*
X1375975Y1363062D1*
X1375519Y1362138D1*
X1374947Y1361282D1*
X1374268Y1360508D1*
X1373493Y1359828D1*
X1372637Y1359256D1*
X1371713Y1358801D1*
X1370738Y1358470D1*
X1369728Y1358269D1*
X1368700Y1358201D1*
X1367672Y1358269D1*
X1366662Y1358470D1*
X1365687Y1358801D1*
X1364763Y1359256D1*
X1363907Y1359828D1*
X1363132Y1360508D1*
X1362453Y1361282D1*
X1361881Y1362138D1*
X1361425Y1363062D1*
X1361094Y1364037D1*
X1360893Y1365048D1*
X1360826Y1366075D1*
D1*
G37*
X1268700Y1343700D2*
D10*
Y543700D1*
X2068700D1*
Y1343700D1*
X1268700D1*
G36*
X1360826Y2391075D2*
X1360893Y2392103D1*
X1361094Y2393113D1*
X1361425Y2394089D1*
X1361881Y2395012D1*
X1362453Y2395869D1*
X1363132Y2396643D1*
X1363907Y2397322D1*
X1364763Y2397894D1*
X1365687Y2398350D1*
X1366662Y2398681D1*
X1367672Y2398882D1*
X1368700Y2398949D1*
X1369728Y2398882D1*
X1370738Y2398681D1*
X1371713Y2398350D1*
X1372637Y2397894D1*
X1373493Y2397322D1*
X1374268Y2396643D1*
X1374947Y2395869D1*
X1375519Y2395012D1*
X1375975Y2394089D1*
X1376306Y2393113D1*
X1376507Y2392103D1*
X1376574Y2391075D1*
D1*
X1376507Y2390048D1*
X1376306Y2389037D1*
X1375975Y2388062D1*
X1375519Y2387138D1*
X1374947Y2386282D1*
X1374268Y2385508D1*
X1373493Y2384828D1*
X1372637Y2384256D1*
X1371713Y2383801D1*
X1370738Y2383470D1*
X1369728Y2383269D1*
X1368700Y2383201D1*
X1367672Y2383269D1*
X1366662Y2383470D1*
X1365687Y2383801D1*
X1364763Y2384256D1*
X1363907Y2384828D1*
X1363132Y2385508D1*
X1362453Y2386282D1*
X1361881Y2387138D1*
X1361425Y2388062D1*
X1361094Y2389037D1*
X1360893Y2390048D1*
X1360826Y2391075D1*
D1*
G37*
X1268700Y2368700D2*
D10*
Y1568700D1*
X2068700D1*
Y2368700D1*
X1268700D1*
G36*
X1360826Y3416075D2*
X1360893Y3417103D1*
X1361094Y3418113D1*
X1361425Y3419089D1*
X1361881Y3420012D1*
X1362453Y3420869D1*
X1363132Y3421643D1*
X1363907Y3422322D1*
X1364763Y3422894D1*
X1365687Y3423350D1*
X1366662Y3423681D1*
X1367672Y3423882D1*
X1368700Y3423949D1*
X1369728Y3423882D1*
X1370738Y3423681D1*
X1371713Y3423350D1*
X1372637Y3422894D1*
X1373493Y3422322D1*
X1374268Y3421643D1*
X1374947Y3420869D1*
X1375519Y3420012D1*
X1375975Y3419089D1*
X1376306Y3418113D1*
X1376507Y3417103D1*
X1376574Y3416075D1*
D1*
X1376507Y3415048D1*
X1376306Y3414037D1*
X1375975Y3413062D1*
X1375519Y3412138D1*
X1374947Y3411282D1*
X1374268Y3410508D1*
X1373493Y3409828D1*
X1372637Y3409256D1*
X1371713Y3408801D1*
X1370738Y3408470D1*
X1369728Y3408269D1*
X1368700Y3408201D1*
X1367672Y3408269D1*
X1366662Y3408470D1*
X1365687Y3408801D1*
X1364763Y3409256D1*
X1363907Y3409828D1*
X1363132Y3410508D1*
X1362453Y3411282D1*
X1361881Y3412138D1*
X1361425Y3413062D1*
X1361094Y3414037D1*
X1360893Y3415048D1*
X1360826Y3416075D1*
D1*
G37*
X1268700Y3393700D2*
D10*
Y2593700D1*
X2068700D1*
Y3393700D1*
X1268700D1*
X1145865Y4010039D2*
D20*
Y3927361D1*
X1291535D1*
Y4010039D1*
X1145865D1*
X1090354Y3968700D2*
X1145865D1*
X1291535D2*
X1347046D1*
X2490550Y3811220D2*
D10*
X2096850D1*
Y4106495D1*
X2490550D1*
Y3811220D1*
G36*
X2522046Y3968700D2*
X2521979Y3967672D1*
X2521778Y3966662D1*
X2521447Y3965687D1*
X2520992Y3964763D1*
X2520419Y3963907D1*
X2519740Y3963132D1*
X2518966Y3962453D1*
X2518109Y3961881D1*
X2517186Y3961425D1*
X2516210Y3961094D1*
X2515200Y3960893D1*
X2514172Y3960826D1*
X2513145Y3960893D1*
X2512134Y3961094D1*
X2511159Y3961425D1*
X2510235Y3961881D1*
X2509379Y3962453D1*
X2508605Y3963132D1*
X2507926Y3963907D1*
X2507353Y3964763D1*
X2506898Y3965687D1*
X2506567Y3966662D1*
X2506366Y3967672D1*
X2506298Y3968700D1*
D1*
X2506366Y3969728D1*
X2506567Y3970738D1*
X2506898Y3971713D1*
X2507353Y3972637D1*
X2507926Y3973493D1*
X2508605Y3974268D1*
X2509379Y3974947D1*
X2510235Y3975519D1*
X2511159Y3975975D1*
X2512134Y3976306D1*
X2513145Y3976507D1*
X2514172Y3976574D1*
X2515200Y3976507D1*
X2516210Y3976306D1*
X2517186Y3975975D1*
X2518109Y3975519D1*
X2518966Y3974947D1*
X2519740Y3974268D1*
X2520419Y3973493D1*
X2520992Y3972637D1*
X2521447Y3971713D1*
X2521778Y3970738D1*
X2521979Y3969728D1*
X2522046Y3968700D1*
D1*
G37*
X2418700Y568700D2*
D10*
Y2968700D1*
X3118700D1*
Y568700D1*
X2927361D2*
Y541141D1*
X2610039Y568700D2*
Y541141D1*
X2927361D2*
X2610039D1*
X3118700Y568700D2*
X2927361D1*
X2418700D2*
X2610039D1*
G36*
X3142716Y810826D2*
X3141688Y810893D1*
X3140678Y811094D1*
X3139702Y811425D1*
X3138779Y811881D1*
X3137922Y812453D1*
X3137148Y813132D1*
X3136469Y813907D1*
X3135897Y814763D1*
X3135441Y815687D1*
X3135110Y816662D1*
X3134909Y817672D1*
X3134842Y818700D1*
X3134909Y819728D1*
X3135110Y820738D1*
X3135441Y821713D1*
X3135897Y822637D1*
X3136469Y823493D1*
X3137148Y824268D1*
X3137922Y824947D1*
X3138779Y825519D1*
X3139702Y825975D1*
X3140678Y826306D1*
X3141688Y826507D1*
X3142716Y826574D1*
D1*
X3143744Y826507D1*
X3144754Y826306D1*
X3145729Y825975D1*
X3146653Y825519D1*
X3147509Y824947D1*
X3148284Y824268D1*
X3148963Y823493D1*
X3149535Y822637D1*
X3149990Y821713D1*
X3150321Y820738D1*
X3150522Y819728D1*
X3150590Y818700D1*
X3150522Y817672D1*
X3150321Y816662D1*
X3149990Y815687D1*
X3149535Y814763D1*
X3148963Y813907D1*
X3148284Y813132D1*
X3147509Y812453D1*
X3146653Y811881D1*
X3145729Y811425D1*
X3144754Y811094D1*
X3143744Y810893D1*
X3142716Y810826D1*
D1*
G37*
X2735594Y1612502D2*
D56*
X2775786D1*
X2735594Y1599104D2*
Y1625899D1*
X2760487Y1638250D2*
Y1661198D1*
X2756641D1*
X2752794Y1659297D1*
X2750893Y1657396D1*
X2748991Y1653549D1*
Y1647801D1*
X2750893Y1643998D1*
X2754739Y1640152D1*
X2760487Y1638250D1*
X2764290D1*
X2770038Y1640152D1*
X2773841Y1643998D1*
X2775786Y1647801D1*
Y1653549D1*
X2773841Y1657396D1*
X2770038Y1661198D1*
X2760487Y1673550D2*
Y1696497D1*
X2756641D1*
X2752794Y1694596D1*
X2750893Y1692695D1*
X2748991Y1688848D1*
Y1683100D1*
X2750893Y1679298D1*
X2754739Y1675451D1*
X2760487Y1673550D1*
X2764290D1*
X2770038Y1675451D1*
X2773841Y1679298D1*
X2775786Y1683100D1*
Y1688848D1*
X2773841Y1692695D1*
X2770038Y1696497D1*
X2748991Y1708849D2*
X2775786D1*
X2756641D2*
X2750893Y1714597D1*
X2748991Y1718444D1*
Y1724147D1*
X2750893Y1727994D1*
X2756641Y1729895D1*
X2775786D1*
X2754739Y1763294D2*
X2750893Y1761392D1*
X2748991Y1755644D1*
Y1749896D1*
X2750893Y1744148D1*
X2754739Y1742247D1*
X2758542Y1744148D1*
X2760487Y1747995D1*
X2762389Y1757546D1*
X2764290Y1761392D1*
X2768137Y1763294D1*
X2770038D1*
X2773841Y1761392D1*
X2775786Y1755644D1*
Y1749896D1*
X2773841Y1744148D1*
X2770038Y1742247D1*
X2748991Y1777590D2*
X2775786Y1789042D1*
X2783435Y1785240D1*
X2787282Y1781393D1*
X2789183Y1777590D1*
Y1775645D1*
X2748991Y1800538D2*
X2775786Y1789042D1*
Y1870916D2*
X2735638D1*
X2762389Y1851770D1*
Y1880466D1*
X2771939Y1894719D2*
X2773885Y1892818D1*
X2775786Y1894719D1*
X2773885Y1896665D1*
X2771939Y1894719D1*
X2743288Y1909016D2*
X2741342Y1912863D1*
X2735638Y1918611D1*
X2775786D1*
M02*
