G04 DipTrace 5.2.0.4*
G04 TopSilk.gbr*
%MOIN*%
G04 #@! TF.FileFunction,Legend,Top*
G04 #@! TF.Part,Single*
%ADD10C,0.005*%
%ADD20C,0.004724*%
%ADD53C,0.008749*%
%ADD54C,0.010936*%
%ADD55C,0.003088*%
%FSLAX26Y26*%
G04*
G70*
G90*
G75*
G01*
G04 TopSilk*
%LPD*%
X1990550Y3811220D2*
D10*
X1596850D1*
X1990550Y4106495D2*
Y3811220D1*
X1596850Y4106495D2*
X1990550D1*
X1596850Y3811220D2*
Y4106495D1*
G36*
X2022046Y3968700D2*
X2021979Y3967672D1*
X2021778Y3966662D1*
X2021447Y3965687D1*
X2020992Y3964763D1*
X2020419Y3963907D1*
X2019740Y3963132D1*
X2018966Y3962453D1*
X2018109Y3961881D1*
X2017186Y3961425D1*
X2016210Y3961094D1*
X2015200Y3960893D1*
X2014172Y3960826D1*
X2013145Y3960893D1*
X2012134Y3961094D1*
X2011159Y3961425D1*
X2010235Y3961881D1*
X2009379Y3962453D1*
X2008605Y3963132D1*
X2007926Y3963907D1*
X2007353Y3964763D1*
X2006898Y3965687D1*
X2006567Y3966662D1*
X2006366Y3967672D1*
X2006298Y3968700D1*
D1*
X2006366Y3969728D1*
X2006567Y3970738D1*
X2006898Y3971713D1*
X2007353Y3972637D1*
X2007926Y3973493D1*
X2008605Y3974268D1*
X2009379Y3974947D1*
X2010235Y3975519D1*
X2011159Y3975975D1*
X2012134Y3976306D1*
X2013145Y3976507D1*
X2014172Y3976574D1*
X2015200Y3976507D1*
X2016210Y3976306D1*
X2017186Y3975975D1*
X2018109Y3975519D1*
X2018966Y3974947D1*
X2019740Y3974268D1*
X2020419Y3973493D1*
X2020992Y3972637D1*
X2021447Y3971713D1*
X2021778Y3970738D1*
X2021979Y3969728D1*
X2022046Y3968700D1*
D1*
G37*
X2811220Y3696850D2*
D10*
Y4090550D1*
X3106495Y3696850D2*
X2811220D1*
X3106495Y4090550D2*
Y3696850D1*
X2811220Y4090550D2*
X3106495D1*
G36*
X2968700Y3665354D2*
X2967672Y3665421D1*
X2966662Y3665622D1*
X2965687Y3665953D1*
X2964763Y3666408D1*
X2963907Y3666981D1*
X2963132Y3667660D1*
X2962453Y3668434D1*
X2961881Y3669291D1*
X2961425Y3670214D1*
X2961094Y3671190D1*
X2960893Y3672200D1*
X2960826Y3673228D1*
X2960893Y3674255D1*
X2961094Y3675266D1*
X2961425Y3676241D1*
X2961881Y3677165D1*
X2962453Y3678021D1*
X2963132Y3678795D1*
X2963907Y3679474D1*
X2964763Y3680047D1*
X2965687Y3680502D1*
X2966662Y3680833D1*
X2967672Y3681034D1*
X2968700Y3681102D1*
D1*
X2969728Y3681034D1*
X2970738Y3680833D1*
X2971713Y3680502D1*
X2972637Y3680047D1*
X2973493Y3679474D1*
X2974268Y3678795D1*
X2974947Y3678021D1*
X2975519Y3677165D1*
X2975975Y3676241D1*
X2976306Y3675266D1*
X2976507Y3674255D1*
X2976574Y3673228D1*
X2976507Y3672200D1*
X2976306Y3671190D1*
X2975975Y3670214D1*
X2975519Y3669291D1*
X2974947Y3668434D1*
X2974268Y3667660D1*
X2973493Y3666981D1*
X2972637Y3666408D1*
X2971713Y3665953D1*
X2970738Y3665622D1*
X2969728Y3665421D1*
X2968700Y3665354D1*
D1*
G37*
X2811220Y3146850D2*
D10*
Y3540550D1*
X3106495Y3146850D2*
X2811220D1*
X3106495Y3540550D2*
Y3146850D1*
X2811220Y3540550D2*
X3106495D1*
G36*
X2968700Y3115354D2*
X2967672Y3115421D1*
X2966662Y3115622D1*
X2965687Y3115953D1*
X2964763Y3116408D1*
X2963907Y3116981D1*
X2963132Y3117660D1*
X2962453Y3118434D1*
X2961881Y3119291D1*
X2961425Y3120214D1*
X2961094Y3121190D1*
X2960893Y3122200D1*
X2960826Y3123228D1*
X2960893Y3124255D1*
X2961094Y3125266D1*
X2961425Y3126241D1*
X2961881Y3127165D1*
X2962453Y3128021D1*
X2963132Y3128795D1*
X2963907Y3129474D1*
X2964763Y3130047D1*
X2965687Y3130502D1*
X2966662Y3130833D1*
X2967672Y3131034D1*
X2968700Y3131102D1*
D1*
X2969728Y3131034D1*
X2970738Y3130833D1*
X2971713Y3130502D1*
X2972637Y3130047D1*
X2973493Y3129474D1*
X2974268Y3128795D1*
X2974947Y3128021D1*
X2975519Y3127165D1*
X2975975Y3126241D1*
X2976306Y3125266D1*
X2976507Y3124255D1*
X2976574Y3123228D1*
X2976507Y3122200D1*
X2976306Y3121190D1*
X2975975Y3120214D1*
X2975519Y3119291D1*
X2974947Y3118434D1*
X2974268Y3117660D1*
X2973493Y3116981D1*
X2972637Y3116408D1*
X2971713Y3115953D1*
X2970738Y3115622D1*
X2969728Y3115421D1*
X2968700Y3115354D1*
D1*
G37*
X593707Y3893762D2*
D10*
Y4043638D1*
X593931Y3893462D2*
G03X593931Y4043938I99796J75238D01*
G01*
X851180Y940550D2*
Y546850D1*
X555905Y940550D2*
X851180D1*
X555905Y546850D2*
Y940550D1*
X851180Y546850D2*
X555905D1*
G36*
X693700Y972046D2*
X694728Y971979D1*
X695738Y971778D1*
X696713Y971447D1*
X697637Y970992D1*
X698493Y970419D1*
X699268Y969740D1*
X699947Y968966D1*
X700519Y968109D1*
X700975Y967186D1*
X701306Y966210D1*
X701507Y965200D1*
X701574Y964172D1*
X701507Y963145D1*
X701306Y962134D1*
X700975Y961159D1*
X700519Y960235D1*
X699947Y959379D1*
X699268Y958605D1*
X698493Y957926D1*
X697637Y957353D1*
X696713Y956898D1*
X695738Y956567D1*
X694728Y956366D1*
X693700Y956298D1*
D1*
X692672Y956366D1*
X691662Y956567D1*
X690687Y956898D1*
X689763Y957353D1*
X688907Y957926D1*
X688132Y958605D1*
X687453Y959379D1*
X686881Y960235D1*
X686425Y961159D1*
X686094Y962134D1*
X685893Y963145D1*
X685826Y964172D1*
X685893Y965200D1*
X686094Y966210D1*
X686425Y967186D1*
X686881Y968109D1*
X687453Y968966D1*
X688132Y969740D1*
X688907Y970419D1*
X689763Y970992D1*
X690687Y971447D1*
X691662Y971778D1*
X692672Y971979D1*
X693700Y972046D1*
D1*
G37*
X851180Y1465550D2*
D10*
Y1071850D1*
X555905Y1465550D2*
X851180D1*
X555905Y1071850D2*
Y1465550D1*
X851180Y1071850D2*
X555905D1*
G36*
X693700Y1497046D2*
X694728Y1496979D1*
X695738Y1496778D1*
X696713Y1496447D1*
X697637Y1495992D1*
X698493Y1495419D1*
X699268Y1494740D1*
X699947Y1493966D1*
X700519Y1493109D1*
X700975Y1492186D1*
X701306Y1491210D1*
X701507Y1490200D1*
X701574Y1489172D1*
X701507Y1488145D1*
X701306Y1487134D1*
X700975Y1486159D1*
X700519Y1485235D1*
X699947Y1484379D1*
X699268Y1483605D1*
X698493Y1482926D1*
X697637Y1482353D1*
X696713Y1481898D1*
X695738Y1481567D1*
X694728Y1481366D1*
X693700Y1481298D1*
D1*
X692672Y1481366D1*
X691662Y1481567D1*
X690687Y1481898D1*
X689763Y1482353D1*
X688907Y1482926D1*
X688132Y1483605D1*
X687453Y1484379D1*
X686881Y1485235D1*
X686425Y1486159D1*
X686094Y1487134D1*
X685893Y1488145D1*
X685826Y1489172D1*
X685893Y1490200D1*
X686094Y1491210D1*
X686425Y1492186D1*
X686881Y1493109D1*
X687453Y1493966D1*
X688132Y1494740D1*
X688907Y1495419D1*
X689763Y1495992D1*
X690687Y1496447D1*
X691662Y1496778D1*
X692672Y1496979D1*
X693700Y1497046D1*
D1*
G37*
X851180Y1990550D2*
D10*
Y1596850D1*
X555905Y1990550D2*
X851180D1*
X555905Y1596850D2*
Y1990550D1*
X851180Y1596850D2*
X555905D1*
G36*
X693700Y2022046D2*
X694728Y2021979D1*
X695738Y2021778D1*
X696713Y2021447D1*
X697637Y2020992D1*
X698493Y2020419D1*
X699268Y2019740D1*
X699947Y2018966D1*
X700519Y2018109D1*
X700975Y2017186D1*
X701306Y2016210D1*
X701507Y2015200D1*
X701574Y2014172D1*
X701507Y2013145D1*
X701306Y2012134D1*
X700975Y2011159D1*
X700519Y2010235D1*
X699947Y2009379D1*
X699268Y2008605D1*
X698493Y2007926D1*
X697637Y2007353D1*
X696713Y2006898D1*
X695738Y2006567D1*
X694728Y2006366D1*
X693700Y2006298D1*
D1*
X692672Y2006366D1*
X691662Y2006567D1*
X690687Y2006898D1*
X689763Y2007353D1*
X688907Y2007926D1*
X688132Y2008605D1*
X687453Y2009379D1*
X686881Y2010235D1*
X686425Y2011159D1*
X686094Y2012134D1*
X685893Y2013145D1*
X685826Y2014172D1*
X685893Y2015200D1*
X686094Y2016210D1*
X686425Y2017186D1*
X686881Y2018109D1*
X687453Y2018966D1*
X688132Y2019740D1*
X688907Y2020419D1*
X689763Y2020992D1*
X690687Y2021447D1*
X691662Y2021778D1*
X692672Y2021979D1*
X693700Y2022046D1*
D1*
G37*
X851180Y2515550D2*
D10*
Y2121850D1*
X555905Y2515550D2*
X851180D1*
X555905Y2121850D2*
Y2515550D1*
X851180Y2121850D2*
X555905D1*
G36*
X693700Y2547046D2*
X694728Y2546979D1*
X695738Y2546778D1*
X696713Y2546447D1*
X697637Y2545992D1*
X698493Y2545419D1*
X699268Y2544740D1*
X699947Y2543966D1*
X700519Y2543109D1*
X700975Y2542186D1*
X701306Y2541210D1*
X701507Y2540200D1*
X701574Y2539172D1*
X701507Y2538145D1*
X701306Y2537134D1*
X700975Y2536159D1*
X700519Y2535235D1*
X699947Y2534379D1*
X699268Y2533605D1*
X698493Y2532926D1*
X697637Y2532353D1*
X696713Y2531898D1*
X695738Y2531567D1*
X694728Y2531366D1*
X693700Y2531298D1*
D1*
X692672Y2531366D1*
X691662Y2531567D1*
X690687Y2531898D1*
X689763Y2532353D1*
X688907Y2532926D1*
X688132Y2533605D1*
X687453Y2534379D1*
X686881Y2535235D1*
X686425Y2536159D1*
X686094Y2537134D1*
X685893Y2538145D1*
X685826Y2539172D1*
X685893Y2540200D1*
X686094Y2541210D1*
X686425Y2542186D1*
X686881Y2543109D1*
X687453Y2543966D1*
X688132Y2544740D1*
X688907Y2545419D1*
X689763Y2545992D1*
X690687Y2546447D1*
X691662Y2546778D1*
X692672Y2546979D1*
X693700Y2547046D1*
D1*
G37*
X851180Y3040550D2*
D10*
Y2646850D1*
X555905Y3040550D2*
X851180D1*
X555905Y2646850D2*
Y3040550D1*
X851180Y2646850D2*
X555905D1*
G36*
X693700Y3072046D2*
X694728Y3071979D1*
X695738Y3071778D1*
X696713Y3071447D1*
X697637Y3070992D1*
X698493Y3070419D1*
X699268Y3069740D1*
X699947Y3068966D1*
X700519Y3068109D1*
X700975Y3067186D1*
X701306Y3066210D1*
X701507Y3065200D1*
X701574Y3064172D1*
X701507Y3063145D1*
X701306Y3062134D1*
X700975Y3061159D1*
X700519Y3060235D1*
X699947Y3059379D1*
X699268Y3058605D1*
X698493Y3057926D1*
X697637Y3057353D1*
X696713Y3056898D1*
X695738Y3056567D1*
X694728Y3056366D1*
X693700Y3056298D1*
D1*
X692672Y3056366D1*
X691662Y3056567D1*
X690687Y3056898D1*
X689763Y3057353D1*
X688907Y3057926D1*
X688132Y3058605D1*
X687453Y3059379D1*
X686881Y3060235D1*
X686425Y3061159D1*
X686094Y3062134D1*
X685893Y3063145D1*
X685826Y3064172D1*
X685893Y3065200D1*
X686094Y3066210D1*
X686425Y3067186D1*
X686881Y3068109D1*
X687453Y3068966D1*
X688132Y3069740D1*
X688907Y3070419D1*
X689763Y3070992D1*
X690687Y3071447D1*
X691662Y3071778D1*
X692672Y3071979D1*
X693700Y3072046D1*
D1*
G37*
X851180Y3565550D2*
D10*
Y3171850D1*
X555905Y3565550D2*
X851180D1*
X555905Y3171850D2*
Y3565550D1*
X851180Y3171850D2*
X555905D1*
G36*
X693700Y3597046D2*
X694728Y3596979D1*
X695738Y3596778D1*
X696713Y3596447D1*
X697637Y3595992D1*
X698493Y3595419D1*
X699268Y3594740D1*
X699947Y3593966D1*
X700519Y3593109D1*
X700975Y3592186D1*
X701306Y3591210D1*
X701507Y3590200D1*
X701574Y3589172D1*
X701507Y3588145D1*
X701306Y3587134D1*
X700975Y3586159D1*
X700519Y3585235D1*
X699947Y3584379D1*
X699268Y3583605D1*
X698493Y3582926D1*
X697637Y3582353D1*
X696713Y3581898D1*
X695738Y3581567D1*
X694728Y3581366D1*
X693700Y3581298D1*
D1*
X692672Y3581366D1*
X691662Y3581567D1*
X690687Y3581898D1*
X689763Y3582353D1*
X688907Y3582926D1*
X688132Y3583605D1*
X687453Y3584379D1*
X686881Y3585235D1*
X686425Y3586159D1*
X686094Y3587134D1*
X685893Y3588145D1*
X685826Y3589172D1*
X685893Y3590200D1*
X686094Y3591210D1*
X686425Y3592186D1*
X686881Y3593109D1*
X687453Y3593966D1*
X688132Y3594740D1*
X688907Y3595419D1*
X689763Y3595992D1*
X690687Y3596447D1*
X691662Y3596778D1*
X692672Y3596979D1*
X693700Y3597046D1*
D1*
G37*
X1268700Y1343700D2*
D10*
Y543700D1*
X2068700D2*
Y1343700D1*
G36*
X1360826Y1366075D2*
X1360893Y1367103D1*
X1361094Y1368113D1*
X1361425Y1369089D1*
X1361881Y1370012D1*
X1362453Y1370869D1*
X1363132Y1371643D1*
X1363907Y1372322D1*
X1364763Y1372894D1*
X1365687Y1373350D1*
X1366662Y1373681D1*
X1367672Y1373882D1*
X1368700Y1373949D1*
X1369728Y1373882D1*
X1370738Y1373681D1*
X1371713Y1373350D1*
X1372637Y1372894D1*
X1373493Y1372322D1*
X1374268Y1371643D1*
X1374947Y1370869D1*
X1375519Y1370012D1*
X1375975Y1369089D1*
X1376306Y1368113D1*
X1376507Y1367103D1*
X1376574Y1366075D1*
D1*
X1376507Y1365048D1*
X1376306Y1364037D1*
X1375975Y1363062D1*
X1375519Y1362138D1*
X1374947Y1361282D1*
X1374268Y1360508D1*
X1373493Y1359828D1*
X1372637Y1359256D1*
X1371713Y1358801D1*
X1370738Y1358470D1*
X1369728Y1358269D1*
X1368700Y1358201D1*
X1367672Y1358269D1*
X1366662Y1358470D1*
X1365687Y1358801D1*
X1364763Y1359256D1*
X1363907Y1359828D1*
X1363132Y1360508D1*
X1362453Y1361282D1*
X1361881Y1362138D1*
X1361425Y1363062D1*
X1361094Y1364037D1*
X1360893Y1365048D1*
X1360826Y1366075D1*
D1*
G37*
X1412794Y543700D2*
D10*
X1924606D1*
X1412794Y1343700D2*
X1924606D1*
X1318700D2*
X1268700D1*
X2018700D2*
X2068700D1*
X1318700Y543700D2*
X1268700D1*
X2018700D2*
X2068700D1*
X1268700Y2368700D2*
Y1568700D1*
X2068700D2*
Y2368700D1*
G36*
X1360826Y2391075D2*
X1360893Y2392103D1*
X1361094Y2393113D1*
X1361425Y2394089D1*
X1361881Y2395012D1*
X1362453Y2395869D1*
X1363132Y2396643D1*
X1363907Y2397322D1*
X1364763Y2397894D1*
X1365687Y2398350D1*
X1366662Y2398681D1*
X1367672Y2398882D1*
X1368700Y2398949D1*
X1369728Y2398882D1*
X1370738Y2398681D1*
X1371713Y2398350D1*
X1372637Y2397894D1*
X1373493Y2397322D1*
X1374268Y2396643D1*
X1374947Y2395869D1*
X1375519Y2395012D1*
X1375975Y2394089D1*
X1376306Y2393113D1*
X1376507Y2392103D1*
X1376574Y2391075D1*
D1*
X1376507Y2390048D1*
X1376306Y2389037D1*
X1375975Y2388062D1*
X1375519Y2387138D1*
X1374947Y2386282D1*
X1374268Y2385508D1*
X1373493Y2384828D1*
X1372637Y2384256D1*
X1371713Y2383801D1*
X1370738Y2383470D1*
X1369728Y2383269D1*
X1368700Y2383201D1*
X1367672Y2383269D1*
X1366662Y2383470D1*
X1365687Y2383801D1*
X1364763Y2384256D1*
X1363907Y2384828D1*
X1363132Y2385508D1*
X1362453Y2386282D1*
X1361881Y2387138D1*
X1361425Y2388062D1*
X1361094Y2389037D1*
X1360893Y2390048D1*
X1360826Y2391075D1*
D1*
G37*
X1412794Y1568700D2*
D10*
X1924606D1*
X1412794Y2368700D2*
X1924606D1*
X1318700D2*
X1268700D1*
X2018700D2*
X2068700D1*
X1318700Y1568700D2*
X1268700D1*
X2018700D2*
X2068700D1*
X1268700Y3393700D2*
Y2593700D1*
X2068700D2*
Y3393700D1*
G36*
X1360826Y3416075D2*
X1360893Y3417103D1*
X1361094Y3418113D1*
X1361425Y3419089D1*
X1361881Y3420012D1*
X1362453Y3420869D1*
X1363132Y3421643D1*
X1363907Y3422322D1*
X1364763Y3422894D1*
X1365687Y3423350D1*
X1366662Y3423681D1*
X1367672Y3423882D1*
X1368700Y3423949D1*
X1369728Y3423882D1*
X1370738Y3423681D1*
X1371713Y3423350D1*
X1372637Y3422894D1*
X1373493Y3422322D1*
X1374268Y3421643D1*
X1374947Y3420869D1*
X1375519Y3420012D1*
X1375975Y3419089D1*
X1376306Y3418113D1*
X1376507Y3417103D1*
X1376574Y3416075D1*
D1*
X1376507Y3415048D1*
X1376306Y3414037D1*
X1375975Y3413062D1*
X1375519Y3412138D1*
X1374947Y3411282D1*
X1374268Y3410508D1*
X1373493Y3409828D1*
X1372637Y3409256D1*
X1371713Y3408801D1*
X1370738Y3408470D1*
X1369728Y3408269D1*
X1368700Y3408201D1*
X1367672Y3408269D1*
X1366662Y3408470D1*
X1365687Y3408801D1*
X1364763Y3409256D1*
X1363907Y3409828D1*
X1363132Y3410508D1*
X1362453Y3411282D1*
X1361881Y3412138D1*
X1361425Y3413062D1*
X1361094Y3414037D1*
X1360893Y3415048D1*
X1360826Y3416075D1*
D1*
G37*
X1412794Y2593700D2*
D10*
X1924606D1*
X1412794Y3393700D2*
X1924606D1*
X1318700D2*
X1268700D1*
X2018700D2*
X2068700D1*
X1318700Y2593700D2*
X1268700D1*
X2018700D2*
X2068700D1*
X1170275Y4010039D2*
D20*
X1145865D1*
Y3927361D1*
X1170275D1*
X1267125Y4010039D2*
X1291535D1*
Y3927361D1*
X1267125D1*
X1097440Y3968700D2*
X1145865D1*
X1291535D2*
X1339960D1*
X2490550Y3811220D2*
D10*
X2096850D1*
X2490550Y4106495D2*
Y3811220D1*
X2096850Y4106495D2*
X2490550D1*
X2096850Y3811220D2*
Y4106495D1*
G36*
X2522046Y3968700D2*
X2521979Y3967672D1*
X2521778Y3966662D1*
X2521447Y3965687D1*
X2520992Y3964763D1*
X2520419Y3963907D1*
X2519740Y3963132D1*
X2518966Y3962453D1*
X2518109Y3961881D1*
X2517186Y3961425D1*
X2516210Y3961094D1*
X2515200Y3960893D1*
X2514172Y3960826D1*
X2513145Y3960893D1*
X2512134Y3961094D1*
X2511159Y3961425D1*
X2510235Y3961881D1*
X2509379Y3962453D1*
X2508605Y3963132D1*
X2507926Y3963907D1*
X2507353Y3964763D1*
X2506898Y3965687D1*
X2506567Y3966662D1*
X2506366Y3967672D1*
X2506298Y3968700D1*
D1*
X2506366Y3969728D1*
X2506567Y3970738D1*
X2506898Y3971713D1*
X2507353Y3972637D1*
X2507926Y3973493D1*
X2508605Y3974268D1*
X2509379Y3974947D1*
X2510235Y3975519D1*
X2511159Y3975975D1*
X2512134Y3976306D1*
X2513145Y3976507D1*
X2514172Y3976574D1*
X2515200Y3976507D1*
X2516210Y3976306D1*
X2517186Y3975975D1*
X2518109Y3975519D1*
X2518966Y3974947D1*
X2519740Y3974268D1*
X2520419Y3973493D1*
X2520992Y3972637D1*
X2521447Y3971713D1*
X2521778Y3970738D1*
X2521979Y3969728D1*
X2522046Y3968700D1*
D1*
G37*
X2418700Y568700D2*
D10*
Y2968700D1*
X3118700D1*
Y568700D1*
X2927361D2*
Y541141D1*
X2610039Y568700D2*
Y541141D1*
X2927361D2*
X2610039D1*
X3118700Y568700D2*
X2927361D1*
X2418700D2*
X2610039D1*
G36*
X3142716Y810826D2*
X3141688Y810893D1*
X3140678Y811094D1*
X3139702Y811425D1*
X3138779Y811881D1*
X3137922Y812453D1*
X3137148Y813132D1*
X3136469Y813907D1*
X3135897Y814763D1*
X3135441Y815687D1*
X3135110Y816662D1*
X3134909Y817672D1*
X3134842Y818700D1*
X3134909Y819728D1*
X3135110Y820738D1*
X3135441Y821713D1*
X3135897Y822637D1*
X3136469Y823493D1*
X3137148Y824268D1*
X3137922Y824947D1*
X3138779Y825519D1*
X3139702Y825975D1*
X3140678Y826306D1*
X3141688Y826507D1*
X3142716Y826574D1*
D1*
X3143744Y826507D1*
X3144754Y826306D1*
X3145729Y825975D1*
X3146653Y825519D1*
X3147509Y824947D1*
X3148284Y824268D1*
X3148963Y823493D1*
X3149535Y822637D1*
X3149990Y821713D1*
X3150321Y820738D1*
X3150522Y819728D1*
X3150590Y818700D1*
X3150522Y817672D1*
X3150321Y816662D1*
X3149990Y815687D1*
X3149535Y814763D1*
X3148963Y813907D1*
X3148284Y813132D1*
X3147509Y812453D1*
X3146653Y811881D1*
X3145729Y811425D1*
X3144754Y811094D1*
X3143744Y810893D1*
X3142716Y810826D1*
D1*
G37*
X3243700Y4168700D2*
D10*
Y3068700D1*
X2593700D1*
Y3143700D1*
X2343700D1*
Y3643700D1*
X2593700D1*
Y4168700D1*
X3243700D1*
X458083Y2983684D2*
D53*
X498275Y2999027D1*
X458083Y3014326D1*
X471481Y3008578D2*
Y2989432D1*
X498275Y2954690D2*
X496374Y2958537D1*
X492527Y2962340D1*
X488725Y2964285D1*
X482977Y2966186D1*
X473382D1*
X467678Y2964285D1*
X463831Y2962340D1*
X460029Y2958537D1*
X458083Y2954690D1*
Y2947041D1*
X460029Y2943238D1*
X463831Y2939392D1*
X467678Y2937490D1*
X473382Y2935589D1*
X482977D1*
X488725Y2937490D1*
X492527Y2939392D1*
X496374Y2943238D1*
X498275Y2947041D1*
Y2954690D1*
X490582Y2918091D2*
X492527Y2914245D1*
X498231Y2908496D1*
X458083D1*
Y2783684D2*
X498275Y2799027D1*
X458083Y2814326D1*
X471481Y2808578D2*
Y2789432D1*
X498275Y2754690D2*
X496374Y2758537D1*
X492527Y2762340D1*
X488725Y2764285D1*
X482977Y2766186D1*
X473382D1*
X467678Y2764285D1*
X463831Y2762340D1*
X460029Y2758537D1*
X458083Y2754690D1*
Y2747041D1*
X460029Y2743238D1*
X463831Y2739392D1*
X467678Y2737490D1*
X473382Y2735589D1*
X482977D1*
X488725Y2737490D1*
X492527Y2739392D1*
X496374Y2743238D1*
X498275Y2747041D1*
Y2754690D1*
X488680Y2716146D2*
X490582D1*
X494429Y2714245D1*
X496330Y2712343D1*
X498231Y2708496D1*
Y2700847D1*
X496330Y2697045D1*
X494429Y2695143D1*
X490582Y2693198D1*
X486779D1*
X482932Y2695143D1*
X477229Y2698946D1*
X458083Y2718091D1*
Y2691297D1*
X498275Y3539326D2*
X458083D1*
Y3522081D1*
X460029Y3516333D1*
X461930Y3514432D1*
X465733Y3512531D1*
X471481D1*
X475327Y3514432D1*
X477229Y3516333D1*
X479130Y3522081D1*
X481075Y3516333D1*
X482977Y3514432D1*
X486779Y3512531D1*
X490626D1*
X494429Y3514432D1*
X496374Y3516333D1*
X498275Y3522081D1*
Y3539326D1*
X479130D2*
Y3522081D1*
X498275Y3483537D2*
X496374Y3487384D1*
X492527Y3491186D1*
X488725Y3493132D1*
X482977Y3495033D1*
X473382D1*
X467678Y3493132D1*
X463831Y3491186D1*
X460029Y3487384D1*
X458083Y3483537D1*
Y3475888D1*
X460029Y3472085D1*
X463831Y3468238D1*
X467678Y3466337D1*
X473382Y3464436D1*
X482977D1*
X488725Y3466337D1*
X492527Y3468238D1*
X496374Y3472085D1*
X498275Y3475888D1*
Y3483537D1*
X490582Y3446938D2*
X492527Y3443091D1*
X498231Y3437343D1*
X458083D1*
X498275Y3339326D2*
X458083D1*
Y3322081D1*
X460029Y3316333D1*
X461930Y3314432D1*
X465733Y3312531D1*
X471481D1*
X475327Y3314432D1*
X477229Y3316333D1*
X479130Y3322081D1*
X481075Y3316333D1*
X482977Y3314432D1*
X486779Y3312531D1*
X490626D1*
X494429Y3314432D1*
X496374Y3316333D1*
X498275Y3322081D1*
Y3339326D1*
X479130D2*
Y3322081D1*
X498275Y3283537D2*
X496374Y3287384D1*
X492527Y3291186D1*
X488725Y3293132D1*
X482977Y3295033D1*
X473382D1*
X467678Y3293132D1*
X463831Y3291186D1*
X460029Y3287384D1*
X458083Y3283537D1*
Y3275888D1*
X460029Y3272085D1*
X463831Y3268238D1*
X467678Y3266337D1*
X473382Y3264436D1*
X482977D1*
X488725Y3266337D1*
X492527Y3268238D1*
X496374Y3272085D1*
X498275Y3275888D1*
Y3283537D1*
X488680Y3244993D2*
X490582D1*
X494429Y3243091D1*
X496330Y3241190D1*
X498231Y3237343D1*
Y3229694D1*
X496330Y3225891D1*
X494429Y3223990D1*
X490582Y3222045D1*
X486779D1*
X482932Y3223990D1*
X477229Y3227793D1*
X458083Y3246938D1*
Y3220143D1*
Y1733684D2*
X498275Y1749027D1*
X458083Y1764326D1*
X471481Y1758578D2*
Y1739432D1*
X498275Y1704690D2*
X496374Y1708537D1*
X492527Y1712340D1*
X488725Y1714285D1*
X482977Y1716186D1*
X473382D1*
X467678Y1714285D1*
X463831Y1712340D1*
X460029Y1708537D1*
X458083Y1704690D1*
Y1697041D1*
X460029Y1693238D1*
X463831Y1689392D1*
X467678Y1687490D1*
X473382Y1685589D1*
X482977D1*
X488725Y1687490D1*
X492527Y1689392D1*
X496374Y1693238D1*
X498275Y1697041D1*
Y1704690D1*
X488680Y1666146D2*
X490582D1*
X494429Y1664245D1*
X496330Y1662343D1*
X498231Y1658496D1*
Y1650847D1*
X496330Y1647045D1*
X494429Y1645143D1*
X490582Y1643198D1*
X486779D1*
X482932Y1645143D1*
X477229Y1648946D1*
X458083Y1668091D1*
Y1641297D1*
Y1933684D2*
X498275Y1949027D1*
X458083Y1964326D1*
X471481Y1958578D2*
Y1939432D1*
X498275Y1904690D2*
X496374Y1908537D1*
X492527Y1912340D1*
X488725Y1914285D1*
X482977Y1916186D1*
X473382D1*
X467678Y1914285D1*
X463831Y1912340D1*
X460029Y1908537D1*
X458083Y1904690D1*
Y1897041D1*
X460029Y1893238D1*
X463831Y1889392D1*
X467678Y1887490D1*
X473382Y1885589D1*
X482977D1*
X488725Y1887490D1*
X492527Y1889392D1*
X496374Y1893238D1*
X498275Y1897041D1*
Y1904690D1*
X490582Y1868091D2*
X492527Y1864245D1*
X498231Y1858496D1*
X458083D1*
X498275Y2489326D2*
X458083D1*
Y2472081D1*
X460029Y2466333D1*
X461930Y2464432D1*
X465733Y2462531D1*
X471481D1*
X475327Y2464432D1*
X477229Y2466333D1*
X479130Y2472081D1*
X481075Y2466333D1*
X482977Y2464432D1*
X486779Y2462531D1*
X490626D1*
X494429Y2464432D1*
X496374Y2466333D1*
X498275Y2472081D1*
Y2489326D1*
X479130D2*
Y2472081D1*
X498275Y2433537D2*
X496374Y2437384D1*
X492527Y2441186D1*
X488725Y2443132D1*
X482977Y2445033D1*
X473382D1*
X467678Y2443132D1*
X463831Y2441186D1*
X460029Y2437384D1*
X458083Y2433537D1*
Y2425888D1*
X460029Y2422085D1*
X463831Y2418238D1*
X467678Y2416337D1*
X473382Y2414436D1*
X482977D1*
X488725Y2416337D1*
X492527Y2418238D1*
X496374Y2422085D1*
X498275Y2425888D1*
Y2433537D1*
X490582Y2396938D2*
X492527Y2393091D1*
X498231Y2387343D1*
X458083D1*
X498275Y2289326D2*
X458083D1*
Y2272081D1*
X460029Y2266333D1*
X461930Y2264432D1*
X465733Y2262531D1*
X471481D1*
X475327Y2264432D1*
X477229Y2266333D1*
X479130Y2272081D1*
X481075Y2266333D1*
X482977Y2264432D1*
X486779Y2262531D1*
X490626D1*
X494429Y2264432D1*
X496374Y2266333D1*
X498275Y2272081D1*
Y2289326D1*
X479130D2*
Y2272081D1*
X498275Y2233537D2*
X496374Y2237384D1*
X492527Y2241186D1*
X488725Y2243132D1*
X482977Y2245033D1*
X473382D1*
X467678Y2243132D1*
X463831Y2241186D1*
X460029Y2237384D1*
X458083Y2233537D1*
Y2225888D1*
X460029Y2222085D1*
X463831Y2218238D1*
X467678Y2216337D1*
X473382Y2214436D1*
X482977D1*
X488725Y2216337D1*
X492527Y2218238D1*
X496374Y2222085D1*
X498275Y2225888D1*
Y2233537D1*
X488680Y2194993D2*
X490582D1*
X494429Y2193091D1*
X496330Y2191190D1*
X498231Y2187343D1*
Y2179694D1*
X496330Y2175891D1*
X494429Y2173990D1*
X490582Y2172045D1*
X486779D1*
X482932Y2173990D1*
X477229Y2177793D1*
X458083Y2196938D1*
Y2170143D1*
X498275Y1439326D2*
X458083D1*
Y1422081D1*
X460029Y1416333D1*
X461930Y1414432D1*
X465733Y1412531D1*
X471481D1*
X475327Y1414432D1*
X477229Y1416333D1*
X479130Y1422081D1*
X481075Y1416333D1*
X482977Y1414432D1*
X486779Y1412531D1*
X490626D1*
X494429Y1414432D1*
X496374Y1416333D1*
X498275Y1422081D1*
Y1439326D1*
X479130D2*
Y1422081D1*
X498275Y1383537D2*
X496374Y1387384D1*
X492527Y1391186D1*
X488725Y1393132D1*
X482977Y1395033D1*
X473382D1*
X467678Y1393132D1*
X463831Y1391186D1*
X460029Y1387384D1*
X458083Y1383537D1*
Y1375888D1*
X460029Y1372085D1*
X463831Y1368238D1*
X467678Y1366337D1*
X473382Y1364436D1*
X482977D1*
X488725Y1366337D1*
X492527Y1368238D1*
X496374Y1372085D1*
X498275Y1375888D1*
Y1383537D1*
X490582Y1346938D2*
X492527Y1343091D1*
X498231Y1337343D1*
X458083D1*
X498275Y1239326D2*
X458083D1*
Y1222081D1*
X460029Y1216333D1*
X461930Y1214432D1*
X465733Y1212531D1*
X471481D1*
X475327Y1214432D1*
X477229Y1216333D1*
X479130Y1222081D1*
X481075Y1216333D1*
X482977Y1214432D1*
X486779Y1212531D1*
X490626D1*
X494429Y1214432D1*
X496374Y1216333D1*
X498275Y1222081D1*
Y1239326D1*
X479130D2*
Y1222081D1*
X498275Y1183537D2*
X496374Y1187384D1*
X492527Y1191186D1*
X488725Y1193132D1*
X482977Y1195033D1*
X473382D1*
X467678Y1193132D1*
X463831Y1191186D1*
X460029Y1187384D1*
X458083Y1183537D1*
Y1175888D1*
X460029Y1172085D1*
X463831Y1168238D1*
X467678Y1166337D1*
X473382Y1164436D1*
X482977D1*
X488725Y1166337D1*
X492527Y1168238D1*
X496374Y1172085D1*
X498275Y1175888D1*
Y1183537D1*
X488680Y1144993D2*
X490582D1*
X494429Y1143091D1*
X496330Y1141190D1*
X498231Y1137343D1*
Y1129694D1*
X496330Y1125891D1*
X494429Y1123990D1*
X490582Y1122045D1*
X486779D1*
X482932Y1123990D1*
X477229Y1127793D1*
X458083Y1146938D1*
Y1120143D1*
Y883684D2*
X498275Y899027D1*
X458083Y914326D1*
X471481Y908578D2*
Y889432D1*
X498275Y854690D2*
X496374Y858537D1*
X492527Y862340D1*
X488725Y864285D1*
X482977Y866186D1*
X473382D1*
X467678Y864285D1*
X463831Y862340D1*
X460029Y858537D1*
X458083Y854690D1*
Y847041D1*
X460029Y843238D1*
X463831Y839392D1*
X467678Y837490D1*
X473382Y835589D1*
X482977D1*
X488725Y837490D1*
X492527Y839392D1*
X496374Y843238D1*
X498275Y847041D1*
Y854690D1*
X490582Y818091D2*
X492527Y814245D1*
X498231Y808496D1*
X458083D1*
Y683684D2*
X498275Y699027D1*
X458083Y714326D1*
X471481Y708578D2*
Y689432D1*
X498275Y654690D2*
X496374Y658537D1*
X492527Y662340D1*
X488725Y664285D1*
X482977Y666186D1*
X473382D1*
X467678Y664285D1*
X463831Y662340D1*
X460029Y658537D1*
X458083Y654690D1*
Y647041D1*
X460029Y643238D1*
X463831Y639392D1*
X467678Y637490D1*
X473382Y635589D1*
X482977D1*
X488725Y637490D1*
X492527Y639392D1*
X496374Y643238D1*
X498275Y647041D1*
Y654690D1*
X488680Y616146D2*
X490582D1*
X494429Y614245D1*
X496330Y612343D1*
X498231Y608496D1*
Y600847D1*
X496330Y597045D1*
X494429Y595143D1*
X490582Y593198D1*
X486779D1*
X482932Y595143D1*
X477229Y598946D1*
X458083Y618091D1*
Y591297D1*
X3173675Y3976770D2*
X3169873Y3974869D1*
X3166026Y3971022D1*
X3164125Y3967220D1*
Y3959571D1*
X3166026Y3955724D1*
X3169873Y3951921D1*
X3173675Y3949976D1*
X3179423Y3948074D1*
X3189018D1*
X3194722Y3949976D1*
X3198569Y3951921D1*
X3202371Y3955724D1*
X3204317Y3959571D1*
Y3967220D1*
X3202371Y3971022D1*
X3198569Y3974869D1*
X3194722Y3976770D1*
X3189018D1*
Y3967220D1*
X3164125Y4021063D2*
X3204317D1*
X3164125Y3994268D1*
X3204317D1*
X3164125Y4038561D2*
X3204317D1*
Y4051958D1*
X3202371Y4057706D1*
X3198569Y4061553D1*
X3194722Y4063454D1*
X3189018Y4065355D1*
X3179423D1*
X3173675Y4063454D1*
X3169873Y4061553D1*
X3166026Y4057706D1*
X3164125Y4051958D1*
Y4038561D1*
X3173675Y3426770D2*
X3169873Y3424869D1*
X3166026Y3421022D1*
X3164125Y3417220D1*
Y3409571D1*
X3166026Y3405724D1*
X3169873Y3401921D1*
X3173675Y3399976D1*
X3179423Y3398074D1*
X3189018D1*
X3194722Y3399976D1*
X3198569Y3401921D1*
X3202371Y3405724D1*
X3204317Y3409571D1*
Y3417220D1*
X3202371Y3421022D1*
X3198569Y3424869D1*
X3194722Y3426770D1*
X3189018D1*
Y3417220D1*
X3164125Y3471063D2*
X3204317D1*
X3164125Y3444268D1*
X3204317D1*
X3164125Y3488561D2*
X3204317D1*
Y3501958D1*
X3202371Y3507706D1*
X3198569Y3511553D1*
X3194722Y3513454D1*
X3189018Y3515355D1*
X3179423D1*
X3173675Y3513454D1*
X3169873Y3511553D1*
X3166026Y3507706D1*
X3164125Y3501958D1*
Y3488561D1*
X2289326Y4164125D2*
X2274027Y4204317D1*
X2258728Y4164125D1*
X2210633Y4204317D2*
Y4164125D1*
X2225932Y4204317D1*
X2241231Y4164125D1*
Y4204317D1*
X2183585Y4177522D2*
X2187387Y4179423D1*
X2191234Y4183270D1*
X2193135Y4189018D1*
Y4192821D1*
X2191234Y4198569D1*
X2187387Y4202371D1*
X2183585Y4204317D1*
X2177837D1*
X2173990Y4202371D1*
X2170188Y4198569D1*
X2168242Y4192821D1*
Y4189018D1*
X2170188Y4183270D1*
X2173990Y4179423D1*
X2177837Y4177522D1*
X2183585D1*
X2150744D2*
Y4196667D1*
X2148843Y4202371D1*
X2144996Y4204317D1*
X2139248D1*
X2135446Y4202371D1*
X2129698Y4196667D1*
Y4177522D2*
Y4204317D1*
X2106452Y4164125D2*
Y4196667D1*
X2104551Y4202371D1*
X2100704Y4204317D1*
X2096901D1*
X2112200Y4177522D2*
X2098802D1*
X1710630Y4173675D2*
X1712531Y4169873D1*
X1716378Y4166026D1*
X1720180Y4164125D1*
X1727829D1*
X1731676Y4166026D1*
X1735479Y4169873D1*
X1737424Y4173675D1*
X1739326Y4179423D1*
Y4189018D1*
X1737424Y4194722D1*
X1735479Y4198569D1*
X1731676Y4202371D1*
X1727829Y4204317D1*
X1720180D1*
X1716378Y4202371D1*
X1712531Y4198569D1*
X1710630Y4194722D1*
Y4189018D1*
X1720180D1*
X1666337Y4164125D2*
Y4204317D1*
X1693132Y4164125D1*
Y4204317D1*
X1648839Y4164125D2*
Y4204317D1*
X1635442D1*
X1629694Y4202371D1*
X1625847Y4198569D1*
X1623946Y4194722D1*
X1622045Y4189018D1*
Y4179423D1*
X1623946Y4173675D1*
X1625847Y4169873D1*
X1629694Y4166026D1*
X1635442Y4164125D1*
X1648839D1*
X3164125Y3723074D2*
X3204317Y3738373D1*
X3164125Y3753672D1*
X3204317Y3801767D2*
X3164125D1*
X3204317Y3786468D1*
X3164125Y3771169D1*
X3204317D1*
X3164125Y3173074D2*
X3204317Y3188373D1*
X3164125Y3203672D1*
X3173675Y3249865D2*
X3169873Y3247964D1*
X3166026Y3244117D1*
X3164125Y3240315D1*
Y3232666D1*
X3166026Y3228819D1*
X3169873Y3225016D1*
X3173675Y3223071D1*
X3179423Y3221169D1*
X3189018D1*
X3194722Y3223071D1*
X3198569Y3225016D1*
X3202371Y3228819D1*
X3204317Y3232666D1*
Y3240315D1*
X3202371Y3244117D1*
X3198569Y3247964D1*
X3194722Y3249865D1*
X3173675Y3296059D2*
X3169873Y3294158D1*
X3166026Y3290311D1*
X3164125Y3286509D1*
Y3278859D1*
X3166026Y3275013D1*
X3169873Y3271210D1*
X3173675Y3269265D1*
X3179423Y3267363D1*
X3189018D1*
X3194722Y3269265D1*
X3198569Y3271210D1*
X3202371Y3275013D1*
X3204317Y3278859D1*
Y3286509D1*
X3202371Y3290311D1*
X3198569Y3294158D1*
X3194722Y3296059D1*
X2489326Y4164125D2*
X2474027Y4204317D1*
X2458728Y4164125D1*
X2410633Y4204317D2*
Y4164125D1*
X2425932Y4204317D1*
X2441231Y4164125D1*
Y4204317D1*
X2393135Y4164125D2*
X2391234Y4166026D1*
X2389289Y4164125D1*
X2391234Y4162179D1*
X2393135Y4164125D1*
X2391234Y4177522D2*
Y4204317D1*
X2371791Y4177522D2*
Y4204317D1*
Y4185171D2*
X2366043Y4179423D1*
X2362196Y4177522D1*
X2356492D1*
X2352646Y4179423D1*
X2350744Y4185171D1*
Y4204317D1*
X1964326Y4164125D2*
X1949027Y4204317D1*
X1933728Y4164125D1*
X1885633Y4204317D2*
Y4164125D1*
X1900932Y4204317D1*
X1916231Y4164125D1*
Y4204317D1*
X1362415Y3467929D2*
D54*
Y3518169D1*
X1343291Y3467929D1*
X1324168Y3518169D1*
Y3467929D1*
X1396225Y3501422D2*
X1391472Y3499046D1*
X1386663Y3494237D1*
X1384287Y3487052D1*
Y3482299D1*
X1386663Y3475114D1*
X1391472Y3470361D1*
X1396225Y3467929D1*
X1403410D1*
X1408219Y3470361D1*
X1412972Y3475114D1*
X1415404Y3482299D1*
Y3487052D1*
X1412972Y3494237D1*
X1408219Y3499046D1*
X1403410Y3501422D1*
X1396225D1*
X1444461Y3518169D2*
Y3477491D1*
X1446837Y3470361D1*
X1451646Y3467929D1*
X1456399D1*
X1437276Y3501422D2*
X1454023D1*
X1490210D2*
X1485456Y3499046D1*
X1480648Y3494237D1*
X1478271Y3487052D1*
Y3482299D1*
X1480648Y3475114D1*
X1485456Y3470361D1*
X1490210Y3467929D1*
X1497395D1*
X1502203Y3470361D1*
X1506956Y3475114D1*
X1509388Y3482299D1*
Y3487052D1*
X1506956Y3494237D1*
X1502203Y3499046D1*
X1497395Y3501422D1*
X1490210D1*
X1531260D2*
Y3467929D1*
Y3487052D2*
X1533692Y3494237D1*
X1538445Y3499046D1*
X1543254Y3501422D1*
X1550439D1*
X1627345Y3518169D2*
Y3467929D1*
X1644092D1*
X1651277Y3470361D1*
X1656085Y3475114D1*
X1658462Y3479923D1*
X1660839Y3487052D1*
Y3499046D1*
X1658462Y3506231D1*
X1656085Y3510984D1*
X1651277Y3515793D1*
X1644092Y3518169D1*
X1627345D1*
X1682711Y3501422D2*
Y3467929D1*
Y3487052D2*
X1685143Y3494237D1*
X1689896Y3499046D1*
X1694704Y3501422D1*
X1701889D1*
X1723762Y3518169D2*
X1726138Y3515793D1*
X1728570Y3518169D1*
X1726138Y3520601D1*
X1723762Y3518169D1*
X1726138Y3501422D2*
Y3467929D1*
X1750442Y3501422D2*
X1764812Y3467929D1*
X1779127Y3501422D1*
X1800999Y3487052D2*
X1829684D1*
Y3491861D1*
X1827308Y3496669D1*
X1824931Y3499046D1*
X1820123Y3501422D1*
X1812938D1*
X1808184Y3499046D1*
X1803376Y3494237D1*
X1800999Y3487052D1*
Y3482299D1*
X1803376Y3475114D1*
X1808184Y3470361D1*
X1812938Y3467929D1*
X1820123D1*
X1824931Y3470361D1*
X1829684Y3475114D1*
X1851557Y3501422D2*
Y3467929D1*
Y3487052D2*
X1853988Y3494237D1*
X1858742Y3499046D1*
X1863550Y3501422D1*
X1870735D1*
X1952450Y3518114D2*
X1978703D1*
X1964388Y3498991D1*
X1971573D1*
X1976326Y3496614D1*
X1978703Y3494237D1*
X1981135Y3487052D1*
Y3482299D1*
X1978703Y3475114D1*
X1973950Y3470306D1*
X1966765Y3467929D1*
X1959580D1*
X1952450Y3470306D1*
X1950073Y3472738D1*
X1947641Y3477491D1*
X1362415Y2442929D2*
Y2493169D1*
X1343291Y2442929D1*
X1324168Y2493169D1*
Y2442929D1*
X1396225Y2476422D2*
X1391472Y2474046D1*
X1386663Y2469237D1*
X1384287Y2462052D1*
Y2457299D1*
X1386663Y2450114D1*
X1391472Y2445361D1*
X1396225Y2442929D1*
X1403410D1*
X1408219Y2445361D1*
X1412972Y2450114D1*
X1415404Y2457299D1*
Y2462052D1*
X1412972Y2469237D1*
X1408219Y2474046D1*
X1403410Y2476422D1*
X1396225D1*
X1444461Y2493169D2*
Y2452491D1*
X1446837Y2445361D1*
X1451646Y2442929D1*
X1456399D1*
X1437276Y2476422D2*
X1454023D1*
X1490210D2*
X1485456Y2474046D1*
X1480648Y2469237D1*
X1478271Y2462052D1*
Y2457299D1*
X1480648Y2450114D1*
X1485456Y2445361D1*
X1490210Y2442929D1*
X1497395D1*
X1502203Y2445361D1*
X1506956Y2450114D1*
X1509388Y2457299D1*
Y2462052D1*
X1506956Y2469237D1*
X1502203Y2474046D1*
X1497395Y2476422D1*
X1490210D1*
X1531260D2*
Y2442929D1*
Y2462052D2*
X1533692Y2469237D1*
X1538445Y2474046D1*
X1543254Y2476422D1*
X1550439D1*
X1627345Y2493169D2*
Y2442929D1*
X1644092D1*
X1651277Y2445361D1*
X1656085Y2450114D1*
X1658462Y2454923D1*
X1660839Y2462052D1*
Y2474046D1*
X1658462Y2481231D1*
X1656085Y2485984D1*
X1651277Y2490793D1*
X1644092Y2493169D1*
X1627345D1*
X1682711Y2476422D2*
Y2442929D1*
Y2462052D2*
X1685143Y2469237D1*
X1689896Y2474046D1*
X1694704Y2476422D1*
X1701889D1*
X1723762Y2493169D2*
X1726138Y2490793D1*
X1728570Y2493169D1*
X1726138Y2495601D1*
X1723762Y2493169D1*
X1726138Y2476422D2*
Y2442929D1*
X1750442Y2476422D2*
X1764812Y2442929D1*
X1779127Y2476422D1*
X1800999Y2462052D2*
X1829684D1*
Y2466861D1*
X1827308Y2471669D1*
X1824931Y2474046D1*
X1820123Y2476422D1*
X1812938D1*
X1808184Y2474046D1*
X1803376Y2469237D1*
X1800999Y2462052D1*
Y2457299D1*
X1803376Y2450114D1*
X1808184Y2445361D1*
X1812938Y2442929D1*
X1820123D1*
X1824931Y2445361D1*
X1829684Y2450114D1*
X1851557Y2476422D2*
Y2442929D1*
Y2462052D2*
X1853988Y2469237D1*
X1858742Y2474046D1*
X1863550Y2476422D1*
X1870735D1*
X1950073Y2481176D2*
Y2483552D1*
X1952450Y2488361D1*
X1954826Y2490737D1*
X1959635Y2493114D1*
X1969197D1*
X1973950Y2490737D1*
X1976326Y2488361D1*
X1978758Y2483552D1*
Y2478799D1*
X1976326Y2473991D1*
X1971573Y2466861D1*
X1947641Y2442929D1*
X1981135D1*
X1362415Y1417929D2*
Y1468169D1*
X1343291Y1417929D1*
X1324168Y1468169D1*
Y1417929D1*
X1396225Y1451422D2*
X1391472Y1449046D1*
X1386663Y1444237D1*
X1384287Y1437052D1*
Y1432299D1*
X1386663Y1425114D1*
X1391472Y1420361D1*
X1396225Y1417929D1*
X1403410D1*
X1408219Y1420361D1*
X1412972Y1425114D1*
X1415404Y1432299D1*
Y1437052D1*
X1412972Y1444237D1*
X1408219Y1449046D1*
X1403410Y1451422D1*
X1396225D1*
X1444461Y1468169D2*
Y1427491D1*
X1446837Y1420361D1*
X1451646Y1417929D1*
X1456399D1*
X1437276Y1451422D2*
X1454023D1*
X1490210D2*
X1485456Y1449046D1*
X1480648Y1444237D1*
X1478271Y1437052D1*
Y1432299D1*
X1480648Y1425114D1*
X1485456Y1420361D1*
X1490210Y1417929D1*
X1497395D1*
X1502203Y1420361D1*
X1506956Y1425114D1*
X1509388Y1432299D1*
Y1437052D1*
X1506956Y1444237D1*
X1502203Y1449046D1*
X1497395Y1451422D1*
X1490210D1*
X1531260D2*
Y1417929D1*
Y1437052D2*
X1533692Y1444237D1*
X1538445Y1449046D1*
X1543254Y1451422D1*
X1550439D1*
X1627345Y1468169D2*
Y1417929D1*
X1644092D1*
X1651277Y1420361D1*
X1656085Y1425114D1*
X1658462Y1429923D1*
X1660839Y1437052D1*
Y1449046D1*
X1658462Y1456231D1*
X1656085Y1460984D1*
X1651277Y1465793D1*
X1644092Y1468169D1*
X1627345D1*
X1682711Y1451422D2*
Y1417929D1*
Y1437052D2*
X1685143Y1444237D1*
X1689896Y1449046D1*
X1694704Y1451422D1*
X1701889D1*
X1723762Y1468169D2*
X1726138Y1465793D1*
X1728570Y1468169D1*
X1726138Y1470601D1*
X1723762Y1468169D1*
X1726138Y1451422D2*
Y1417929D1*
X1750442Y1451422D2*
X1764812Y1417929D1*
X1779127Y1451422D1*
X1800999Y1437052D2*
X1829684D1*
Y1441861D1*
X1827308Y1446669D1*
X1824931Y1449046D1*
X1820123Y1451422D1*
X1812938D1*
X1808184Y1449046D1*
X1803376Y1444237D1*
X1800999Y1437052D1*
Y1432299D1*
X1803376Y1425114D1*
X1808184Y1420361D1*
X1812938Y1417929D1*
X1820123D1*
X1824931Y1420361D1*
X1829684Y1425114D1*
X1851557Y1451422D2*
Y1417929D1*
Y1437052D2*
X1853988Y1444237D1*
X1858742Y1449046D1*
X1863550Y1451422D1*
X1870735D1*
X1947641Y1458552D2*
X1952450Y1460984D1*
X1959635Y1468114D1*
Y1417929D1*
X1148074Y3373275D2*
D53*
X1163373Y3333083D1*
X1178672Y3373275D1*
X1226767Y3333083D2*
Y3373275D1*
X1211468Y3333083D1*
X1196169Y3373275D1*
Y3333083D1*
X1098074Y3273275D2*
X1113373Y3233083D1*
X1128672Y3273275D1*
X1174865Y3263725D2*
X1172964Y3267527D1*
X1169117Y3271374D1*
X1165315Y3273275D1*
X1157666D1*
X1153819Y3271374D1*
X1150016Y3267527D1*
X1148071Y3263725D1*
X1146169Y3257977D1*
Y3248382D1*
X1148071Y3242678D1*
X1150016Y3238831D1*
X1153819Y3235029D1*
X1157666Y3233083D1*
X1165315D1*
X1169117Y3235029D1*
X1172964Y3238831D1*
X1174865Y3242678D1*
X1221059Y3263725D2*
X1219158Y3267527D1*
X1215311Y3271374D1*
X1211509Y3273275D1*
X1203859D1*
X1200013Y3271374D1*
X1196210Y3267527D1*
X1194265Y3263725D1*
X1192363Y3257977D1*
Y3248382D1*
X1194265Y3242678D1*
X1196210Y3238831D1*
X1200013Y3235029D1*
X1203859Y3233083D1*
X1211509D1*
X1215311Y3235029D1*
X1219158Y3238831D1*
X1221059Y3242678D1*
X1126770Y3163725D2*
X1124869Y3167527D1*
X1121022Y3171374D1*
X1117220Y3173275D1*
X1109571D1*
X1105724Y3171374D1*
X1101921Y3167527D1*
X1099976Y3163725D1*
X1098074Y3157977D1*
Y3148382D1*
X1099976Y3142678D1*
X1101921Y3138831D1*
X1105724Y3135029D1*
X1109571Y3133083D1*
X1117220D1*
X1121022Y3135029D1*
X1124869Y3138831D1*
X1126770Y3142678D1*
Y3148382D1*
X1117220D1*
X1171063Y3173275D2*
Y3133083D1*
X1144268Y3173275D1*
Y3133083D1*
X1188561Y3173275D2*
Y3133083D1*
X1201958D1*
X1207706Y3135029D1*
X1211553Y3138831D1*
X1213454Y3142678D1*
X1215355Y3148382D1*
Y3157977D1*
X1213454Y3163725D1*
X1211553Y3167527D1*
X1207706Y3171374D1*
X1201958Y3173275D1*
X1188561D1*
X1128716Y3033083D2*
X1113373Y3073275D1*
X1098074Y3033083D1*
X1103822Y3046481D2*
X1122968D1*
X1157710Y3073275D2*
X1153863Y3071374D1*
X1150060Y3067527D1*
X1148115Y3063725D1*
X1146214Y3057977D1*
Y3048382D1*
X1148115Y3042678D1*
X1150060Y3038831D1*
X1153863Y3035029D1*
X1157710Y3033083D1*
X1165359D1*
X1169162Y3035029D1*
X1173008Y3038831D1*
X1174910Y3042678D1*
X1176811Y3048382D1*
Y3057977D1*
X1174910Y3063725D1*
X1173008Y3067527D1*
X1169162Y3071374D1*
X1165359Y3073275D1*
X1157710D1*
X1194309Y3065582D2*
X1198155Y3067527D1*
X1203904Y3073231D1*
Y3033083D1*
X1128716Y2933083D2*
X1113373Y2973275D1*
X1098074Y2933083D1*
X1103822Y2946481D2*
X1122968D1*
X1157710Y2973275D2*
X1153863Y2971374D1*
X1150060Y2967527D1*
X1148115Y2963725D1*
X1146214Y2957977D1*
Y2948382D1*
X1148115Y2942678D1*
X1150060Y2938831D1*
X1153863Y2935029D1*
X1157710Y2933083D1*
X1165359D1*
X1169162Y2935029D1*
X1173008Y2938831D1*
X1174910Y2942678D1*
X1176811Y2948382D1*
Y2957977D1*
X1174910Y2963725D1*
X1173008Y2967527D1*
X1169162Y2971374D1*
X1165359Y2973275D1*
X1157710D1*
X1196254Y2963680D2*
Y2965582D1*
X1198155Y2969429D1*
X1200057Y2971330D1*
X1203904Y2973231D1*
X1211553D1*
X1215355Y2971330D1*
X1217257Y2969429D1*
X1219202Y2965582D1*
Y2961779D1*
X1217257Y2957932D1*
X1213454Y2952229D1*
X1194309Y2933083D1*
X1221103D1*
X1098074Y2873275D2*
Y2833083D1*
X1115319D1*
X1121067Y2835029D1*
X1122968Y2836930D1*
X1124869Y2840733D1*
Y2846481D1*
X1122968Y2850327D1*
X1121067Y2852229D1*
X1115319Y2854130D1*
X1121067Y2856075D1*
X1122968Y2857977D1*
X1124869Y2861779D1*
Y2865626D1*
X1122968Y2869429D1*
X1121067Y2871374D1*
X1115319Y2873275D1*
X1098074D1*
Y2854130D2*
X1115319D1*
X1153863Y2873275D2*
X1150016Y2871374D1*
X1146214Y2867527D1*
X1144268Y2863725D1*
X1142367Y2857977D1*
Y2848382D1*
X1144268Y2842678D1*
X1146214Y2838831D1*
X1150016Y2835029D1*
X1153863Y2833083D1*
X1161512D1*
X1165315Y2835029D1*
X1169162Y2838831D1*
X1171063Y2842678D1*
X1172964Y2848382D1*
Y2857977D1*
X1171063Y2863725D1*
X1169162Y2867527D1*
X1165315Y2871374D1*
X1161512Y2873275D1*
X1153863D1*
X1192407Y2863680D2*
Y2865582D1*
X1194309Y2869429D1*
X1196210Y2871330D1*
X1200057Y2873231D1*
X1207706D1*
X1211509Y2871330D1*
X1213410Y2869429D1*
X1215355Y2865582D1*
Y2861779D1*
X1213410Y2857932D1*
X1209607Y2852229D1*
X1190462Y2833083D1*
X1217257D1*
X2123074Y3352229D2*
X2140319D1*
X2146022Y3354130D1*
X2147968Y3356075D1*
X2149869Y3359878D1*
Y3365626D1*
X2147968Y3369429D1*
X2146022Y3371374D1*
X2140319Y3373275D1*
X2123074D1*
Y3333083D1*
X2167367Y3373275D2*
X2176962Y3333083D1*
X2186512Y3373275D1*
X2196063Y3333083D1*
X2205658Y3373275D1*
X2253753Y3333083D2*
Y3373275D1*
X2238454Y3333083D1*
X2223155Y3373275D1*
Y3333083D1*
X2301892D2*
X2286549Y3373275D1*
X2271251Y3333083D1*
X2276999Y3346481D2*
X2296144D1*
X2153716Y3233083D2*
X2138373Y3273275D1*
X2123074Y3233083D1*
X2128822Y3246481D2*
X2147968D1*
X2171214Y3273275D2*
Y3233083D1*
X2215506Y3273275D2*
Y3233083D1*
X2188712Y3273275D1*
Y3233083D1*
X2234949Y3263680D2*
Y3265582D1*
X2236851Y3269429D1*
X2238752Y3271330D1*
X2242599Y3273231D1*
X2250248D1*
X2254051Y3271330D1*
X2255952Y3269429D1*
X2257897Y3265582D1*
Y3261779D1*
X2255952Y3257932D1*
X2252149Y3252229D1*
X2233004Y3233083D1*
X2259799D1*
X2153716Y3133083D2*
X2138373Y3173275D1*
X2123074Y3133083D1*
X2128822Y3146481D2*
X2147968D1*
X2171214Y3173275D2*
Y3133083D1*
X2215506Y3173275D2*
Y3133083D1*
X2188712Y3173275D1*
Y3133083D1*
X2233004Y3165582D2*
X2236851Y3167527D1*
X2242599Y3173231D1*
Y3133083D1*
X2149869Y3067527D2*
X2146067Y3071374D1*
X2140319Y3073275D1*
X2132669D1*
X2126921Y3071374D1*
X2123074Y3067527D1*
Y3063725D1*
X2125020Y3059878D1*
X2126921Y3057977D1*
X2130724Y3056075D1*
X2142220Y3052229D1*
X2146067Y3050327D1*
X2147968Y3048382D1*
X2149869Y3044579D1*
Y3038831D1*
X2146067Y3035029D1*
X2140319Y3033083D1*
X2132669D1*
X2126921Y3035029D1*
X2123074Y3038831D1*
X2180764Y3073275D2*
Y3033083D1*
X2167367Y3073275D2*
X2194162D1*
X2211659D2*
Y3033083D1*
X2228904D1*
X2234652Y3035029D1*
X2236553Y3036930D1*
X2238454Y3040733D1*
Y3046481D1*
X2236553Y3050327D1*
X2234652Y3052229D1*
X2228904Y3054130D1*
X2234652Y3056075D1*
X2236553Y3057977D1*
X2238454Y3061779D1*
Y3065626D1*
X2236553Y3069429D1*
X2234652Y3071374D1*
X2228904Y3073275D1*
X2211659D1*
Y3054130D2*
X2228904D1*
X2255952Y3073275D2*
X2271251Y3054130D1*
Y3033083D1*
X2286549Y3073275D2*
X2271251Y3054130D1*
X2123074Y2973275D2*
Y2933083D1*
X2140319D1*
X2146067Y2935029D1*
X2147968Y2936930D1*
X2149869Y2940733D1*
Y2946481D1*
X2147968Y2950327D1*
X2146067Y2952229D1*
X2140319Y2954130D1*
X2146067Y2956075D1*
X2147968Y2957977D1*
X2149869Y2961779D1*
Y2965626D1*
X2147968Y2969429D1*
X2146067Y2971374D1*
X2140319Y2973275D1*
X2123074D1*
Y2954130D2*
X2140319D1*
X2167367Y2973275D2*
Y2933083D1*
X2211659Y2973275D2*
Y2933083D1*
X2184865Y2973275D1*
Y2933083D1*
X2229157Y2965582D2*
X2233004Y2967527D1*
X2238752Y2973231D1*
Y2933083D1*
X2123074Y2873275D2*
Y2833083D1*
X2140319D1*
X2146067Y2835029D1*
X2147968Y2836930D1*
X2149869Y2840733D1*
Y2846481D1*
X2147968Y2850327D1*
X2146067Y2852229D1*
X2140319Y2854130D1*
X2146067Y2856075D1*
X2147968Y2857977D1*
X2149869Y2861779D1*
Y2865626D1*
X2147968Y2869429D1*
X2146067Y2871374D1*
X2140319Y2873275D1*
X2123074D1*
Y2854130D2*
X2140319D1*
X2167367Y2873275D2*
Y2833083D1*
X2211659Y2873275D2*
Y2833083D1*
X2184865Y2873275D1*
Y2833083D1*
X2231103Y2863680D2*
Y2865582D1*
X2233004Y2869429D1*
X2234905Y2871330D1*
X2238752Y2873231D1*
X2246401D1*
X2250204Y2871330D1*
X2252105Y2869429D1*
X2254051Y2865582D1*
Y2861779D1*
X2252105Y2857932D1*
X2248303Y2852229D1*
X2229157Y2833083D1*
X2255952D1*
X1148074Y2348275D2*
X1163373Y2308083D1*
X1178672Y2348275D1*
X1226767Y2308083D2*
Y2348275D1*
X1211468Y2308083D1*
X1196169Y2348275D1*
Y2308083D1*
X1098074Y2248275D2*
X1113373Y2208083D1*
X1128672Y2248275D1*
X1174865Y2238725D2*
X1172964Y2242527D1*
X1169117Y2246374D1*
X1165315Y2248275D1*
X1157666D1*
X1153819Y2246374D1*
X1150016Y2242527D1*
X1148071Y2238725D1*
X1146169Y2232977D1*
Y2223382D1*
X1148071Y2217678D1*
X1150016Y2213831D1*
X1153819Y2210029D1*
X1157666Y2208083D1*
X1165315D1*
X1169117Y2210029D1*
X1172964Y2213831D1*
X1174865Y2217678D1*
X1221059Y2238725D2*
X1219158Y2242527D1*
X1215311Y2246374D1*
X1211509Y2248275D1*
X1203859D1*
X1200013Y2246374D1*
X1196210Y2242527D1*
X1194265Y2238725D1*
X1192363Y2232977D1*
Y2223382D1*
X1194265Y2217678D1*
X1196210Y2213831D1*
X1200013Y2210029D1*
X1203859Y2208083D1*
X1211509D1*
X1215311Y2210029D1*
X1219158Y2213831D1*
X1221059Y2217678D1*
X1126770Y2138725D2*
X1124869Y2142527D1*
X1121022Y2146374D1*
X1117220Y2148275D1*
X1109571D1*
X1105724Y2146374D1*
X1101921Y2142527D1*
X1099976Y2138725D1*
X1098074Y2132977D1*
Y2123382D1*
X1099976Y2117678D1*
X1101921Y2113831D1*
X1105724Y2110029D1*
X1109571Y2108083D1*
X1117220D1*
X1121022Y2110029D1*
X1124869Y2113831D1*
X1126770Y2117678D1*
Y2123382D1*
X1117220D1*
X1171063Y2148275D2*
Y2108083D1*
X1144268Y2148275D1*
Y2108083D1*
X1188561Y2148275D2*
Y2108083D1*
X1201958D1*
X1207706Y2110029D1*
X1211553Y2113831D1*
X1213454Y2117678D1*
X1215355Y2123382D1*
Y2132977D1*
X1213454Y2138725D1*
X1211553Y2142527D1*
X1207706Y2146374D1*
X1201958Y2148275D1*
X1188561D1*
X1128716Y2008083D2*
X1113373Y2048275D1*
X1098074Y2008083D1*
X1103822Y2021481D2*
X1122968D1*
X1157710Y2048275D2*
X1153863Y2046374D1*
X1150060Y2042527D1*
X1148115Y2038725D1*
X1146214Y2032977D1*
Y2023382D1*
X1148115Y2017678D1*
X1150060Y2013831D1*
X1153863Y2010029D1*
X1157710Y2008083D1*
X1165359D1*
X1169162Y2010029D1*
X1173008Y2013831D1*
X1174910Y2017678D1*
X1176811Y2023382D1*
Y2032977D1*
X1174910Y2038725D1*
X1173008Y2042527D1*
X1169162Y2046374D1*
X1165359Y2048275D1*
X1157710D1*
X1194309Y2040582D2*
X1198155Y2042527D1*
X1203904Y2048231D1*
Y2008083D1*
X1128716Y1908083D2*
X1113373Y1948275D1*
X1098074Y1908083D1*
X1103822Y1921481D2*
X1122968D1*
X1157710Y1948275D2*
X1153863Y1946374D1*
X1150060Y1942527D1*
X1148115Y1938725D1*
X1146214Y1932977D1*
Y1923382D1*
X1148115Y1917678D1*
X1150060Y1913831D1*
X1153863Y1910029D1*
X1157710Y1908083D1*
X1165359D1*
X1169162Y1910029D1*
X1173008Y1913831D1*
X1174910Y1917678D1*
X1176811Y1923382D1*
Y1932977D1*
X1174910Y1938725D1*
X1173008Y1942527D1*
X1169162Y1946374D1*
X1165359Y1948275D1*
X1157710D1*
X1196254Y1938680D2*
Y1940582D1*
X1198155Y1944429D1*
X1200057Y1946330D1*
X1203904Y1948231D1*
X1211553D1*
X1215355Y1946330D1*
X1217257Y1944429D1*
X1219202Y1940582D1*
Y1936779D1*
X1217257Y1932932D1*
X1213454Y1927229D1*
X1194309Y1908083D1*
X1221103D1*
X1098074Y1848275D2*
Y1808083D1*
X1115319D1*
X1121067Y1810029D1*
X1122968Y1811930D1*
X1124869Y1815733D1*
Y1821481D1*
X1122968Y1825327D1*
X1121067Y1827229D1*
X1115319Y1829130D1*
X1121067Y1831075D1*
X1122968Y1832977D1*
X1124869Y1836779D1*
Y1840626D1*
X1122968Y1844429D1*
X1121067Y1846374D1*
X1115319Y1848275D1*
X1098074D1*
Y1829130D2*
X1115319D1*
X1153863Y1848275D2*
X1150016Y1846374D1*
X1146214Y1842527D1*
X1144268Y1838725D1*
X1142367Y1832977D1*
Y1823382D1*
X1144268Y1817678D1*
X1146214Y1813831D1*
X1150016Y1810029D1*
X1153863Y1808083D1*
X1161512D1*
X1165315Y1810029D1*
X1169162Y1813831D1*
X1171063Y1817678D1*
X1172964Y1823382D1*
Y1832977D1*
X1171063Y1838725D1*
X1169162Y1842527D1*
X1165315Y1846374D1*
X1161512Y1848275D1*
X1153863D1*
X1192407Y1838680D2*
Y1840582D1*
X1194309Y1844429D1*
X1196210Y1846330D1*
X1200057Y1848231D1*
X1207706D1*
X1211509Y1846330D1*
X1213410Y1844429D1*
X1215355Y1840582D1*
Y1836779D1*
X1213410Y1832932D1*
X1209607Y1827229D1*
X1190462Y1808083D1*
X1217257D1*
X1148074Y1323275D2*
X1163373Y1283083D1*
X1178672Y1323275D1*
X1226767Y1283083D2*
Y1323275D1*
X1211468Y1283083D1*
X1196169Y1323275D1*
Y1283083D1*
X1098074Y1223275D2*
X1113373Y1183083D1*
X1128672Y1223275D1*
X1174865Y1213725D2*
X1172964Y1217527D1*
X1169117Y1221374D1*
X1165315Y1223275D1*
X1157666D1*
X1153819Y1221374D1*
X1150016Y1217527D1*
X1148071Y1213725D1*
X1146169Y1207977D1*
Y1198382D1*
X1148071Y1192678D1*
X1150016Y1188831D1*
X1153819Y1185029D1*
X1157666Y1183083D1*
X1165315D1*
X1169117Y1185029D1*
X1172964Y1188831D1*
X1174865Y1192678D1*
X1221059Y1213725D2*
X1219158Y1217527D1*
X1215311Y1221374D1*
X1211509Y1223275D1*
X1203859D1*
X1200013Y1221374D1*
X1196210Y1217527D1*
X1194265Y1213725D1*
X1192363Y1207977D1*
Y1198382D1*
X1194265Y1192678D1*
X1196210Y1188831D1*
X1200013Y1185029D1*
X1203859Y1183083D1*
X1211509D1*
X1215311Y1185029D1*
X1219158Y1188831D1*
X1221059Y1192678D1*
X1126770Y1113725D2*
X1124869Y1117527D1*
X1121022Y1121374D1*
X1117220Y1123275D1*
X1109571D1*
X1105724Y1121374D1*
X1101921Y1117527D1*
X1099976Y1113725D1*
X1098074Y1107977D1*
Y1098382D1*
X1099976Y1092678D1*
X1101921Y1088831D1*
X1105724Y1085029D1*
X1109571Y1083083D1*
X1117220D1*
X1121022Y1085029D1*
X1124869Y1088831D1*
X1126770Y1092678D1*
Y1098382D1*
X1117220D1*
X1171063Y1123275D2*
Y1083083D1*
X1144268Y1123275D1*
Y1083083D1*
X1188561Y1123275D2*
Y1083083D1*
X1201958D1*
X1207706Y1085029D1*
X1211553Y1088831D1*
X1213454Y1092678D1*
X1215355Y1098382D1*
Y1107977D1*
X1213454Y1113725D1*
X1211553Y1117527D1*
X1207706Y1121374D1*
X1201958Y1123275D1*
X1188561D1*
X1128716Y983083D2*
X1113373Y1023275D1*
X1098074Y983083D1*
X1103822Y996481D2*
X1122968D1*
X1157710Y1023275D2*
X1153863Y1021374D1*
X1150060Y1017527D1*
X1148115Y1013725D1*
X1146214Y1007977D1*
Y998382D1*
X1148115Y992678D1*
X1150060Y988831D1*
X1153863Y985029D1*
X1157710Y983083D1*
X1165359D1*
X1169162Y985029D1*
X1173008Y988831D1*
X1174910Y992678D1*
X1176811Y998382D1*
Y1007977D1*
X1174910Y1013725D1*
X1173008Y1017527D1*
X1169162Y1021374D1*
X1165359Y1023275D1*
X1157710D1*
X1194309Y1015582D2*
X1198155Y1017527D1*
X1203904Y1023231D1*
Y983083D1*
X1128716Y883083D2*
X1113373Y923275D1*
X1098074Y883083D1*
X1103822Y896481D2*
X1122968D1*
X1157710Y923275D2*
X1153863Y921374D1*
X1150060Y917527D1*
X1148115Y913725D1*
X1146214Y907977D1*
Y898382D1*
X1148115Y892678D1*
X1150060Y888831D1*
X1153863Y885029D1*
X1157710Y883083D1*
X1165359D1*
X1169162Y885029D1*
X1173008Y888831D1*
X1174910Y892678D1*
X1176811Y898382D1*
Y907977D1*
X1174910Y913725D1*
X1173008Y917527D1*
X1169162Y921374D1*
X1165359Y923275D1*
X1157710D1*
X1196254Y913680D2*
Y915582D1*
X1198155Y919429D1*
X1200057Y921330D1*
X1203904Y923231D1*
X1211553D1*
X1215355Y921330D1*
X1217257Y919429D1*
X1219202Y915582D1*
Y911779D1*
X1217257Y907932D1*
X1213454Y902229D1*
X1194309Y883083D1*
X1221103D1*
X1098074Y823275D2*
Y783083D1*
X1115319D1*
X1121067Y785029D1*
X1122968Y786930D1*
X1124869Y790733D1*
Y796481D1*
X1122968Y800327D1*
X1121067Y802229D1*
X1115319Y804130D1*
X1121067Y806075D1*
X1122968Y807977D1*
X1124869Y811779D1*
Y815626D1*
X1122968Y819429D1*
X1121067Y821374D1*
X1115319Y823275D1*
X1098074D1*
Y804130D2*
X1115319D1*
X1153863Y823275D2*
X1150016Y821374D1*
X1146214Y817527D1*
X1144268Y813725D1*
X1142367Y807977D1*
Y798382D1*
X1144268Y792678D1*
X1146214Y788831D1*
X1150016Y785029D1*
X1153863Y783083D1*
X1161512D1*
X1165315Y785029D1*
X1169162Y788831D1*
X1171063Y792678D1*
X1172964Y798382D1*
Y807977D1*
X1171063Y813725D1*
X1169162Y817527D1*
X1165315Y821374D1*
X1161512Y823275D1*
X1153863D1*
X1192407Y813680D2*
Y815582D1*
X1194309Y819429D1*
X1196210Y821330D1*
X1200057Y823231D1*
X1207706D1*
X1211509Y821330D1*
X1213410Y819429D1*
X1215355Y815582D1*
Y811779D1*
X1213410Y807932D1*
X1209607Y802229D1*
X1190462Y783083D1*
X1217257D1*
X2123074Y2752229D2*
X2140319D1*
X2146022Y2754130D1*
X2147968Y2756075D1*
X2149869Y2759878D1*
Y2765626D1*
X2147968Y2769429D1*
X2146022Y2771374D1*
X2140319Y2773275D1*
X2123074D1*
Y2733083D1*
X2167367Y2773275D2*
X2176962Y2733083D1*
X2186512Y2773275D1*
X2196063Y2733083D1*
X2205658Y2773275D1*
X2249950D2*
Y2733083D1*
X2223155Y2773275D1*
Y2733083D1*
X2267448Y2773275D2*
Y2733083D1*
X2284692D1*
X2290440Y2735029D1*
X2292341Y2736930D1*
X2294243Y2740733D1*
Y2746481D1*
X2292341Y2750327D1*
X2290440Y2752229D1*
X2284692Y2754130D1*
X2290440Y2756075D1*
X2292341Y2757977D1*
X2294243Y2761779D1*
Y2765626D1*
X2292341Y2769429D1*
X2290440Y2771374D1*
X2284692Y2773275D1*
X2267448D1*
Y2754130D2*
X2284692D1*
X2151770Y2663725D2*
X2149869Y2667527D1*
X2146022Y2671374D1*
X2142220Y2673275D1*
X2134571D1*
X2130724Y2671374D1*
X2126921Y2667527D1*
X2124976Y2663725D1*
X2123074Y2657977D1*
Y2648382D1*
X2124976Y2642678D1*
X2126921Y2638831D1*
X2130724Y2635029D1*
X2134571Y2633083D1*
X2142220D1*
X2146022Y2635029D1*
X2149869Y2638831D1*
X2151770Y2642678D1*
Y2648382D1*
X2142220D1*
X2196063Y2673275D2*
Y2633083D1*
X2169268Y2673275D1*
Y2633083D1*
X2213561Y2673275D2*
Y2633083D1*
X2226958D1*
X2232706Y2635029D1*
X2236553Y2638831D1*
X2238454Y2642678D1*
X2240355Y2648382D1*
Y2657977D1*
X2238454Y2663725D1*
X2236553Y2667527D1*
X2232706Y2671374D1*
X2226958Y2673275D1*
X2213561D1*
X2123074Y1302229D2*
X2140319D1*
X2146022Y1304130D1*
X2147968Y1306075D1*
X2149869Y1309878D1*
Y1315626D1*
X2147968Y1319429D1*
X2146022Y1321374D1*
X2140319Y1323275D1*
X2123074D1*
Y1283083D1*
X2167367Y1323275D2*
X2176962Y1283083D1*
X2186512Y1323275D1*
X2196063Y1283083D1*
X2205658Y1323275D1*
X2253753Y1283083D2*
Y1323275D1*
X2238454Y1283083D1*
X2223155Y1323275D1*
Y1283083D1*
X2301892D2*
X2286549Y1323275D1*
X2271251Y1283083D1*
X2276999Y1296481D2*
X2296144D1*
X2153716Y1183083D2*
X2138373Y1223275D1*
X2123074Y1183083D1*
X2128822Y1196481D2*
X2147968D1*
X2171214Y1223275D2*
Y1183083D1*
X2215506Y1223275D2*
Y1183083D1*
X2188712Y1223275D1*
Y1183083D1*
X2234949Y1213680D2*
Y1215582D1*
X2236851Y1219429D1*
X2238752Y1221330D1*
X2242599Y1223231D1*
X2250248D1*
X2254051Y1221330D1*
X2255952Y1219429D1*
X2257897Y1215582D1*
Y1211779D1*
X2255952Y1207932D1*
X2252149Y1202229D1*
X2233004Y1183083D1*
X2259799D1*
X2153716Y1083083D2*
X2138373Y1123275D1*
X2123074Y1083083D1*
X2128822Y1096481D2*
X2147968D1*
X2171214Y1123275D2*
Y1083083D1*
X2215506Y1123275D2*
Y1083083D1*
X2188712Y1123275D1*
Y1083083D1*
X2233004Y1115582D2*
X2236851Y1117527D1*
X2242599Y1123231D1*
Y1083083D1*
X2149869Y1017527D2*
X2146067Y1021374D1*
X2140319Y1023275D1*
X2132669D1*
X2126921Y1021374D1*
X2123074Y1017527D1*
Y1013725D1*
X2125020Y1009878D1*
X2126921Y1007977D1*
X2130724Y1006075D1*
X2142220Y1002229D1*
X2146067Y1000327D1*
X2147968Y998382D1*
X2149869Y994579D1*
Y988831D1*
X2146067Y985029D1*
X2140319Y983083D1*
X2132669D1*
X2126921Y985029D1*
X2123074Y988831D1*
X2180764Y1023275D2*
Y983083D1*
X2167367Y1023275D2*
X2194162D1*
X2211659D2*
Y983083D1*
X2228904D1*
X2234652Y985029D1*
X2236553Y986930D1*
X2238454Y990733D1*
Y996481D1*
X2236553Y1000327D1*
X2234652Y1002229D1*
X2228904Y1004130D1*
X2234652Y1006075D1*
X2236553Y1007977D1*
X2238454Y1011779D1*
Y1015626D1*
X2236553Y1019429D1*
X2234652Y1021374D1*
X2228904Y1023275D1*
X2211659D1*
Y1004130D2*
X2228904D1*
X2255952Y1023275D2*
X2271251Y1004130D1*
Y983083D1*
X2286549Y1023275D2*
X2271251Y1004130D1*
X2123074Y923275D2*
Y883083D1*
X2140319D1*
X2146067Y885029D1*
X2147968Y886930D1*
X2149869Y890733D1*
Y896481D1*
X2147968Y900327D1*
X2146067Y902229D1*
X2140319Y904130D1*
X2146067Y906075D1*
X2147968Y907977D1*
X2149869Y911779D1*
Y915626D1*
X2147968Y919429D1*
X2146067Y921374D1*
X2140319Y923275D1*
X2123074D1*
Y904130D2*
X2140319D1*
X2167367Y923275D2*
Y883083D1*
X2211659Y923275D2*
Y883083D1*
X2184865Y923275D1*
Y883083D1*
X2229157Y915582D2*
X2233004Y917527D1*
X2238752Y923231D1*
Y883083D1*
X2123074Y823275D2*
Y783083D1*
X2140319D1*
X2146067Y785029D1*
X2147968Y786930D1*
X2149869Y790733D1*
Y796481D1*
X2147968Y800327D1*
X2146067Y802229D1*
X2140319Y804130D1*
X2146067Y806075D1*
X2147968Y807977D1*
X2149869Y811779D1*
Y815626D1*
X2147968Y819429D1*
X2146067Y821374D1*
X2140319Y823275D1*
X2123074D1*
Y804130D2*
X2140319D1*
X2167367Y823275D2*
Y783083D1*
X2211659Y823275D2*
Y783083D1*
X2184865Y823275D1*
Y783083D1*
X2231103Y813680D2*
Y815582D1*
X2233004Y819429D1*
X2234905Y821330D1*
X2238752Y823231D1*
X2246401D1*
X2250204Y821330D1*
X2252105Y819429D1*
X2254051Y815582D1*
Y811779D1*
X2252105Y807932D1*
X2248303Y802229D1*
X2229157Y783083D1*
X2255952D1*
X2639125Y3221588D2*
X2679317D1*
X2639125Y3208190D2*
Y3234985D1*
X2664018Y3252483D2*
Y3275431D1*
X2660171D1*
X2656325Y3273529D1*
X2654423Y3271628D1*
X2652522Y3267781D1*
Y3262033D1*
X2654423Y3258231D1*
X2658270Y3254384D1*
X2664018Y3252483D1*
X2667821D1*
X2673569Y3254384D1*
X2677371Y3258231D1*
X2679317Y3262033D1*
Y3267781D1*
X2677371Y3271628D1*
X2673569Y3275431D1*
X2664018Y3292929D2*
Y3315876D1*
X2660171D1*
X2656325Y3313975D1*
X2654423Y3312074D1*
X2652522Y3308227D1*
Y3302479D1*
X2654423Y3298677D1*
X2658270Y3294830D1*
X2664018Y3292929D1*
X2667821D1*
X2673569Y3294830D1*
X2677371Y3298677D1*
X2679317Y3302479D1*
Y3308227D1*
X2677371Y3312074D1*
X2673569Y3315876D1*
X2652522Y3333374D2*
X2679317D1*
X2660171D2*
X2654423Y3339122D1*
X2652522Y3342969D1*
Y3348673D1*
X2654423Y3352520D1*
X2660171Y3354421D1*
X2679317D1*
X2658270Y3392965D2*
X2654423Y3391064D1*
X2652522Y3385316D1*
Y3379568D1*
X2654423Y3373820D1*
X2658270Y3371919D1*
X2662073Y3373820D1*
X2664018Y3377667D1*
X2665919Y3387217D1*
X2667821Y3391064D1*
X2671667Y3392965D1*
X2673569D1*
X2677371Y3391064D1*
X2679317Y3385316D1*
Y3379568D1*
X2677371Y3373820D1*
X2673569Y3371919D1*
X2652522Y3412409D2*
X2679317Y3423861D1*
X2686966Y3420058D1*
X2690813Y3416211D1*
X2692714Y3412409D1*
Y3410463D1*
X2652522Y3435357D2*
X2679317Y3423861D1*
Y3516027D2*
X2639169D1*
X2665919Y3496882D1*
Y3525578D1*
X2675470Y3544977D2*
X2677415Y3543075D1*
X2679317Y3544977D1*
X2677415Y3546922D1*
X2675470Y3544977D1*
X2646818Y3564420D2*
X2644873Y3568267D1*
X2639169Y3574015D1*
X2679317D1*
X2712134Y3161472D2*
X2715937Y3157625D1*
X2721685Y3153822D1*
X2729334Y3149976D1*
X2738929Y3148074D1*
X2746578D1*
X2756129Y3149976D1*
X2763778Y3153822D1*
X2769526Y3157625D1*
X2773328Y3161472D1*
X2722657Y3182816D2*
Y3203819D1*
X2737956Y3192367D1*
Y3198115D1*
X2739857Y3201918D1*
X2741758Y3203819D1*
X2747507Y3205764D1*
X2751309D1*
X2757057Y3203819D1*
X2760904Y3200016D1*
X2762805Y3194268D1*
Y3188520D1*
X2760904Y3182816D1*
X2758958Y3180915D1*
X2755156Y3178970D1*
X2758958Y3225163D2*
X2760904Y3223262D1*
X2762805Y3225163D1*
X2760904Y3227109D1*
X2758958Y3225163D1*
X2728361Y3267555D2*
X2724559Y3265653D1*
X2722657Y3259905D1*
Y3256103D1*
X2724559Y3250355D1*
X2730307Y3246508D1*
X2739857Y3244607D1*
X2749408D1*
X2757057Y3246508D1*
X2760904Y3250355D1*
X2762805Y3256103D1*
Y3258004D1*
X2760904Y3263708D1*
X2757057Y3267555D1*
X2751309Y3269456D1*
X2749408D1*
X2743660Y3267555D1*
X2739857Y3263708D1*
X2737956Y3258004D1*
Y3256103D1*
X2739857Y3250355D1*
X2743660Y3246508D1*
X2749408Y3244607D1*
X2722613Y3286954D2*
X2762805Y3302252D1*
X2722613Y3317551D1*
X2742731Y3379076D2*
Y3401184D1*
X2722657Y3485657D2*
Y3466555D1*
X2739857Y3464654D1*
X2737956Y3466555D1*
X2736010Y3472303D1*
Y3478007D1*
X2737956Y3483755D1*
X2741758Y3487602D1*
X2747507Y3489503D1*
X2751309D1*
X2757057Y3487602D1*
X2760904Y3483755D1*
X2762805Y3478007D1*
Y3472303D1*
X2760904Y3466555D1*
X2758958Y3464654D1*
X2755156Y3462709D1*
X2758958Y3508902D2*
X2760904Y3507001D1*
X2762805Y3508902D1*
X2760904Y3510848D1*
X2758958Y3508902D1*
X2722657Y3551294D2*
Y3532192D1*
X2739857Y3530291D1*
X2737956Y3532192D1*
X2736010Y3537941D1*
Y3543644D1*
X2737956Y3549392D1*
X2741758Y3553239D1*
X2747507Y3555140D1*
X2751309D1*
X2757057Y3553239D1*
X2760904Y3549392D1*
X2762805Y3543644D1*
Y3537941D1*
X2760904Y3532192D1*
X2758958Y3530291D1*
X2755156Y3528346D1*
X2722613Y3572638D2*
X2762805Y3587937D1*
X2722613Y3603235D1*
X2712134Y3620733D2*
X2715937Y3624580D1*
X2721685Y3628383D1*
X2729334Y3632229D1*
X2738929Y3634131D1*
X2746578D1*
X2756129Y3632229D1*
X2763778Y3628383D1*
X2769526Y3624580D1*
X2773328Y3620733D1*
X2639125Y3764756D2*
X2679317D1*
Y3782000D1*
X2677371Y3787748D1*
X2675470Y3789650D1*
X2671667Y3791551D1*
X2665919D1*
X2662073Y3789650D1*
X2660171Y3787748D1*
X2658270Y3782000D1*
X2656325Y3787748D1*
X2654423Y3789650D1*
X2650621Y3791551D1*
X2646774D1*
X2642971Y3789650D1*
X2641026Y3787748D1*
X2639125Y3782000D1*
Y3764756D1*
X2658270D2*
Y3782000D1*
X2652522Y3831997D2*
X2679317D1*
X2658270D2*
X2654423Y3828194D1*
X2652522Y3824347D1*
Y3818644D1*
X2654423Y3814797D1*
X2658270Y3810994D1*
X2664018Y3809049D1*
X2667821D1*
X2673569Y3810994D1*
X2677371Y3814797D1*
X2679317Y3818644D1*
Y3824347D1*
X2677371Y3828194D1*
X2673569Y3831997D1*
X2639125Y3855243D2*
X2671667D1*
X2677371Y3857144D1*
X2679317Y3860991D1*
Y3864793D1*
X2652522Y3849495D2*
Y3862892D1*
X2639125Y3888039D2*
X2671667D1*
X2677371Y3889940D1*
X2679317Y3893787D1*
Y3897590D1*
X2652522Y3882291D2*
Y3895688D1*
X2664018Y3915087D2*
Y3938035D1*
X2660171D1*
X2656325Y3936134D1*
X2654423Y3934233D1*
X2652522Y3930386D1*
Y3924638D1*
X2654423Y3920835D1*
X2658270Y3916989D1*
X2664018Y3915087D1*
X2667821D1*
X2673569Y3916989D1*
X2677371Y3920835D1*
X2679317Y3924638D1*
Y3930386D1*
X2677371Y3934233D1*
X2673569Y3938035D1*
X2652522Y3955533D2*
X2679317D1*
X2664018D2*
X2658270Y3957479D1*
X2654423Y3961281D1*
X2652522Y3965128D1*
Y3970876D1*
Y3990319D2*
X2679317Y4001771D1*
X2686966Y3997969D1*
X2690813Y3994122D1*
X2692714Y3990319D1*
Y3988374D1*
X2652522Y4013267D2*
X2679317Y4001771D1*
X2712134Y3711472D2*
X2715937Y3707625D1*
X2721685Y3703822D1*
X2729334Y3699976D1*
X2738929Y3698074D1*
X2746578D1*
X2756129Y3699976D1*
X2763778Y3703822D1*
X2769526Y3707625D1*
X2773328Y3711472D1*
X2728361Y3751918D2*
X2724559Y3750016D1*
X2722657Y3744268D1*
Y3740466D1*
X2724559Y3734718D1*
X2730307Y3730871D1*
X2739857Y3728970D1*
X2749408D1*
X2757057Y3730871D1*
X2760904Y3734718D1*
X2762805Y3740466D1*
Y3742367D1*
X2760904Y3748071D1*
X2757057Y3751918D1*
X2751309Y3753819D1*
X2749408D1*
X2743660Y3751918D1*
X2739857Y3748071D1*
X2737956Y3742367D1*
Y3740466D1*
X2739857Y3734718D1*
X2743660Y3730871D1*
X2749408Y3728970D1*
X2722613Y3771317D2*
X2762805Y3786615D1*
X2722613Y3801914D1*
X2742731Y3863439D2*
Y3885547D1*
X2730307Y3947072D2*
X2728361Y3950918D1*
X2722657Y3956666D1*
X2762805D1*
X2722657Y3978011D2*
Y3999013D1*
X2737956Y3987562D1*
Y3993310D1*
X2739857Y3997112D1*
X2741758Y3999013D1*
X2747507Y4000959D1*
X2751309D1*
X2757057Y3999013D1*
X2760904Y3995211D1*
X2762805Y3989463D1*
Y3983715D1*
X2760904Y3978011D1*
X2758958Y3976110D1*
X2755156Y3974164D1*
X2722613Y4018457D2*
X2762805Y4033755D1*
X2722613Y4049054D1*
X2712134Y4066552D2*
X2715937Y4070398D1*
X2721685Y4074201D1*
X2729334Y4078048D1*
X2738929Y4079949D1*
X2746578D1*
X2756129Y4078048D1*
X2763778Y4074201D1*
X2769526Y4070398D1*
X2773328Y4066552D1*
X917929Y2974985D2*
D54*
X968169D1*
X917929Y2994109D1*
X968169Y3013232D1*
X917929D1*
X951422Y2941175D2*
X949046Y2945928D1*
X944237Y2950737D1*
X937052Y2953113D1*
X932299D1*
X925114Y2950737D1*
X920361Y2945928D1*
X917929Y2941175D1*
Y2933990D1*
X920361Y2929181D1*
X925114Y2924428D1*
X932299Y2921996D1*
X937052D1*
X944237Y2924428D1*
X949046Y2929181D1*
X951422Y2933990D1*
Y2941175D1*
X968169Y2892939D2*
X927491D1*
X920361Y2890563D1*
X917929Y2885754D1*
Y2881001D1*
X951422Y2900124D2*
Y2883377D1*
Y2847190D2*
X949046Y2851944D1*
X944237Y2856752D1*
X937052Y2859129D1*
X932299D1*
X925114Y2856752D1*
X920361Y2851944D1*
X917929Y2847190D1*
Y2840005D1*
X920361Y2835197D1*
X925114Y2830444D1*
X932299Y2828012D1*
X937052D1*
X944237Y2830444D1*
X949046Y2835197D1*
X951422Y2840005D1*
Y2847190D1*
Y2806140D2*
X917929D1*
X937052D2*
X944237Y2803708D1*
X949046Y2798955D1*
X951422Y2794146D1*
Y2786961D1*
X968114Y2681370D2*
Y2705246D1*
X946614Y2707623D1*
X948991Y2705246D1*
X951422Y2698061D1*
Y2690932D1*
X948991Y2683747D1*
X944237Y2678938D1*
X937052Y2676561D1*
X932299D1*
X925114Y2678938D1*
X920306Y2683747D1*
X917929Y2690932D1*
Y2698061D1*
X920306Y2705246D1*
X922738Y2707623D1*
X927491Y2710055D1*
X917929Y3499985D2*
X968169D1*
X917929Y3519109D1*
X968169Y3538232D1*
X917929D1*
X951422Y3466175D2*
X949046Y3470928D1*
X944237Y3475737D1*
X937052Y3478113D1*
X932299D1*
X925114Y3475737D1*
X920361Y3470928D1*
X917929Y3466175D1*
Y3458990D1*
X920361Y3454181D1*
X925114Y3449428D1*
X932299Y3446996D1*
X937052D1*
X944237Y3449428D1*
X949046Y3454181D1*
X951422Y3458990D1*
Y3466175D1*
X968169Y3417939D2*
X927491D1*
X920361Y3415563D1*
X917929Y3410754D1*
Y3406001D1*
X951422Y3425124D2*
Y3408377D1*
Y3372190D2*
X949046Y3376944D1*
X944237Y3381752D1*
X937052Y3384129D1*
X932299D1*
X925114Y3381752D1*
X920361Y3376944D1*
X917929Y3372190D1*
Y3365005D1*
X920361Y3360197D1*
X925114Y3355444D1*
X932299Y3353012D1*
X937052D1*
X944237Y3355444D1*
X949046Y3360197D1*
X951422Y3365005D1*
Y3372190D1*
Y3331140D2*
X917929D1*
X937052D2*
X944237Y3328708D1*
X949046Y3323955D1*
X951422Y3319146D1*
Y3311961D1*
X960984Y3206370D2*
X965737Y3208747D1*
X968114Y3215932D1*
Y3220685D1*
X965737Y3227870D1*
X958552Y3232678D1*
X946614Y3235055D1*
X934676D1*
X925114Y3232678D1*
X920306Y3227870D1*
X917929Y3220685D1*
Y3218308D1*
X920306Y3211178D1*
X925114Y3206370D1*
X932299Y3203993D1*
X934676D1*
X941861Y3206370D1*
X946614Y3211178D1*
X948991Y3218308D1*
Y3220685D1*
X946614Y3227870D1*
X941861Y3232678D1*
X934676Y3235055D1*
X917929Y1924985D2*
X968169D1*
X917929Y1944109D1*
X968169Y1963232D1*
X917929D1*
X951422Y1891175D2*
X949046Y1895928D1*
X944237Y1900737D1*
X937052Y1903113D1*
X932299D1*
X925114Y1900737D1*
X920361Y1895928D1*
X917929Y1891175D1*
Y1883990D1*
X920361Y1879181D1*
X925114Y1874428D1*
X932299Y1871996D1*
X937052D1*
X944237Y1874428D1*
X949046Y1879181D1*
X951422Y1883990D1*
Y1891175D1*
X968169Y1842939D2*
X927491D1*
X920361Y1840563D1*
X917929Y1835754D1*
Y1831001D1*
X951422Y1850124D2*
Y1833377D1*
Y1797190D2*
X949046Y1801944D1*
X944237Y1806752D1*
X937052Y1809129D1*
X932299D1*
X925114Y1806752D1*
X920361Y1801944D1*
X917929Y1797190D1*
Y1790005D1*
X920361Y1785197D1*
X925114Y1780444D1*
X932299Y1778012D1*
X937052D1*
X944237Y1780444D1*
X949046Y1785197D1*
X951422Y1790005D1*
Y1797190D1*
Y1756140D2*
X917929D1*
X937052D2*
X944237Y1753708D1*
X949046Y1748955D1*
X951422Y1744146D1*
Y1736961D1*
X968114Y1655246D2*
Y1628993D1*
X948991Y1643308D1*
Y1636123D1*
X946614Y1631370D1*
X944237Y1628993D1*
X937052Y1626561D1*
X932299D1*
X925114Y1628993D1*
X920306Y1633747D1*
X917929Y1640932D1*
Y1648117D1*
X920306Y1655246D1*
X922738Y1657623D1*
X927491Y1660055D1*
X917929Y2449985D2*
X968169D1*
X917929Y2469109D1*
X968169Y2488232D1*
X917929D1*
X951422Y2416175D2*
X949046Y2420928D1*
X944237Y2425737D1*
X937052Y2428113D1*
X932299D1*
X925114Y2425737D1*
X920361Y2420928D1*
X917929Y2416175D1*
Y2408990D1*
X920361Y2404181D1*
X925114Y2399428D1*
X932299Y2396996D1*
X937052D1*
X944237Y2399428D1*
X949046Y2404181D1*
X951422Y2408990D1*
Y2416175D1*
X968169Y2367939D2*
X927491D1*
X920361Y2365563D1*
X917929Y2360754D1*
Y2356001D1*
X951422Y2375124D2*
Y2358377D1*
Y2322190D2*
X949046Y2326944D1*
X944237Y2331752D1*
X937052Y2334129D1*
X932299D1*
X925114Y2331752D1*
X920361Y2326944D1*
X917929Y2322190D1*
Y2315005D1*
X920361Y2310197D1*
X925114Y2305444D1*
X932299Y2303012D1*
X937052D1*
X944237Y2305444D1*
X949046Y2310197D1*
X951422Y2315005D1*
Y2322190D1*
Y2281140D2*
X917929D1*
X937052D2*
X944237Y2278708D1*
X949046Y2273955D1*
X951422Y2269146D1*
Y2261961D1*
X917929Y2161123D2*
X968114D1*
X934676Y2185055D1*
Y2149185D1*
X917929Y1399985D2*
X968169D1*
X917929Y1419109D1*
X968169Y1438232D1*
X917929D1*
X951422Y1366175D2*
X949046Y1370928D1*
X944237Y1375737D1*
X937052Y1378113D1*
X932299D1*
X925114Y1375737D1*
X920361Y1370928D1*
X917929Y1366175D1*
Y1358990D1*
X920361Y1354181D1*
X925114Y1349428D1*
X932299Y1346996D1*
X937052D1*
X944237Y1349428D1*
X949046Y1354181D1*
X951422Y1358990D1*
Y1366175D1*
X968169Y1317939D2*
X927491D1*
X920361Y1315563D1*
X917929Y1310754D1*
Y1306001D1*
X951422Y1325124D2*
Y1308377D1*
Y1272190D2*
X949046Y1276944D1*
X944237Y1281752D1*
X937052Y1284129D1*
X932299D1*
X925114Y1281752D1*
X920361Y1276944D1*
X917929Y1272190D1*
Y1265005D1*
X920361Y1260197D1*
X925114Y1255444D1*
X932299Y1253012D1*
X937052D1*
X944237Y1255444D1*
X949046Y1260197D1*
X951422Y1265005D1*
Y1272190D1*
Y1231140D2*
X917929D1*
X937052D2*
X944237Y1228708D1*
X949046Y1223955D1*
X951422Y1219146D1*
Y1211961D1*
X956176Y1132623D2*
X958552D1*
X963361Y1130246D1*
X965737Y1127870D1*
X968114Y1123061D1*
Y1113500D1*
X965737Y1108747D1*
X963361Y1106370D1*
X958552Y1103938D1*
X953799D1*
X948991Y1106370D1*
X941861Y1111123D1*
X917929Y1135055D1*
Y1101561D1*
Y874985D2*
X968169D1*
X917929Y894109D1*
X968169Y913232D1*
X917929D1*
X951422Y841175D2*
X949046Y845928D1*
X944237Y850737D1*
X937052Y853113D1*
X932299D1*
X925114Y850737D1*
X920361Y845928D1*
X917929Y841175D1*
Y833990D1*
X920361Y829181D1*
X925114Y824428D1*
X932299Y821996D1*
X937052D1*
X944237Y824428D1*
X949046Y829181D1*
X951422Y833990D1*
Y841175D1*
X968169Y792939D2*
X927491D1*
X920361Y790563D1*
X917929Y785754D1*
Y781001D1*
X951422Y800124D2*
Y783377D1*
Y747190D2*
X949046Y751944D1*
X944237Y756752D1*
X937052Y759129D1*
X932299D1*
X925114Y756752D1*
X920361Y751944D1*
X917929Y747190D1*
Y740005D1*
X920361Y735197D1*
X925114Y730444D1*
X932299Y728012D1*
X937052D1*
X944237Y730444D1*
X949046Y735197D1*
X951422Y740005D1*
Y747190D1*
Y706140D2*
X917929D1*
X937052D2*
X944237Y703708D1*
X949046Y698955D1*
X951422Y694146D1*
Y686961D1*
X958552Y610055D2*
X960984Y605246D1*
X968114Y598061D1*
X917929D1*
X2403291Y3206718D2*
D55*
Y3197167D1*
X2411891Y3196217D1*
X2410940Y3197167D1*
X2409968Y3200041D1*
Y3202893D1*
X2410940Y3205767D1*
X2412842Y3207691D1*
X2415716Y3208641D1*
X2417617D1*
X2420491Y3207691D1*
X2422414Y3205767D1*
X2423365Y3202893D1*
Y3200041D1*
X2422414Y3197167D1*
X2421442Y3196217D1*
X2419540Y3195244D1*
X2403269Y3214817D2*
X2423365Y3222466D1*
X2403269Y3230116D1*
Y3255732D2*
X2423365D1*
Y3264354D1*
X2422392Y3267228D1*
X2421442Y3268178D1*
X2419540Y3269129D1*
X2416666D1*
X2414743Y3268178D1*
X2413792Y3267228D1*
X2412842Y3264354D1*
X2411869Y3267228D1*
X2410918Y3268178D1*
X2409017Y3269129D1*
X2407094D1*
X2405192Y3268178D1*
X2404220Y3267228D1*
X2403269Y3264354D1*
Y3255732D1*
X2412842D2*
Y3264354D1*
X2409968Y3275305D2*
X2419540D1*
X2422392Y3276255D1*
X2423365Y3278179D1*
Y3281053D1*
X2422392Y3282954D1*
X2419540Y3285828D1*
X2409968D2*
X2423365D1*
X2412842Y3303500D2*
X2410918Y3301576D1*
X2409968Y3299653D1*
Y3296801D1*
X2410918Y3294878D1*
X2412842Y3292976D1*
X2415716Y3292004D1*
X2417617D1*
X2420491Y3292976D1*
X2422392Y3294878D1*
X2423365Y3296801D1*
Y3299653D1*
X2422392Y3301576D1*
X2420491Y3303500D1*
X2403269Y3309675D2*
X2423365D1*
X2409968Y3319248D2*
X2419540Y3309675D1*
X2415716Y3313500D2*
X2423365Y3320199D1*
X2408044Y3360163D2*
X2406143Y3359212D1*
X2404220Y3357289D1*
X2403269Y3355388D1*
Y3351563D1*
X2404220Y3349640D1*
X2406143Y3347738D1*
X2408044Y3346766D1*
X2410918Y3345815D1*
X2415716D1*
X2418568Y3346766D1*
X2420491Y3347738D1*
X2422392Y3349640D1*
X2423365Y3351563D1*
Y3355388D1*
X2422392Y3357289D1*
X2420491Y3359212D1*
X2418568Y3360163D1*
X2409968Y3371114D2*
X2410918Y3369213D1*
X2412842Y3367289D1*
X2415716Y3366339D1*
X2417617D1*
X2420491Y3367289D1*
X2422392Y3369213D1*
X2423365Y3371114D1*
Y3373988D1*
X2422392Y3375911D1*
X2420491Y3377812D1*
X2417617Y3378785D1*
X2415716D1*
X2412842Y3377812D1*
X2410918Y3375911D1*
X2409968Y3373988D1*
Y3371114D1*
Y3384961D2*
X2423365D1*
X2413792D2*
X2410918Y3387835D1*
X2409968Y3389758D1*
Y3392610D1*
X2410918Y3394534D1*
X2413792Y3395484D1*
X2423365D1*
X2409968Y3401660D2*
X2423365Y3407408D1*
X2409968Y3413134D1*
X2415716Y3419310D2*
Y3430784D1*
X2413792D1*
X2411869Y3429833D1*
X2410918Y3428882D1*
X2409968Y3426959D1*
Y3424085D1*
X2410918Y3422184D1*
X2412842Y3420260D1*
X2415716Y3419310D1*
X2417617D1*
X2420491Y3420260D1*
X2422392Y3422184D1*
X2423365Y3424085D1*
Y3426959D1*
X2422392Y3428882D1*
X2420491Y3430784D1*
X2409968Y3436959D2*
X2423365D1*
X2415716D2*
X2412842Y3437932D1*
X2410918Y3439833D1*
X2409968Y3441757D1*
Y3444631D1*
X2403269Y3453680D2*
X2419540D1*
X2422392Y3454631D1*
X2423365Y3456554D1*
Y3458456D1*
X2409968Y3450806D2*
Y3457505D1*
X2415716Y3464631D2*
Y3476105D1*
X2413792D1*
X2411869Y3475155D1*
X2410918Y3474204D1*
X2409968Y3472281D1*
Y3469407D1*
X2410918Y3467505D1*
X2412842Y3465582D1*
X2415716Y3464631D1*
X2417617D1*
X2420491Y3465582D1*
X2422392Y3467505D1*
X2423365Y3469407D1*
Y3472281D1*
X2422392Y3474204D1*
X2420491Y3476105D1*
X2409968Y3482281D2*
X2423365D1*
X2415716D2*
X2412842Y3483254D1*
X2410918Y3485155D1*
X2409968Y3487078D1*
Y3489952D1*
X2445057Y3208641D2*
X2443133Y3206740D1*
X2442183Y3203866D1*
Y3200041D1*
X2443133Y3197167D1*
X2445057Y3195244D1*
X2446958D1*
X2448881Y3196217D1*
X2449832Y3197167D1*
X2450783Y3199069D1*
X2452706Y3204817D1*
X2453657Y3206740D1*
X2454629Y3207691D1*
X2456531Y3208641D1*
X2459405D1*
X2461306Y3206740D1*
X2462279Y3203866D1*
Y3200041D1*
X2461306Y3197167D1*
X2459405Y3195244D1*
X2442183Y3217691D2*
X2458454D1*
X2461306Y3218642D1*
X2462279Y3220565D1*
Y3222466D1*
X2448881Y3214817D2*
Y3221516D1*
X2454629Y3228642D2*
Y3240116D1*
X2452706D1*
X2450783Y3239165D1*
X2449832Y3238215D1*
X2448881Y3236291D1*
Y3233417D1*
X2449832Y3231516D1*
X2451755Y3229593D1*
X2454629Y3228642D1*
X2456531D1*
X2459405Y3229593D1*
X2461306Y3231516D1*
X2462279Y3233417D1*
Y3236291D1*
X2461306Y3238215D1*
X2459405Y3240116D1*
X2448881Y3246292D2*
X2468977D1*
X2451755D2*
X2449854Y3248215D1*
X2448881Y3250116D1*
Y3252990D1*
X2449854Y3254914D1*
X2451755Y3256815D1*
X2454629Y3257788D1*
X2456553D1*
X2459405Y3256815D1*
X2461328Y3254914D1*
X2462279Y3252990D1*
Y3250116D1*
X2461328Y3248215D1*
X2459405Y3246292D1*
X2451755Y3274487D2*
X2449832Y3273536D1*
X2448881Y3270662D1*
Y3267788D1*
X2449832Y3264914D1*
X2451755Y3263963D1*
X2453657Y3264914D1*
X2454629Y3266837D1*
X2455580Y3271613D1*
X2456531Y3273536D1*
X2458454Y3274487D1*
X2459405D1*
X2461306Y3273536D1*
X2462279Y3270662D1*
Y3267788D1*
X2461306Y3264914D1*
X2459405Y3263963D1*
X2442183Y3311577D2*
X2462279D1*
X2451755D2*
X2449832Y3309675D1*
X2448881Y3307752D1*
Y3304878D1*
X2449832Y3302977D1*
X2451755Y3301053D1*
X2454629Y3300103D1*
X2456531D1*
X2459405Y3301053D1*
X2461306Y3302977D1*
X2462279Y3304878D1*
Y3307752D1*
X2461306Y3309675D1*
X2459405Y3311577D1*
X2448881Y3322528D2*
X2449832Y3320626D1*
X2451755Y3318703D1*
X2454629Y3317752D1*
X2456531D1*
X2459405Y3318703D1*
X2461306Y3320626D1*
X2462279Y3322528D1*
Y3325402D1*
X2461306Y3327325D1*
X2459405Y3329226D1*
X2456531Y3330199D1*
X2454629D1*
X2451755Y3329226D1*
X2449832Y3327325D1*
X2448881Y3325402D1*
Y3322528D1*
Y3336375D2*
X2462279Y3340199D1*
X2448881Y3344024D1*
X2462279Y3347849D1*
X2448881Y3351673D1*
Y3357849D2*
X2462279D1*
X2452706D2*
X2449832Y3360723D1*
X2448881Y3362647D1*
Y3365498D1*
X2449832Y3367422D1*
X2452706Y3368372D1*
X2462279D1*
X2442183Y3393989D2*
X2443133Y3394939D1*
X2442183Y3395912D1*
X2441210Y3394939D1*
X2442183Y3393989D1*
X2448881Y3394939D2*
X2462279D1*
X2448881Y3402088D2*
X2462279D1*
X2452706D2*
X2449832Y3404962D1*
X2448881Y3406885D1*
Y3409737D1*
X2449832Y3411660D1*
X2452706Y3412611D1*
X2462279D1*
X2448881Y3418787D2*
X2468977D1*
X2451755D2*
X2449854Y3420710D1*
X2448881Y3422611D1*
Y3425485D1*
X2449854Y3427409D1*
X2451755Y3429310D1*
X2454629Y3430283D1*
X2456553D1*
X2459405Y3429310D1*
X2461328Y3427409D1*
X2462279Y3425485D1*
Y3422611D1*
X2461328Y3420710D1*
X2459405Y3418787D1*
X2448881Y3436458D2*
X2458454D1*
X2461306Y3437409D1*
X2462279Y3439332D1*
Y3442206D1*
X2461306Y3444108D1*
X2458454Y3446982D1*
X2448881D2*
X2462279D1*
X2442183Y3456031D2*
X2458454D1*
X2461306Y3456982D1*
X2462279Y3458905D1*
Y3460807D1*
X2448881Y3453157D2*
Y3459856D1*
Y3486423D2*
X2462279Y3492171D1*
X2448881Y3497897D1*
Y3508848D2*
X2449832Y3506946D1*
X2451755Y3505023D1*
X2454629Y3504072D1*
X2456531D1*
X2459405Y3505023D1*
X2461306Y3506946D1*
X2462279Y3508848D1*
Y3511722D1*
X2461306Y3513645D1*
X2459405Y3515546D1*
X2456531Y3516519D1*
X2454629D1*
X2451755Y3515546D1*
X2449832Y3513645D1*
X2448881Y3511722D1*
Y3508848D1*
X2442183Y3522695D2*
X2462279D1*
X2442183Y3531745D2*
X2458454D1*
X2461306Y3532695D1*
X2462279Y3534619D1*
Y3536520D1*
X2448881Y3528871D2*
Y3535569D1*
Y3554170D2*
X2462279D1*
X2451755D2*
X2449832Y3552268D1*
X2448881Y3550345D1*
Y3547493D1*
X2449832Y3545570D1*
X2451755Y3543668D1*
X2454629Y3542696D1*
X2456531D1*
X2459405Y3543668D1*
X2461306Y3545570D1*
X2462279Y3547493D1*
Y3550345D1*
X2461306Y3552268D1*
X2459405Y3554170D1*
X2449832Y3571819D2*
X2465153D1*
X2468005Y3570869D1*
X2468977Y3569918D1*
X2469928Y3567995D1*
Y3565120D1*
X2468977Y3563219D1*
X2452706Y3571819D2*
X2450805Y3569918D1*
X2449832Y3567995D1*
Y3565120D1*
X2450805Y3563219D1*
X2452706Y3561296D1*
X2455580Y3560345D1*
X2457503D1*
X2460355Y3561296D1*
X2462279Y3563219D1*
X2463229Y3565120D1*
Y3567995D1*
X2462279Y3569918D1*
X2460355Y3571819D1*
X2454629Y3577995D2*
Y3589469D1*
X2452706D1*
X2450783Y3588518D1*
X2449832Y3587568D1*
X2448881Y3585644D1*
Y3582770D1*
X2449832Y3580869D1*
X2451755Y3578946D1*
X2454629Y3577995D1*
X2456531D1*
X2459405Y3578946D1*
X2461306Y3580869D1*
X2462279Y3582770D1*
Y3585644D1*
X2461306Y3587568D1*
X2459405Y3589469D1*
X2481096Y3198118D2*
X2497368D1*
X2500220Y3199069D1*
X2501192Y3200992D1*
Y3202893D1*
X2487795Y3195244D2*
Y3201943D1*
Y3213844D2*
X2488746Y3211943D1*
X2490669Y3210020D1*
X2493543Y3209069D1*
X2495444D1*
X2498318Y3210020D1*
X2500220Y3211943D1*
X2501192Y3213844D1*
Y3216718D1*
X2500220Y3218642D1*
X2498318Y3220543D1*
X2495444Y3221516D1*
X2493543D1*
X2490669Y3220543D1*
X2488746Y3218642D1*
X2487795Y3216718D1*
Y3213844D1*
X2481118Y3258606D2*
Y3249055D1*
X2489718Y3248104D1*
X2488768Y3249055D1*
X2487795Y3251929D1*
Y3254781D1*
X2488768Y3257655D1*
X2490669Y3259578D1*
X2493543Y3260529D1*
X2495444D1*
X2498318Y3259578D1*
X2500242Y3257655D1*
X2501192Y3254781D1*
Y3251929D1*
X2500242Y3249055D1*
X2499269Y3248104D1*
X2497368Y3247132D1*
X2481096Y3266705D2*
X2501192Y3274354D1*
X2481096Y3282003D1*
Y3315269D2*
Y3313367D1*
X2482047Y3311444D1*
X2484921Y3310493D1*
X2501192D1*
X2487795Y3307619D2*
Y3314318D1*
Y3326220D2*
X2488746Y3324318D1*
X2490669Y3322395D1*
X2493543Y3321444D1*
X2495444D1*
X2498318Y3322395D1*
X2500220Y3324318D1*
X2501192Y3326220D1*
Y3329094D1*
X2500220Y3331017D1*
X2498318Y3332918D1*
X2495444Y3333891D1*
X2493543D1*
X2490669Y3332918D1*
X2488746Y3331017D1*
X2487795Y3329094D1*
Y3326220D1*
Y3340067D2*
X2501192D1*
X2493543D2*
X2490669Y3341040D1*
X2488746Y3342941D1*
X2487795Y3344864D1*
Y3347738D1*
X2493543Y3373354D2*
Y3384828D1*
X2491620D1*
X2489696Y3383878D1*
X2488746Y3382927D1*
X2487795Y3381004D1*
Y3378130D1*
X2488746Y3376228D1*
X2490669Y3374305D1*
X2493543Y3373354D1*
X2495444D1*
X2498318Y3374305D1*
X2500220Y3376228D1*
X2501192Y3378130D1*
Y3381004D1*
X2500220Y3382927D1*
X2498318Y3384828D1*
X2481096Y3398653D2*
Y3396752D1*
X2482047Y3394829D1*
X2484921Y3393878D1*
X2501192D1*
X2487795Y3391004D2*
Y3397703D1*
X2481096Y3412478D2*
Y3410577D1*
X2482047Y3408654D1*
X2484921Y3407703D1*
X2501192D1*
X2487795Y3404829D2*
Y3411528D1*
X2481096Y3418654D2*
X2482047Y3419605D1*
X2481096Y3420577D1*
X2480124Y3419605D1*
X2481096Y3418654D1*
X2487795Y3419605D2*
X2501192D1*
X2490669Y3438249D2*
X2488746Y3436326D1*
X2487795Y3434402D1*
Y3431550D1*
X2488746Y3429627D1*
X2490669Y3427726D1*
X2493543Y3426753D1*
X2495444D1*
X2498318Y3427726D1*
X2500220Y3429627D1*
X2501192Y3431550D1*
Y3434402D1*
X2500220Y3436326D1*
X2498318Y3438249D1*
X2481096Y3444425D2*
X2482047Y3445375D1*
X2481096Y3446348D1*
X2480124Y3445375D1*
X2481096Y3444425D1*
X2487795Y3445375D2*
X2501192D1*
X2493543Y3452524D2*
Y3463998D1*
X2491620D1*
X2489696Y3463047D1*
X2488746Y3462097D1*
X2487795Y3460173D1*
Y3457299D1*
X2488746Y3455398D1*
X2490669Y3453475D1*
X2493543Y3452524D1*
X2495444D1*
X2498318Y3453475D1*
X2500220Y3455398D1*
X2501192Y3457299D1*
Y3460173D1*
X2500220Y3462097D1*
X2498318Y3463998D1*
X2487795Y3470174D2*
X2501192D1*
X2491620D2*
X2488746Y3473048D1*
X2487795Y3474971D1*
Y3477823D1*
X2488746Y3479746D1*
X2491620Y3480697D1*
X2501192D1*
X2481096Y3489747D2*
X2497368D1*
X2500220Y3490697D1*
X2501192Y3492621D1*
Y3494522D1*
X2487795Y3486873D2*
Y3493571D1*
X2526709Y3195244D2*
X2540106D1*
X2530533D2*
X2527659Y3198118D1*
X2526709Y3200041D1*
Y3202893D1*
X2527659Y3204817D1*
X2530533Y3205767D1*
X2540106D1*
X2530533D2*
X2527659Y3208641D1*
X2526709Y3210565D1*
Y3213417D1*
X2527659Y3215340D1*
X2530533Y3216313D1*
X2540106D1*
X2520010Y3222488D2*
X2520961Y3223439D1*
X2520010Y3224412D1*
X2519037Y3223439D1*
X2520010Y3222488D1*
X2526709Y3223439D2*
X2540106D1*
X2529583Y3242084D2*
X2527659Y3240160D1*
X2526709Y3238237D1*
Y3235385D1*
X2527659Y3233461D1*
X2529583Y3231560D1*
X2532457Y3230587D1*
X2534358D1*
X2537232Y3231560D1*
X2539133Y3233461D1*
X2540106Y3235385D1*
Y3238237D1*
X2539133Y3240160D1*
X2537232Y3242084D1*
X2526709Y3248259D2*
X2540106D1*
X2532457D2*
X2529583Y3249232D1*
X2527659Y3251133D1*
X2526709Y3253057D1*
Y3255931D1*
Y3266882D2*
X2527659Y3264980D1*
X2529583Y3263057D1*
X2532457Y3262106D1*
X2534358D1*
X2537232Y3263057D1*
X2539133Y3264980D1*
X2540106Y3266882D1*
Y3269756D1*
X2539133Y3271679D1*
X2537232Y3273580D1*
X2534358Y3274553D1*
X2532457D1*
X2529583Y3273580D1*
X2527659Y3271679D1*
X2526709Y3269756D1*
Y3266882D1*
X2529583Y3292225D2*
X2527659Y3290301D1*
X2526709Y3288378D1*
Y3285526D1*
X2527659Y3283603D1*
X2529583Y3281701D1*
X2532457Y3280729D1*
X2534358D1*
X2537232Y3281701D1*
X2539133Y3283603D1*
X2540106Y3285526D1*
Y3288378D1*
X2539133Y3290301D1*
X2537232Y3292225D1*
X2526709Y3303176D2*
X2527659Y3301274D1*
X2529583Y3299351D1*
X2532457Y3298400D1*
X2534358D1*
X2537232Y3299351D1*
X2539133Y3301274D1*
X2540106Y3303176D1*
Y3306050D1*
X2539133Y3307973D1*
X2537232Y3309874D1*
X2534358Y3310847D1*
X2532457D1*
X2529583Y3309874D1*
X2527659Y3307973D1*
X2526709Y3306050D1*
Y3303176D1*
Y3317023D2*
X2540106D1*
X2530533D2*
X2527659Y3319897D1*
X2526709Y3321820D1*
Y3324672D1*
X2527659Y3326596D1*
X2530533Y3327546D1*
X2540106D1*
X2520010Y3336596D2*
X2536281D1*
X2539133Y3337547D1*
X2540106Y3339470D1*
Y3341371D1*
X2526709Y3333722D2*
Y3340421D1*
Y3347547D2*
X2540106D1*
X2532457D2*
X2529583Y3348520D1*
X2527659Y3350421D1*
X2526709Y3352344D1*
Y3355218D1*
Y3366169D2*
X2527659Y3364268D1*
X2529583Y3362345D1*
X2532457Y3361394D1*
X2534358D1*
X2537232Y3362345D1*
X2539133Y3364268D1*
X2540106Y3366169D1*
Y3369043D1*
X2539133Y3370967D1*
X2537232Y3372868D1*
X2534358Y3373841D1*
X2532457D1*
X2529583Y3372868D1*
X2527659Y3370967D1*
X2526709Y3369043D1*
Y3366169D1*
X2520010Y3380016D2*
X2540106D1*
X2520010Y3386192D2*
X2540106D1*
X2532457Y3392368D2*
Y3403842D1*
X2530533D1*
X2528610Y3402891D1*
X2527659Y3401940D1*
X2526709Y3400017D1*
Y3397143D1*
X2527659Y3395242D1*
X2529583Y3393318D1*
X2532457Y3392368D1*
X2534358D1*
X2537232Y3393318D1*
X2539133Y3395242D1*
X2540106Y3397143D1*
Y3400017D1*
X2539133Y3401940D1*
X2537232Y3403842D1*
X2526709Y3410017D2*
X2540106D1*
X2532457D2*
X2529583Y3410990D1*
X2527659Y3412891D1*
X2526709Y3414815D1*
Y3417689D1*
Y3448080D2*
X2527659Y3446179D1*
X2529583Y3444256D1*
X2532457Y3443305D1*
X2534358D1*
X2537232Y3444256D1*
X2539133Y3446179D1*
X2540106Y3448080D1*
Y3450954D1*
X2539133Y3452878D1*
X2537232Y3454779D1*
X2534358Y3455752D1*
X2532457D1*
X2529583Y3454779D1*
X2527659Y3452878D1*
X2526709Y3450954D1*
Y3448080D1*
Y3461927D2*
X2546805D1*
X2529583D2*
X2527681Y3463851D1*
X2526709Y3465752D1*
Y3468626D1*
X2527681Y3470549D1*
X2529583Y3472451D1*
X2532457Y3473423D1*
X2534380D1*
X2537232Y3472451D1*
X2539155Y3470549D1*
X2540106Y3468626D1*
Y3465752D1*
X2539155Y3463851D1*
X2537232Y3461927D1*
X2532457Y3479599D2*
Y3491073D1*
X2530533D1*
X2528610Y3490122D1*
X2527659Y3489172D1*
X2526709Y3487248D1*
Y3484374D1*
X2527659Y3482473D1*
X2529583Y3480550D1*
X2532457Y3479599D1*
X2534358D1*
X2537232Y3480550D1*
X2539133Y3482473D1*
X2540106Y3484374D1*
Y3487248D1*
X2539133Y3489172D1*
X2537232Y3491073D1*
X2526709Y3497249D2*
X2540106D1*
X2532457D2*
X2529583Y3498222D1*
X2527659Y3500123D1*
X2526709Y3502046D1*
Y3504920D1*
Y3522570D2*
X2540106D1*
X2529583D2*
X2527659Y3520669D1*
X2526709Y3518745D1*
Y3515893D1*
X2527659Y3513970D1*
X2529583Y3512069D1*
X2532457Y3511096D1*
X2534358D1*
X2537232Y3512069D1*
X2539133Y3513970D1*
X2540106Y3515893D1*
Y3518745D1*
X2539133Y3520669D1*
X2537232Y3522570D1*
X2520010Y3531620D2*
X2536281D1*
X2539133Y3532570D1*
X2540106Y3534494D1*
Y3536395D1*
X2526709Y3528746D2*
Y3535444D1*
X2520010Y3542571D2*
X2520961Y3543521D1*
X2520010Y3544494D1*
X2519037Y3543521D1*
X2520010Y3542571D1*
X2526709Y3543521D2*
X2540106D1*
X2526709Y3555445D2*
X2527659Y3553544D1*
X2529583Y3551620D1*
X2532457Y3550670D1*
X2534358D1*
X2537232Y3551620D1*
X2539133Y3553544D1*
X2540106Y3555445D1*
Y3558319D1*
X2539133Y3560242D1*
X2537232Y3562144D1*
X2534358Y3563116D1*
X2532457D1*
X2529583Y3562144D1*
X2527659Y3560242D1*
X2526709Y3558319D1*
Y3555445D1*
Y3569292D2*
X2540106D1*
X2530533D2*
X2527659Y3572166D1*
X2526709Y3574089D1*
Y3576941D1*
X2527659Y3578865D1*
X2530533Y3579815D1*
X2540106D1*
X2538183Y3586942D2*
X2539155Y3585991D1*
X2540106Y3586942D1*
X2539155Y3587914D1*
X2538183Y3586942D1*
X2379739Y3701416D2*
D54*
X2384492Y3696607D1*
X2391677Y3694231D1*
X2401238D1*
X2408423Y3696607D1*
X2413232Y3701416D1*
Y3706169D1*
X2410800Y3710978D1*
X2408423Y3713354D1*
X2403670Y3715731D1*
X2389300Y3720539D1*
X2384492Y3722916D1*
X2382115Y3725348D1*
X2379739Y3730101D1*
Y3737286D1*
X2384492Y3742039D1*
X2391677Y3744471D1*
X2401238D1*
X2408423Y3742039D1*
X2413232Y3737286D1*
X2357866Y3710978D2*
X2348305Y3744471D1*
X2338743Y3710978D1*
X2329181Y3744471D1*
X2319620Y3710978D1*
X2297748Y3694231D2*
X2295371Y3696607D1*
X2292939Y3694231D1*
X2295371Y3691799D1*
X2297748Y3694231D1*
X2295371Y3710978D2*
Y3744471D1*
X2263882Y3694231D2*
Y3734909D1*
X2261505Y3742039D1*
X2256697Y3744471D1*
X2251944D1*
X2271067Y3710978D2*
X2254320D1*
X2201331Y3718163D2*
X2206140Y3713354D1*
X2210948Y3710978D1*
X2218078D1*
X2222886Y3713354D1*
X2227639Y3718163D1*
X2230071Y3725348D1*
Y3730101D1*
X2227639Y3737286D1*
X2222886Y3742039D1*
X2218078Y3744471D1*
X2210948D1*
X2206140Y3742039D1*
X2201331Y3737286D1*
X2179459Y3694231D2*
Y3744471D1*
Y3720539D2*
X2172274Y3713354D1*
X2167465Y3710978D1*
X2160280D1*
X2155527Y3713354D1*
X2153151Y3720539D1*
Y3744471D1*
X1938232Y3694231D2*
Y3744471D1*
X1916677D1*
X1909492Y3742039D1*
X1907115Y3739662D1*
X1904739Y3734909D1*
Y3727724D1*
X1907115Y3722916D1*
X1909492Y3720539D1*
X1916677Y3718163D1*
X1909492Y3715731D1*
X1907115Y3713354D1*
X1904739Y3708601D1*
Y3703793D1*
X1907115Y3699039D1*
X1909492Y3696607D1*
X1916677Y3694231D1*
X1938232D1*
Y3718163D2*
X1916677D1*
X1854181Y3710978D2*
Y3744471D1*
Y3718163D2*
X1858935Y3713354D1*
X1863743Y3710978D1*
X1870873D1*
X1875681Y3713354D1*
X1880434Y3718163D1*
X1882866Y3725348D1*
Y3730101D1*
X1880434Y3737286D1*
X1875681Y3742039D1*
X1870873Y3744471D1*
X1863743D1*
X1858935Y3742039D1*
X1854181Y3737286D1*
X1825124Y3694231D2*
Y3734909D1*
X1822748Y3742039D1*
X1817939Y3744471D1*
X1813186D1*
X1832309Y3710978D2*
X1815563D1*
X1784129Y3694231D2*
Y3734909D1*
X1781752Y3742039D1*
X1776944Y3744471D1*
X1772190D1*
X1791314Y3710978D2*
X1774567D1*
X1750318Y3725348D2*
X1721633D1*
Y3720539D1*
X1724010Y3715731D1*
X1726386Y3713354D1*
X1731195Y3710978D1*
X1738380D1*
X1743133Y3713354D1*
X1747942Y3718163D1*
X1750318Y3725348D1*
Y3730101D1*
X1747942Y3737286D1*
X1743133Y3742039D1*
X1738380Y3744471D1*
X1731195D1*
X1726386Y3742039D1*
X1721633Y3737286D1*
X1699761Y3710978D2*
Y3744471D1*
Y3725348D2*
X1697329Y3718163D1*
X1692576Y3713354D1*
X1687767Y3710978D1*
X1680582D1*
X1656278D2*
X1641964Y3744471D1*
X1646717Y3754033D1*
X1651525Y3758841D1*
X1656278Y3761218D1*
X1658710D1*
X1627593Y3710978D2*
X1641964Y3744471D1*
X1388232Y3718163D2*
X1366732D1*
X1359547Y3715731D1*
X1357115Y3713354D1*
X1354739Y3708601D1*
Y3703793D1*
X1357115Y3699039D1*
X1359547Y3696607D1*
X1366732Y3694231D1*
X1388232D1*
Y3744471D1*
X1371485Y3718163D2*
X1354739Y3744471D1*
X1332866Y3725348D2*
X1304181D1*
Y3720539D1*
X1306558Y3715731D1*
X1308935Y3713354D1*
X1313743Y3710978D1*
X1320928D1*
X1325681Y3713354D1*
X1330490Y3718163D1*
X1332866Y3725348D1*
Y3730101D1*
X1330490Y3737286D1*
X1325681Y3742039D1*
X1320928Y3744471D1*
X1313743D1*
X1308935Y3742039D1*
X1304181Y3737286D1*
X1256001Y3718163D2*
X1258377Y3713354D1*
X1265563Y3710978D1*
X1272748D1*
X1279933Y3713354D1*
X1282309Y3718163D1*
X1279933Y3722916D1*
X1275124Y3725348D1*
X1263186Y3727724D1*
X1258377Y3730101D1*
X1256001Y3734909D1*
Y3737286D1*
X1258377Y3742039D1*
X1265563Y3744471D1*
X1272748D1*
X1279933Y3742039D1*
X1282309Y3737286D1*
X1234129Y3694231D2*
X1231752Y3696607D1*
X1229320Y3694231D1*
X1231752Y3691799D1*
X1234129Y3694231D1*
X1231752Y3710978D2*
Y3744471D1*
X1181140Y3718163D2*
X1183516Y3713354D1*
X1190701Y3710978D1*
X1197886D1*
X1205071Y3713354D1*
X1207448Y3718163D1*
X1205071Y3722916D1*
X1200263Y3725348D1*
X1188325Y3727724D1*
X1183516Y3730101D1*
X1181140Y3734909D1*
Y3737286D1*
X1183516Y3742039D1*
X1190701Y3744471D1*
X1197886D1*
X1205071Y3742039D1*
X1207448Y3737286D1*
X1152082Y3694231D2*
Y3734909D1*
X1149706Y3742039D1*
X1144897Y3744471D1*
X1140144D1*
X1159267Y3710978D2*
X1142521D1*
X1106334D2*
X1111087Y3713354D1*
X1115895Y3718163D1*
X1118272Y3725348D1*
Y3730101D1*
X1115895Y3737286D1*
X1111087Y3742039D1*
X1106334Y3744471D1*
X1099149D1*
X1094340Y3742039D1*
X1089587Y3737286D1*
X1087155Y3730101D1*
Y3725348D1*
X1089587Y3718163D1*
X1094340Y3713354D1*
X1099149Y3710978D1*
X1106334D1*
X1065283D2*
Y3744471D1*
Y3725348D2*
X1062851Y3718163D1*
X1058098Y3713354D1*
X1053289Y3710978D1*
X1046104D1*
X763232Y3694231D2*
Y3744471D1*
X734547D1*
X681613Y3694231D2*
X712675D1*
Y3744471D1*
X681613D1*
X712675Y3718163D2*
X693552D1*
X659741Y3694231D2*
Y3744471D1*
X642994D1*
X635809Y3742039D1*
X631001Y3737286D1*
X628624Y3732477D1*
X626248Y3725348D1*
Y3713354D1*
X628624Y3706169D1*
X631001Y3701416D1*
X635809Y3696607D1*
X642994Y3694231D1*
X659741D1*
X3169231Y1540915D2*
X3219471D1*
X3169231Y1524168D2*
Y1557661D1*
X3200348Y1579534D2*
Y1608219D1*
X3195539D1*
X3190731Y1605842D1*
X3188354Y1603465D1*
X3185978Y1598657D1*
Y1591472D1*
X3188354Y1586719D1*
X3193163Y1581910D1*
X3200348Y1579534D1*
X3205101D1*
X3212286Y1581910D1*
X3217039Y1586719D1*
X3219471Y1591472D1*
Y1598657D1*
X3217039Y1603465D1*
X3212286Y1608219D1*
X3200348Y1630091D2*
Y1658776D1*
X3195539D1*
X3190731Y1656399D1*
X3188354Y1654023D1*
X3185978Y1649214D1*
Y1642029D1*
X3188354Y1637276D1*
X3193163Y1632467D1*
X3200348Y1630091D1*
X3205101D1*
X3212286Y1632467D1*
X3217039Y1637276D1*
X3219471Y1642029D1*
Y1649214D1*
X3217039Y1654023D1*
X3212286Y1658776D1*
X3185978Y1680648D2*
X3219471D1*
X3195539D2*
X3188354Y1687833D1*
X3185978Y1692641D1*
Y1699771D1*
X3188354Y1704580D1*
X3195539Y1706956D1*
X3219471D1*
X3193163Y1755137D2*
X3188354Y1752760D1*
X3185978Y1745575D1*
Y1738390D1*
X3188354Y1731205D1*
X3193163Y1728829D1*
X3197916Y1731205D1*
X3200348Y1736014D1*
X3202724Y1747952D1*
X3205101Y1752760D1*
X3209909Y1755137D1*
X3212286D1*
X3217039Y1752760D1*
X3219471Y1745575D1*
Y1738390D1*
X3217039Y1731205D1*
X3212286Y1728829D1*
X3185978Y1779441D2*
X3219471Y1793756D1*
X3229033Y1789003D1*
X3233841Y1784194D1*
X3236218Y1779441D1*
Y1777009D1*
X3185978Y1808126D2*
X3219471Y1793756D1*
Y1908964D2*
X3169286D1*
X3202724Y1885032D1*
Y1920902D1*
X3214662Y1945151D2*
X3217094Y1942774D1*
X3219471Y1945151D1*
X3217094Y1947583D1*
X3214662Y1945151D1*
X3178848Y1969455D2*
X3176416Y1974263D1*
X3169286Y1981449D1*
X3219471D1*
X1098074Y2773275D2*
D53*
Y2733083D1*
X1115319D1*
X1121067Y2735029D1*
X1122968Y2736930D1*
X1124869Y2740733D1*
Y2746481D1*
X1122968Y2750327D1*
X1121067Y2752229D1*
X1115319Y2754130D1*
X1121067Y2756075D1*
X1122968Y2757977D1*
X1124869Y2761779D1*
Y2765626D1*
X1122968Y2769429D1*
X1121067Y2771374D1*
X1115319Y2773275D1*
X1098074D1*
Y2754130D2*
X1115319D1*
X1153863Y2773275D2*
X1150016Y2771374D1*
X1146214Y2767527D1*
X1144268Y2763725D1*
X1142367Y2757977D1*
Y2748382D1*
X1144268Y2742678D1*
X1146214Y2738831D1*
X1150016Y2735029D1*
X1153863Y2733083D1*
X1161512D1*
X1165315Y2735029D1*
X1169162Y2738831D1*
X1171063Y2742678D1*
X1172964Y2748382D1*
Y2757977D1*
X1171063Y2763725D1*
X1169162Y2767527D1*
X1165315Y2771374D1*
X1161512Y2773275D1*
X1153863D1*
X1190462Y2765582D2*
X1194309Y2767527D1*
X1200057Y2773231D1*
Y2733083D1*
X1126770Y2663725D2*
X1124869Y2667527D1*
X1121022Y2671374D1*
X1117220Y2673275D1*
X1109571D1*
X1105724Y2671374D1*
X1101921Y2667527D1*
X1099976Y2663725D1*
X1098074Y2657977D1*
Y2648382D1*
X1099976Y2642678D1*
X1101921Y2638831D1*
X1105724Y2635029D1*
X1109571Y2633083D1*
X1117220D1*
X1121022Y2635029D1*
X1124869Y2638831D1*
X1126770Y2642678D1*
Y2648382D1*
X1117220D1*
X1171063Y2673275D2*
Y2633083D1*
X1144268Y2673275D1*
Y2633083D1*
X1188561Y2673275D2*
Y2633083D1*
X1201958D1*
X1207706Y2635029D1*
X1211553Y2638831D1*
X1213454Y2642678D1*
X1215355Y2648382D1*
Y2657977D1*
X1213454Y2663725D1*
X1211553Y2667527D1*
X1207706Y2671374D1*
X1201958Y2673275D1*
X1188561D1*
X1098074Y1748275D2*
Y1708083D1*
X1115319D1*
X1121067Y1710029D1*
X1122968Y1711930D1*
X1124869Y1715733D1*
Y1721481D1*
X1122968Y1725327D1*
X1121067Y1727229D1*
X1115319Y1729130D1*
X1121067Y1731075D1*
X1122968Y1732977D1*
X1124869Y1736779D1*
Y1740626D1*
X1122968Y1744429D1*
X1121067Y1746374D1*
X1115319Y1748275D1*
X1098074D1*
Y1729130D2*
X1115319D1*
X1153863Y1748275D2*
X1150016Y1746374D1*
X1146214Y1742527D1*
X1144268Y1738725D1*
X1142367Y1732977D1*
Y1723382D1*
X1144268Y1717678D1*
X1146214Y1713831D1*
X1150016Y1710029D1*
X1153863Y1708083D1*
X1161512D1*
X1165315Y1710029D1*
X1169162Y1713831D1*
X1171063Y1717678D1*
X1172964Y1723382D1*
Y1732977D1*
X1171063Y1738725D1*
X1169162Y1742527D1*
X1165315Y1746374D1*
X1161512Y1748275D1*
X1153863D1*
X1190462Y1740582D2*
X1194309Y1742527D1*
X1200057Y1748231D1*
Y1708083D1*
X1126770Y1638725D2*
X1124869Y1642527D1*
X1121022Y1646374D1*
X1117220Y1648275D1*
X1109571D1*
X1105724Y1646374D1*
X1101921Y1642527D1*
X1099976Y1638725D1*
X1098074Y1632977D1*
Y1623382D1*
X1099976Y1617678D1*
X1101921Y1613831D1*
X1105724Y1610029D1*
X1109571Y1608083D1*
X1117220D1*
X1121022Y1610029D1*
X1124869Y1613831D1*
X1126770Y1617678D1*
Y1623382D1*
X1117220D1*
X1171063Y1648275D2*
Y1608083D1*
X1144268Y1648275D1*
Y1608083D1*
X1188561Y1648275D2*
Y1608083D1*
X1201958D1*
X1207706Y1610029D1*
X1211553Y1613831D1*
X1213454Y1617678D1*
X1215355Y1623382D1*
Y1632977D1*
X1213454Y1638725D1*
X1211553Y1642527D1*
X1207706Y1646374D1*
X1201958Y1648275D1*
X1188561D1*
X1098074Y723275D2*
Y683083D1*
X1115319D1*
X1121067Y685029D1*
X1122968Y686930D1*
X1124869Y690733D1*
Y696481D1*
X1122968Y700327D1*
X1121067Y702229D1*
X1115319Y704130D1*
X1121067Y706075D1*
X1122968Y707977D1*
X1124869Y711779D1*
Y715626D1*
X1122968Y719429D1*
X1121067Y721374D1*
X1115319Y723275D1*
X1098074D1*
Y704130D2*
X1115319D1*
X1153863Y723275D2*
X1150016Y721374D1*
X1146214Y717527D1*
X1144268Y713725D1*
X1142367Y707977D1*
Y698382D1*
X1144268Y692678D1*
X1146214Y688831D1*
X1150016Y685029D1*
X1153863Y683083D1*
X1161512D1*
X1165315Y685029D1*
X1169162Y688831D1*
X1171063Y692678D1*
X1172964Y698382D1*
Y707977D1*
X1171063Y713725D1*
X1169162Y717527D1*
X1165315Y721374D1*
X1161512Y723275D1*
X1153863D1*
X1190462Y715582D2*
X1194309Y717527D1*
X1200057Y723231D1*
Y683083D1*
X1126770Y613725D2*
X1124869Y617527D1*
X1121022Y621374D1*
X1117220Y623275D1*
X1109571D1*
X1105724Y621374D1*
X1101921Y617527D1*
X1099976Y613725D1*
X1098074Y607977D1*
Y598382D1*
X1099976Y592678D1*
X1101921Y588831D1*
X1105724Y585029D1*
X1109571Y583083D1*
X1117220D1*
X1121022Y585029D1*
X1124869Y588831D1*
X1126770Y592678D1*
Y598382D1*
X1117220D1*
X1171063Y623275D2*
Y583083D1*
X1144268Y623275D1*
Y583083D1*
X1188561Y623275D2*
Y583083D1*
X1201958D1*
X1207706Y585029D1*
X1211553Y588831D1*
X1213454Y592678D1*
X1215355Y598382D1*
Y607977D1*
X1213454Y613725D1*
X1211553Y617527D1*
X1207706Y621374D1*
X1201958Y623275D1*
X1188561D1*
X2123074Y702229D2*
X2140319D1*
X2146022Y704130D1*
X2147968Y706075D1*
X2149869Y709878D1*
Y715626D1*
X2147968Y719429D1*
X2146022Y721374D1*
X2140319Y723275D1*
X2123074D1*
Y683083D1*
X2167367Y723275D2*
X2176962Y683083D1*
X2186512Y723275D1*
X2196063Y683083D1*
X2205658Y723275D1*
X2249950D2*
Y683083D1*
X2223155Y723275D1*
Y683083D1*
X2267448Y723275D2*
Y683083D1*
X2284692D1*
X2290440Y685029D1*
X2292341Y686930D1*
X2294243Y690733D1*
Y696481D1*
X2292341Y700327D1*
X2290440Y702229D1*
X2284692Y704130D1*
X2290440Y706075D1*
X2292341Y707977D1*
X2294243Y711779D1*
Y715626D1*
X2292341Y719429D1*
X2290440Y721374D1*
X2284692Y723275D1*
X2267448D1*
Y704130D2*
X2284692D1*
X2151770Y613725D2*
X2149869Y617527D1*
X2146022Y621374D1*
X2142220Y623275D1*
X2134571D1*
X2130724Y621374D1*
X2126921Y617527D1*
X2124976Y613725D1*
X2123074Y607977D1*
Y598382D1*
X2124976Y592678D1*
X2126921Y588831D1*
X2130724Y585029D1*
X2134571Y583083D1*
X2142220D1*
X2146022Y585029D1*
X2149869Y588831D1*
X2151770Y592678D1*
Y598382D1*
X2142220D1*
X2196063Y623275D2*
Y583083D1*
X2169268Y623275D1*
Y583083D1*
X2213561Y623275D2*
Y583083D1*
X2226958D1*
X2232706Y585029D1*
X2236553Y588831D1*
X2238454Y592678D1*
X2240355Y598382D1*
Y607977D1*
X2238454Y613725D1*
X2236553Y617527D1*
X2232706Y621374D1*
X2226958Y623275D1*
X2213561D1*
X2123074Y2327229D2*
X2140319D1*
X2146022Y2329130D1*
X2147968Y2331075D1*
X2149869Y2334878D1*
Y2340626D1*
X2147968Y2344429D1*
X2146022Y2346374D1*
X2140319Y2348275D1*
X2123074D1*
Y2308083D1*
X2167367Y2348275D2*
X2176962Y2308083D1*
X2186512Y2348275D1*
X2196063Y2308083D1*
X2205658Y2348275D1*
X2253753Y2308083D2*
Y2348275D1*
X2238454Y2308083D1*
X2223155Y2348275D1*
Y2308083D1*
X2301892D2*
X2286549Y2348275D1*
X2271251Y2308083D1*
X2276999Y2321481D2*
X2296144D1*
X2153716Y2208083D2*
X2138373Y2248275D1*
X2123074Y2208083D1*
X2128822Y2221481D2*
X2147968D1*
X2171214Y2248275D2*
Y2208083D1*
X2215506Y2248275D2*
Y2208083D1*
X2188712Y2248275D1*
Y2208083D1*
X2234949Y2238680D2*
Y2240582D1*
X2236851Y2244429D1*
X2238752Y2246330D1*
X2242599Y2248231D1*
X2250248D1*
X2254051Y2246330D1*
X2255952Y2244429D1*
X2257897Y2240582D1*
Y2236779D1*
X2255952Y2232932D1*
X2252149Y2227229D1*
X2233004Y2208083D1*
X2259799D1*
X2153716Y2108083D2*
X2138373Y2148275D1*
X2123074Y2108083D1*
X2128822Y2121481D2*
X2147968D1*
X2171214Y2148275D2*
Y2108083D1*
X2215506Y2148275D2*
Y2108083D1*
X2188712Y2148275D1*
Y2108083D1*
X2233004Y2140582D2*
X2236851Y2142527D1*
X2242599Y2148231D1*
Y2108083D1*
X2149869Y2042527D2*
X2146067Y2046374D1*
X2140319Y2048275D1*
X2132669D1*
X2126921Y2046374D1*
X2123074Y2042527D1*
Y2038725D1*
X2125020Y2034878D1*
X2126921Y2032977D1*
X2130724Y2031075D1*
X2142220Y2027229D1*
X2146067Y2025327D1*
X2147968Y2023382D1*
X2149869Y2019579D1*
Y2013831D1*
X2146067Y2010029D1*
X2140319Y2008083D1*
X2132669D1*
X2126921Y2010029D1*
X2123074Y2013831D1*
X2180764Y2048275D2*
Y2008083D1*
X2167367Y2048275D2*
X2194162D1*
X2211659D2*
Y2008083D1*
X2228904D1*
X2234652Y2010029D1*
X2236553Y2011930D1*
X2238454Y2015733D1*
Y2021481D1*
X2236553Y2025327D1*
X2234652Y2027229D1*
X2228904Y2029130D1*
X2234652Y2031075D1*
X2236553Y2032977D1*
X2238454Y2036779D1*
Y2040626D1*
X2236553Y2044429D1*
X2234652Y2046374D1*
X2228904Y2048275D1*
X2211659D1*
Y2029130D2*
X2228904D1*
X2255952Y2048275D2*
X2271251Y2029130D1*
Y2008083D1*
X2286549Y2048275D2*
X2271251Y2029130D1*
X2123074Y1948275D2*
Y1908083D1*
X2140319D1*
X2146067Y1910029D1*
X2147968Y1911930D1*
X2149869Y1915733D1*
Y1921481D1*
X2147968Y1925327D1*
X2146067Y1927229D1*
X2140319Y1929130D1*
X2146067Y1931075D1*
X2147968Y1932977D1*
X2149869Y1936779D1*
Y1940626D1*
X2147968Y1944429D1*
X2146067Y1946374D1*
X2140319Y1948275D1*
X2123074D1*
Y1929130D2*
X2140319D1*
X2167367Y1948275D2*
Y1908083D1*
X2211659Y1948275D2*
Y1908083D1*
X2184865Y1948275D1*
Y1908083D1*
X2229157Y1940582D2*
X2233004Y1942527D1*
X2238752Y1948231D1*
Y1908083D1*
X2123074Y1848275D2*
Y1808083D1*
X2140319D1*
X2146067Y1810029D1*
X2147968Y1811930D1*
X2149869Y1815733D1*
Y1821481D1*
X2147968Y1825327D1*
X2146067Y1827229D1*
X2140319Y1829130D1*
X2146067Y1831075D1*
X2147968Y1832977D1*
X2149869Y1836779D1*
Y1840626D1*
X2147968Y1844429D1*
X2146067Y1846374D1*
X2140319Y1848275D1*
X2123074D1*
Y1829130D2*
X2140319D1*
X2167367Y1848275D2*
Y1808083D1*
X2211659Y1848275D2*
Y1808083D1*
X2184865Y1848275D1*
Y1808083D1*
X2231103Y1838680D2*
Y1840582D1*
X2233004Y1844429D1*
X2234905Y1846330D1*
X2238752Y1848231D1*
X2246401D1*
X2250204Y1846330D1*
X2252105Y1844429D1*
X2254051Y1840582D1*
Y1836779D1*
X2252105Y1832932D1*
X2248303Y1827229D1*
X2229157Y1808083D1*
X2255952D1*
X2123074Y1727229D2*
X2140319D1*
X2146022Y1729130D1*
X2147968Y1731075D1*
X2149869Y1734878D1*
Y1740626D1*
X2147968Y1744429D1*
X2146022Y1746374D1*
X2140319Y1748275D1*
X2123074D1*
Y1708083D1*
X2167367Y1748275D2*
X2176962Y1708083D1*
X2186512Y1748275D1*
X2196063Y1708083D1*
X2205658Y1748275D1*
X2249950D2*
Y1708083D1*
X2223155Y1748275D1*
Y1708083D1*
X2267448Y1748275D2*
Y1708083D1*
X2284692D1*
X2290440Y1710029D1*
X2292341Y1711930D1*
X2294243Y1715733D1*
Y1721481D1*
X2292341Y1725327D1*
X2290440Y1727229D1*
X2284692Y1729130D1*
X2290440Y1731075D1*
X2292341Y1732977D1*
X2294243Y1736779D1*
Y1740626D1*
X2292341Y1744429D1*
X2290440Y1746374D1*
X2284692Y1748275D1*
X2267448D1*
Y1729130D2*
X2284692D1*
X2151770Y1638725D2*
X2149869Y1642527D1*
X2146022Y1646374D1*
X2142220Y1648275D1*
X2134571D1*
X2130724Y1646374D1*
X2126921Y1642527D1*
X2124976Y1638725D1*
X2123074Y1632977D1*
Y1623382D1*
X2124976Y1617678D1*
X2126921Y1613831D1*
X2130724Y1610029D1*
X2134571Y1608083D1*
X2142220D1*
X2146022Y1610029D1*
X2149869Y1613831D1*
X2151770Y1617678D1*
Y1623382D1*
X2142220D1*
X2196063Y1648275D2*
Y1608083D1*
X2169268Y1648275D1*
Y1608083D1*
X2213561Y1648275D2*
Y1608083D1*
X2226958D1*
X2232706Y1610029D1*
X2236553Y1613831D1*
X2238454Y1617678D1*
X2240355Y1623382D1*
Y1632977D1*
X2238454Y1638725D1*
X2236553Y1642527D1*
X2232706Y1646374D1*
X2226958Y1648275D1*
X2213561D1*
M02*
